<?xml version="1.0" encoding="UTF-8"?>
<svg id="Livello_1" data-name="Livello 1" xmlns="http://www.w3.org/2000/svg" viewBox="0 0 573.31 542.95">
  <defs>
    <style>
      .cls-1 {
        fill: #fff;
      }
    </style>
  </defs>
  <path class="cls-1" d="M137.39,118.06c-58.83,0-106.51,47.69-106.51,106.51s47.69,106.51,106.51,106.51,106.51-47.69,106.51-106.51-47.69-106.51-106.51-106.51ZM137.39,274.64c-27.65,0-50.07-22.42-50.07-50.07s22.42-50.07,50.07-50.07,50.07,22.42,50.07,50.07-22.42,50.07-50.07,50.07Z"/>
  <path class="cls-1" d="M100.58,82.84h73.62v30.35c0,8.78-7.12,15.9-15.9,15.9h-41.82c-8.78,0-15.9-7.12-15.9-15.9v-30.35h0Z" transform="translate(274.78 211.93) rotate(-180)"/>
  <path class="cls-1" d="M100.58,321.48h73.62v30.35c0,8.78-7.12,15.9-15.9,15.9h-41.82c-8.78,0-15.9-7.12-15.9-15.9v-30.35h0Z"/>
  <path class="cls-1" d="M-3.8,140.87h73.62v30.35c0,8.78-7.12,15.9-15.9,15.9H12.1c-8.78,0-15.9-7.12-15.9-15.9v-30.35h0Z" transform="translate(189.94 221.92) rotate(121.64)"/>
  <path class="cls-1" d="M199.38,266.05h73.62v30.35c0,8.78-7.12,15.9-15.9,15.9h-41.82c-8.78,0-15.9-7.12-15.9-15.9v-30.35h0Z" transform="translate(-133.9 338.58) rotate(-58.36)"/>
  <path class="cls-1" d="M-1.95,268.96h73.62v30.35c0,8.78-7.12,15.9-15.9,15.9H13.95c-8.78,0-15.9-7.12-15.9-15.9v-30.35h0Z" transform="translate(259.87 102.62) rotate(56.71)"/>
  <path class="cls-1" d="M197.52,137.96h73.62v30.35c0,8.78-7.12,15.9-15.9,15.9h-41.82c-8.78,0-15.9-7.12-15.9-15.9v-30.35h0Z" transform="translate(228.32 445.38) rotate(-123.29)"/>
  <path class="cls-1" d="M452.87,246.37c-66.58-30.65-145.41-1.53-176.06,65.06-30.65,66.58-1.53,145.41,65.06,176.06,66.58,30.65,145.41,1.53,176.06-65.06,30.65-66.58,1.53-145.41-65.06-176.06ZM371.28,423.6c-31.3-14.41-44.99-51.47-30.58-82.77,14.41-31.3,51.47-44.99,82.77-30.58,31.3,14.41,44.99,51.47,30.58,82.77-14.41,31.3-51.47,44.99-82.77,30.58Z"/>
  <path class="cls-1" d="M413.31,203.87h91.73v41.73c0,8.78-7.12,15.9-15.9,15.9h-59.93c-8.78,0-15.9-7.12-15.9-15.9v-41.73h0Z" transform="translate(778.96 636.06) rotate(-155.28)"/>
  <path class="cls-1" d="M288.95,473.98h91.73v41.73c0,8.78-7.12,15.9-15.9,15.9h-59.93c-8.78,0-15.9-7.12-15.9-15.9v-41.73h0Z" transform="translate(240.95 -93.94) rotate(24.72)"/>
  <path class="cls-1" d="M264.92,215.15h91.73v41.73c0,8.78-7.12,15.9-15.9,15.9h-59.93c-8.78,0-15.9-7.12-15.9-15.9v-41.73h0Z" transform="translate(704.68 274.9) rotate(146.36)"/>
  <path class="cls-1" d="M429.66,462.71h91.73v41.73c0,8.78-7.12,15.9-15.9,15.9h-59.93c-8.78,0-15.9-7.12-15.9-15.9v-41.73h0Z" transform="translate(-192.66 345.78) rotate(-33.64)"/>
  <path class="cls-1" d="M200.27,361.09h91.73v41.73c0,8.78-7.12,15.9-15.9,15.9h-59.93c-8.78,0-15.9-7.12-15.9-15.9v-41.73h0Z" transform="translate(595 88.4) rotate(81.43)"/>
  <path class="cls-1" d="M494.31,316.77h91.73v41.73c0,8.78-7.12,15.9-15.9,15.9h-59.93c-8.78,0-15.9-7.12-15.9-15.9v-41.73h0Z" transform="translate(278.97 931.24) rotate(-98.57)"/>
  <path class="cls-1" d="M423.92,52.17c-31.47-31.54-82.55-31.6-114.1-.13-31.54,31.47-31.6,82.55-.13,114.1,31.47,31.54,82.55,31.6,114.1.13,31.54-31.47,31.6-82.55.13-114.1ZM339.96,135.94c-14.79-14.83-14.77-38.84.06-53.64,14.83-14.79,38.84-14.77,53.64.06,14.79,14.83,14.77,38.84-.06,53.64-14.83,14.79-38.84,14.77-53.64-.06Z"/>
  <path class="cls-1" d="M402.53,28.19h55.76v23.99c0,6.09-4.95,11.04-11.04,11.04h-33.68c-6.09,0-11.04-4.95-11.04-11.04v-23.99h0Z" transform="translate(702.06 382.66) rotate(-134.94)"/>
  <path class="cls-1" d="M274.57,155.86h55.76v23.97c0,6.11-4.96,11.06-11.06,11.06h-33.63c-6.11,0-11.06-4.96-11.06-11.06v-23.97h0Z" transform="translate(211.55 -163.18) rotate(45.06)"/>
  <path class="cls-1" d="M357.15,179.17h55.76v24.03c0,6.07-4.93,11-11,11h-33.76c-6.07,0-11-4.93-11-11v-24.03h0Z" transform="translate(-34.92 93.85) rotate(-13.3)"/>
  <path class="cls-1" d="M247.88,72.78h55.76v24.02c0,6.08-4.93,11.01-11.01,11.01h-33.74c-6.08,0-11.01-4.93-11.01-11.01v-24.02h0Z" transform="translate(420.41 -161.24) rotate(101.77)"/>
  <path class="cls-1" d="M424.84,109.65h55.76v24.03c0,6.07-4.93,11-11,11h-33.76c-6.07,0-11-4.93-11-11v-24.03h0Z" transform="translate(235.87 544.43) rotate(-78.23)"/>
  <path class="cls-1" d="M315.67,3.71h55.76v24.03c0,6.07-4.93,11-11,11h-33.76c-6.07,0-11-4.93-11-11V3.71h0Z" transform="translate(682.77 -37.15) rotate(166.7)"/>
</svg>