<?xml version="1.0" encoding="UTF-8" standalone="no"?>
<svg
   viewBox="0 0 750 500"
   version="1.1"
   id="svg6"
   sodipodi:docname="ALB_landscape.svg"
   inkscape:version="1.2.2 (b0a8486541, 2022-12-01)"
   width="750"
   height="500"
   xmlns:inkscape="http://www.inkscape.org/namespaces/inkscape"
   xmlns:sodipodi="http://sodipodi.sourceforge.net/DTD/sodipodi-0.dtd"
   xmlns="http://www.w3.org/2000/svg"
   xmlns:svg="http://www.w3.org/2000/svg">
  <defs
     id="defs10" />
  <sodipodi:namedview
     id="namedview8"
     pagecolor="#ffffff"
     bordercolor="#000000"
     borderopacity="0.25"
     inkscape:showpageshadow="2"
     inkscape:pageopacity="0.0"
     inkscape:pagecheckerboard="0"
     inkscape:deskcolor="#d1d1d1"
     showgrid="false"
     inkscape:zoom="0.67428571"
     inkscape:cx="504.97881"
     inkscape:cy="335.16949"
     inkscape:window-width="1532"
     inkscape:window-height="1041"
     inkscape:window-x="384"
     inkscape:window-y="0"
     inkscape:window-maximized="1"
     inkscape:current-layer="svg6" />
  <path
     d="M 750,-17.857 H 0 v 535.71428 h 750 z"
     fill="#ff0000"
     id="path2"
     style="stroke-width:0.765307" />
  <path
     d="m 395.28826,386.94708 c -4.70663,-4.08061 -10.41199,-12.34439 -10.33163,-20.3097 0.42092,-5.93954 4.49465,-9.3903 7.12653,-2.13979 3.72092,8.0028 11.70152,21.23647 22.69898,13.47321 4.8046,-3.52653 4.72959,-8.71836 -1.85816,-8.12295 -8.13521,-0.55715 -13.13265,-5.03343 -16.77322,-16.55817 -0.66199,-6.33826 1.97449,-6.17984 5.65332,-2.1023 4.72959,5.42602 14.14132,13.62704 24.525,9.2319 5.7704,-2.41838 7.39898,-7.40817 -1.31862,-8.63649 -8.25307,0.12016 -14.99005,-5.2301 -21.69644,-13.39133 -3.67729,-4.51529 1.74644,-9.07347 5.00281,-5.23009 2.90434,2.4949 6.97193,7.09132 10.45792,7.72499 4.03086,0.79133 9.02754,0.39797 14.56377,-2.53317 5.96785,-4.99514 4.0301,-8.59897 -3.21429,-9.42856 -5.61581,0.27857 -8.67474,2.41301 -15.91837,-2.41837 -13.02091,-8.80102 -23.37245,-20.55994 -24.98954,-34.70434 -1.06224,-9.30305 3.93979,-12.12015 8.09847,-11.04949 11.31123,2.9097 18.71097,24.04745 26.53699,35.65944 2.56224,3.34668 4.91633,3.40103 6.58163,2.36939 3.1393,-2.69158 5.64643,-4.90407 8.78572,-7.91326 0,0 23.02423,4.13724 35.56224,8.22398 l -13.96072,4.96148 c -5.28596,-2.91888 -11.66555,0.22806 -11.66555,5.29208 -5.00204,3.45919 -4.59949,7.51456 -2.44133,11.42832 0.65817,-2.72525 1.2199,-6.26479 5.17118,-6.73545 5.63954,2.33265 12.21045,-0.99643 12.21045,-5.40078 l 16.46863,-6.47295 16.63775,9.41939 c 0,6.36734 6.03291,8.38469 12.30995,6.66581 2.95791,1.83673 4.85969,5.02347 5.86148,8.43138 1.85205,-4.9148 1.46556,-8.38469 -1.43495,-10.79617 1.66455,-6.35434 -7.2398,-12.46454 -14.1329,-8.39541 l -11.9694,-6.87245 20.48725,-0.57397 c 2.3778,4.20918 10.97219,4.44107 13.47934,0 2.14286,-0.587 3.95357,-0.96047 8.13137,2.14514 -1.31631,-5.025 -3.87856,-7.17321 -7.72194,-7.17321 -2.9204,-5.17424 -13.48928,-5.1505 -15.01531,0.67499 l -21.33749,0.59312 12.66045,-9.01377 c 4.72578,2.79031 11.35714,-0.31149 12.68496,-5.3801 1.88418,-2.24005 4.20766,-3.29235 8.78112,-1.77245 -2.35714,-4.17475 -5.67857,-5.42066 -11.67705,-2.58673 -5.47193,-4.14644 -12.68418,0.8824 -11.58979,5.05713 l -16.84438,11.46047 c -12.22653,-3.64822 -34.3699,-9.32909 -34.3699,-9.32909 2.63649,-2.77346 5.31122,-5.35025 7.94311,-8.16199 0.95051,-1.64694 -0.50205,-3.56479 -2.52016,-3.96429 -19.75713,-4.07754 -31.06912,-12.04209 -37.9232,-32.2852 -2.86684,-8.47806 3.33137,-11.01122 5.46122,-5.82551 2.94643,7.21224 6.19745,15.09489 15.06888,21.19898 3.05969,2.13981 12.1676,0.39261 6.78061,-4.71734 -5.57908,-4.59643 -7.98061,-6.57245 -10.7296,-17.74745 0,-5.66174 5.77042,-8.20026 8.98929,-2.77347 3.44388,11.13138 3.79592,15.92449 10.03086,23.09694 4.72424,5.42756 10.88496,9.07423 13.94389,8.99234 5.50408,-0.0766 11.04489,-6.02295 3.68342,-10.34005 -10.80995,-4.31786 -14.76047,-10.21913 -16.35154,-15.84796 -1.74029,-9.82118 0.16071,-14.57602 6.08572,-9.74464 8.40306,9.54796 24.44388,27.33444 32.84693,35.61581 9.4171,7.21225 20.22169,7.44644 28.82144,0.12015 4.92244,-5.66631 3.17601,-11.76428 -4.53138,-10.45943 -17.39235,1.46786 -30.56249,-7.16862 -45.01301,-30.50663 -2.82933,-5.26837 -3.60459,-12.83494 2.63649,-7.20613 7.20152,9.74466 17.70152,18.02603 27.46683,21.59082 9.8005,3.52194 17.89285,1.57653 21.03137,-1.50611 3.78291,-3.78216 2.78801,-13.31021 -3.75765,-11.01276 -5.38622,1.90101 -12.9773,2.3755 -20.87755,-0.67577 -7.90639,-3.0903 -16.11735,-9.74465 -24.83418,-21.03445 -2.9847,-6.37652 -2.01276,-11.76505 4.02932,-8.47958 14.29593,12.12627 32.73599,21.94745 42.14695,16.04618 6.9352,-4.31863 7.05229,-15.41174 -1.7403,-14.69694 -17.7069,2.413 -24.40638,-1.50613 -41.41456,-16.51915 -3.8709,-2.89361 -3.60305,-10.22525 2.55613,-5.54693 14.29592,9.23189 33.81888,12.83419 41.49032,8.00358 6.8977,-4.31863 5.88825,-17.51403 -5.73292,-12.84031 -9.29923,5.66632 -19.56505,5.50791 -40.13417,-9.18826 -5.18879,-4.31786 -1.31863,-9.94669 2.94182,-7.52832 16.54363,9.42856 40.64082,13.46786 46.91327,-5.7046 2.4398,-7.32704 -1.97449,-11.60663 -8.44515,-6.53571 -14.21633,13.15179 -30.33291,6.69336 -39.35434,0.0766 -2.58367,-1.52296 -7.32398,-9.23112 1.00255,-7.80076 21.54107,4.91326 42.84644,0.63366 46.72194,-14.61964 2.2477,-4.95154 -2.17347,-13.70817 -10.03546,-6.37654 -10.34082,10.21989 -21.30612,10.57424 -35.09464,10.49771 -7.0148,-1.46785 -7.08903,-9.19286 -1.20153,-10.3393 10.88494,0.23419 21.6153,-4.52065 30.21582,-9.35203 8.40765,-4.83137 15.37958,-11.60664 17.58979,-20.99617 1.35459,-8.39693 -6.74235,-17.31123 -11.62194,-8.39693 -7.20689,13.03162 -23.16811,25.31478 -40.91326,27.53187 -0.92373,-1.54592 -3.25102,-5.50867 -6.11786,-4.39514 -5.2102,2.02039 -11.41837,4.72346 -17.8102,7.75943 -13.77857,6.5426 -19.52067,9.69567 -17.86608,21 1.7273,11.79566 -7.36683,19.24975 -14.87754,17.19108 -6.55103,-1.76328 -10.1648,-7.68062 -8.99082,-17.94414 0.94056,-8.17806 9.15077,-18.0704 18.40255,-23.25765 5.98928,-3.35204 15.03214,-5.18572 25.9171,-7.60408 6.62448,-1.30485 9.99871,-3.88164 10.38367,-6.57858 0,0 -4.52832,3.31377 -11.77653,2.81633 -3.42705,-0.2449 -5.72297,-1.75255 -6.58776,-3.29082 2.52015,-0.51275 7.0898,0.0819 11.1949,0.0819 5.46046,-0.0437 18.13928,-1.26657 21.50279,-8.95408 1.04618,-5.07091 -2.28595,-5.9824 -5.38622,-2.73445 -3.33137,3.51046 -4.70356,6.66583 -11.38775,7.8444 -4.06683,0.71556 -8.13519,1.54592 -13.36684,0.27934 2.94643,-3.49975 7.62857,-7.08062 11.62195,-6.42093 1.31326,0.21888 3.05892,1.43112 4.45714,3.60919 0.85408,-5.54693 -0.66199,-11.80867 -15.49745,-9.19362 0.23571,-4.19771 -8.60051,-6.02143 -13.90562,-5.93954 -3.02143,0.0766 -9.18214,1.86199 -13.63469,3.99642 -7.05153,2.18343 -14.02348,3.76685 -22.2398,4.36226 4.76786,4.07754 5.65945,4.31784 10.42041,7.76249 -7.20152,2.69158 -12.78061,8.23852 -15.29922,11.88521 0,0 8.40764,-0.23496 10.53826,0.71479 -8.79797,2.57143 -12.74924,4.11659 -17.39771,8.87143 1.6278,0.27857 4.06684,0.75306 5.11377,1.15179 1.08904,0.39336 0.80587,1.10816 -0.075,1.7801 -1.8949,1.44643 -9.72551,10.54132 -12.01072,12.71938 -2.2852,-2.17806 -10.11581,-11.27295 -12.01071,-12.71938 -0.88087,-0.67194 -1.16403,-1.38674 -0.075,-1.7801 1.04617,-0.39796 3.48597,-0.87322 5.11377,-1.15179 -4.64923,-4.75484 -8.59974,-6.3 -17.3977,-8.87143 2.13062,-0.94975 10.53827,-0.71479 10.53827,-0.71479 -2.52016,-3.64669 -8.09847,-9.19363 -15.30001,-11.88521 4.76174,-3.44465 5.65332,-3.68495 10.42041,-7.76326 -8.21556,-0.59464 -15.1875,-2.17806 -22.2398,-4.36225 -4.45178,-2.13367 -10.6125,-3.91913 -13.63393,-3.99566 -5.30586,-0.0819 -14.14131,1.74183 -13.9056,5.93877 -14.83546,-2.61428 -16.35153,3.64746 -15.49745,9.19439 1.39821,-2.17807 3.14388,-3.39031 4.45714,-3.60842 3.99336,-0.66046 8.67475,2.92041 11.62194,6.42016 -5.23163,1.26658 -9.3,0.43622 -13.3676,-0.27857 -6.68342,-1.17858 -8.05561,-4.33471 -11.38776,-7.8444 -3.10025,-3.24872 -6.43164,-2.33723 -5.38546,2.73444 3.36352,7.68675 16.04082,8.90969 21.5028,8.95332 4.10511,0 8.67476,-0.5954 11.19491,-0.0819 -0.8648,1.53979 -3.16072,3.04592 -6.58776,3.29082 -7.24897,0.49744 -11.77652,-2.81633 -11.77652,-2.81633 0.38494,2.69694 3.75765,5.27296 10.38366,6.57858 10.88496,2.41836 19.92781,4.25281 25.9171,7.60484 9.25178,5.18649 17.46199,15.07883 18.40178,23.25689 1.17398,10.26275 -2.43979,16.18086 -8.99005,17.94414 -7.51071,2.05867 -16.60485,-5.39542 -14.87756,-17.19108 1.6546,-11.30433 -4.08749,-14.4574 -17.86606,-21 -6.39184,-3.03597 -12.6,-5.7398 -17.81021,-7.7602 -2.86683,-1.11276 -5.19413,2.85076 -6.11785,4.39591 -17.74516,-2.21709 -33.70638,-14.50025 -40.91328,-27.53187 -4.87958,-8.9143 -12.97728,0 -11.62193,8.39693 2.2102,9.3903 9.18215,16.1648 17.58981,20.99617 8.60049,4.83138 19.33085,9.58622 30.2158,9.35203 5.88751,1.14644 5.81327,8.87145 -1.20153,10.3393 -13.78928,0.0766 -24.75382,-0.27782 -35.09464,-10.49771 -7.86276,-7.33163 -12.28316,1.425 -10.03546,6.37654 3.87552,15.25253 25.18087,19.5329 46.72117,14.61964 8.32654,-1.43113 3.58699,6.27857 1.00256,7.80153 -9.02067,6.61606 -25.13725,13.07449 -39.35357,-0.0766 -6.46991,-5.07169 -10.88571,-0.7921 -8.44516,6.53494 6.27246,19.17246 30.36965,15.13316 46.91327,5.7046 4.26046,-2.41837 8.13061,3.21046 2.94184,7.52832 -20.56914,14.69617 -30.83418,14.85458 -40.1342,9.18826 -11.62117,-4.67372 -12.63059,8.52168 -5.7329,12.84031 7.67067,4.83138 27.19363,1.22831 41.48954,-8.00358 6.16072,-4.67832 6.42705,2.65332 2.55612,5.54693 -17.00739,15.01302 -23.70688,18.93215 -41.41377,16.51915 -8.79337,-0.7148 -8.67551,10.37755 -1.74031,14.69694 9.41098,5.9005 27.8495,-3.91991 42.14541,-16.04542 6.04363,-3.28623 7.0148,2.1023 4.03087,8.47882 -8.71683,11.2898 -16.92858,17.94415 -24.83419,21.03445 -7.90025,3.05127 -15.49132,2.57678 -20.87754,0.67653 -6.54567,-2.29821 -7.54056,7.22984 -3.75842,11.012 3.14005,3.08264 11.23163,5.02805 21.03291,1.50611 9.76378,-3.56479 20.26454,-11.84693 27.46607,-21.59082 6.2403,-5.62881 5.46582,1.93776 2.63648,7.20613 -14.45051,23.33801 -27.6199,31.97449 -45.01301,30.50663 -7.70817,-1.30485 -9.45383,4.79312 -4.53215,10.45943 8.60051,7.32629 19.4051,7.0921 28.82143,-0.12015 8.40307,-8.28137 24.44388,-26.06785 32.84694,-35.61581 5.92576,-4.83138 7.82679,-0.0766 6.08648,9.74464 -1.59184,5.62883 -5.54081,11.5301 -16.35152,15.84796 -7.36225,4.31862 -1.82144,10.26275 3.6834,10.33928 3.05894,0.0827 9.21965,-3.56401 13.94388,-8.99081 6.23496,-7.17321 6.58776,-11.96632 10.03087,-23.0977 3.21888,-5.42679 8.98928,-2.88827 8.98928,2.77271 -2.74897,11.17576 -5.15126,13.15178 -10.72959,17.74744 -5.38775,5.11072 3.72093,6.85715 6.77985,4.71811 8.8722,-6.10409 12.12246,-13.98674 15.06889,-21.19898 2.1306,-5.18571 8.32882,-2.65255 5.46198,5.82551 -6.85408,20.24235 -18.16606,28.20766 -37.92322,32.28597 -2.01811,0.39796 -3.47065,2.31658 -2.52091,3.96352 2.63265,2.81174 5.3074,5.38776 7.94388,8.16199 0,0 -22.14413,5.68087 -34.37066,9.32909 l -16.8444,-11.46047 c 1.09439,-4.17473 -6.11708,-9.20357 -11.5898,-5.05867 -5.99923,-2.83239 -9.31989,-1.58648 -11.67703,2.58827 4.57347,-1.5199 6.89694,-0.4676 8.78111,1.77168 1.32781,5.06938 7.9592,8.17118 12.68495,5.3801 l 12.66047,9.0153 -21.33674,-0.59388 c -1.52679,-5.82474 -12.09566,-5.84923 -15.01684,-0.67499 -3.84183,0 -6.40561,2.14821 -7.72193,7.17321 4.17857,-3.10561 5.99006,-2.73214 8.13214,-2.14514 2.50714,4.44107 11.10153,4.20918 13.47857,0 l 20.48801,0.57397 -11.96938,6.87245 c -6.89311,-4.06913 -15.79745,2.04107 -14.13291,8.39541 -2.90052,2.41071 -3.28776,5.88137 -1.43495,10.79617 1.00102,-3.40791 2.90357,-6.59465 5.86224,-8.43215 6.27551,1.71965 12.30918,-0.29694 12.30918,-6.66581 l 16.63777,-9.41862 16.46937,6.47295 c 0,4.40435 6.57017,7.73343 12.2097,5.40078 3.95128,0.47066 4.51302,4.0102 5.17118,6.73468 2.15817,-3.91299 2.56071,-7.96836 -2.44133,-11.42755 0,-5.06402 -6.37959,-8.21172 -11.66557,-5.29208 l -13.96071,-4.96148 c 12.53801,-4.08674 35.56302,-8.22322 35.56302,-8.22322 3.13851,3.00766 5.64566,5.22092 8.78571,7.91327 1.6653,1.03087 4.01938,0.97652 6.58163,-2.37016 7.82601,-11.61199 15.225,-32.74974 26.53699,-35.65944 4.15867,-1.07143 9.16071,1.74644 8.09847,11.04949 -1.61786,14.1444 -11.96938,25.90408 -24.98878,34.70434 -7.24438,4.83138 -10.30331,2.69694 -15.91912,2.41837 -7.24439,0.82959 -9.18215,4.43342 -3.21429,9.42856 5.53622,2.93114 10.5329,3.3245 14.56378,2.53317 3.48596,-0.63367 7.55356,-5.23009 10.4579,-7.72499 3.25637,-3.84338 8.6801,0.7148 5.00204,5.23009 -6.70561,8.16123 -13.44261,13.51149 -21.69643,13.39133 -8.71684,1.22832 -7.08826,6.21811 -1.31786,8.63649 10.38367,4.39514 19.79466,-3.80511 24.52501,-9.2319 3.67806,-4.07754 6.3153,-4.23596 5.65331,2.1023 -3.64132,11.52474 -8.63801,16.00102 -16.77321,16.55817 -6.58776,-0.59541 -6.66275,4.59642 -1.85816,8.12295 10.99744,7.76326 18.97806,-5.47041 22.69897,-13.47321 2.63189,-7.24975 6.70409,-3.79975 7.12654,2.13979 0.0804,7.96531 -5.625,16.22909 -10.33163,20.3097 -4.7051,4.08214 20.28672,30.02756 20.28672,30.02756 0,0 24.99261,-25.94694 20.28751,-30.02833 z M 428.78035,93.11544 c -3.89004,0 -6.2931,1.36225 -6.2931,3.01531 0,1.67908 2.40306,3.04745 6.2931,3.04745 3.8671,0 6.32297,-1.49234 6.32297,-3.17373 0,-1.65306 -2.45664,-2.88979 -6.32297,-2.88979 z m -107.55919,0 c 3.89006,0 6.29312,1.36225 6.29312,3.01531 0,1.67908 -2.40306,3.04745 -6.29312,3.04745 -3.86708,0 -6.32295,-1.49234 -6.32295,-3.17373 0,-1.65306 2.45663,-2.88979 6.32295,-2.88979 z"
     fill-rule="evenodd"
     id="path4"
     style="stroke-width:0.765307" />
</svg>
