<?xml version="1.0" encoding="UTF-8" standalone="no"?>
<svg
   viewBox="0 0 750 500"
   version="1.1"
   id="svg590"
   sodipodi:docname="AND_landscape.svg"
   inkscape:version="1.2.2 (b0a8486541, 2022-12-01)"
   width="750"
   height="500"
   xmlns:inkscape="http://www.inkscape.org/namespaces/inkscape"
   xmlns:sodipodi="http://sodipodi.sourceforge.net/DTD/sodipodi-0.dtd"
   xmlns:xlink="http://www.w3.org/1999/xlink"
   xmlns="http://www.w3.org/2000/svg"
   xmlns:svg="http://www.w3.org/2000/svg">
  <defs
     id="defs594" />
  <sodipodi:namedview
     id="namedview592"
     pagecolor="#ffffff"
     bordercolor="#000000"
     borderopacity="0.25"
     inkscape:showpageshadow="2"
     inkscape:pageopacity="0.0"
     inkscape:pagecheckerboard="0"
     inkscape:deskcolor="#d1d1d1"
     showgrid="false"
     inkscape:zoom="0.67428571"
     inkscape:cx="599.15254"
     inkscape:cy="207.62712"
     inkscape:window-width="1367"
     inkscape:window-height="1041"
     inkscape:window-x="549"
     inkscape:window-y="0"
     inkscape:window-maximized="1"
     inkscape:current-layer="svg590" />
  <path
     fill="#d0103a"
     d="m 0,-10.3995 h 750 v 520.799 H 0 Z"
     id="path316"
     style="stroke-width:0.746993" />
  <path
     fill="#fedf00"
     d="m 0,-10.3995 h 510 v 520.799 H 0 Z"
     id="path318"
     style="stroke-width:0.746993" />
  <path
     fill="#0018a8"
     d="m 0,-10.3995 h 240 v 520.799 H 0 Z"
     id="path320"
     style="stroke-width:0.746993" />
  <path
     fill="#c7b37f"
     d="m 352.0275,129.82935 c 9.0375,0 12.735,7.69294 21.7725,7.69294 5.58001,0 8.835,-1.80791 13.695,-4.53095 3.39,-1.90463 5.5575,-2.92391 9.45001,-2.92391 3.99,0 6.43499,1.19784 8.475,4.59047 1.15499,1.91951 2.11499,5.67671 1.60499,7.8343 a 46.8225,46.447831 0 0 1 -3.195,9.63479 c -0.78,1.81535 -1.5225,2.90159 -1.5225,4.88063 0,4.76159 6.525,6.39838 10.9725,6.46534 0.9675,0.0149 9.09751,0.1488 14.1075,-4.88063 -2.715,-0.11904 -5.7525,-2.20967 -5.7525,-4.90295 0,-3.05039 2.16,-5.11126 5.08501,-5.98918 0.55499,-0.16368 1.49999,0.32736 2.00999,0.067 0.7125,-0.372 0.375,-1.16808 1.0125,-1.66656 1.46251,-1.16063 2.4075,-1.88231 4.275,-1.88231 1.22251,0 1.935,0.17112 2.9175,0.87047 0.5175,0.36456 0.705,0.8184 1.3425,0.8184 1.33501,0 2.0025,-0.84072 3.3375,-0.84072 1.0875,0 1.7475,0.1488 2.7,0.6324 0.8025,0.4092 0.78,1.7484 1.68,1.7484 0.45,0 2.835,-0.9672 4.08,-0.9672 2.58751,0 3.9675,0.93 5.64,2.87927 0.45,0.5208 0.73501,1.58472 1.20001,1.58472 a 7.29,7.2316661 0 0 1 5.62499,3.42239 c 0.3075,0.4836 0.7725,1.674 1.3125,1.88232 0.63,0.23808 1.16251,0.19344 1.995,0.72168 1.89,1.20527 3.3525,3.46703 3.2775,5.65438 -0.0225,0.744 -0.36,1.77072 -0.5625,2.47008 -2.205,7.64831 -7.45499,10.08118 -12.75,16.65069 -2.25,2.79743 -4.035,5.03687 -4.035,8.63038 0,0.86305 1.08,2.4552 1.5525,3.16944 -0.2925,-1.68144 0.4875,-3.7572 2.2875,-3.85392 2.46,-0.12648 4.3575,1.72609 4.6875,4.14408 0.075,0.56544 -0.1425,1.54752 -0.3825,2.1204 a 11.19,11.100459 0 0 1 4.6575,-1.6368 c 0.86251,-0.0893 1.365,-0.11904 2.235,-0.0967 3.9375,0.0967 8.28,2.29151 10.9125,4.51607 8.0625,6.7927 9.03751,16.73253 8.595,19.49276 -0.975,6.13055 -0.36,17.23844 -16.17,21.66524 2.925,1.22016 4.9125,3.40007 4.9125,6.07847 0,2.92391 -2.25,5.41631 -5.19749,5.41631 -1.68001,0 -2.85001,-0.4092 -4.02751,-1.57728 -3.285,3.25871 -3.9225,6.58438 -3.9225,11.20461 0,2.75281 0.525,4.3896 1.695,6.88944 1.2375,2.64119 2.1225,4.18871 4.35,6.10078 1.1775,-1.76327 2.4225,-3.05039 4.56,-3.05039 2.0625,0 3.8175,0.65472 4.665,2.52215 0.2475,0.56544 0.0225,1.02672 0.315,1.57728 0.37501,0.7068 0.99751,0.86304 1.38,1.57728 0.6,1.08623 0.015,2.02367 0.525,3.15455 0.3375,0.73656 1.065,0.84072 1.38,1.57727 0.5025,1.13088 0.6375,1.90464 0.6375,3.15456 0,3.4968 -3.20249,5.99663 -6.7275,5.99663 -1.06499,0 -1.65,-0.42408 -2.7,-0.31992 2.01001,2.00136 3.5475,2.87184 5.085,5.26007 2.22,3.45959 2.775,5.91479 3.285,9.9919 0.09,0.75888 0.105,1.22016 0.105,2.00135 0,5.23032 -0.825,8.35511 -3.18,13.03486 -2.25,4.48631 -4.1775,6.97127 -8.2725,9.89518 -6.3825,4.55328 -11.04,5.87016 -18.765,7.35815 a 87.165,86.467514 0 0 1 -12.825,1.68144 c -6.44249,0.4092 -10.11,0.41664 -16.5375,0.84072 -8.43,0.56544 -14.2725,1.74839 -20.25,7.67806 2.82,2.04599 4.77001,4.06223 4.77001,7.51438 0,3.55632 -2.21251,6.09336 -5.62501,7.20935 -0.7875,0.2604 -1.3725,0.0223 -2.115,0.41664 -0.89249,0.46128 -0.84749,1.47312 -1.695,2.00136 -1.5,0.94488 -2.6625,1.1532 -4.455,1.1532 -3.14999,0 -5.3025,-0.73656 -7.52999,-2.9388 -2.58001,2.12784 -3.45001,4.04735 -6.36001,5.67671 -0.9525,0.5208 -1.44,1.2648 -2.54999,1.2648 -1.72501,0 -2.52751,-1.09368 -3.915,-2.10552 A 26.895,26.679788 0 0 1 365.97,363.40032 c -2.6325,1.5624 -4.2525,2.83464 -7.3125,2.83464 -1.8825,0 -3.075,-0.2604 -4.66499,-1.2648 -0.83251,-0.50592 -0.97501,-1.2648 -1.80001,-1.7856 -0.8775,-0.53568 -1.605,-0.34224 -2.54999,-0.73656 -3.54001,-1.51031 -5.82751,-4.11431 -5.82751,-7.93847 0,-3.34799 2.13,-5.48326 5.19,-6.88942 -5.865,-5.81807 -11.6475,-6.8299 -19.9275,-7.36558 -6.405,-0.40176 -10.05,-0.41664 -16.4325,-0.83328 -5.0775,-0.34224 -7.8975,-0.8556 -12.9375,-1.68144 -3.8025,-0.61752 -6.05249,-0.8184 -9.54,-2.42543 -12,-5.5428 -19.6425,-13.1539 -21.2025,-26.18876 -0.135,-1.116 -0.105,-1.75584 -0.105,-2.88671 0,-6.78527 2.685,-10.9219 7.5225,-15.72069 -1.245,-0.2976 -2.0775,0.11904 -3.285,-0.31992 -3.0225,-1.08623 -5.19749,-3.16943 -5.19749,-6.36119 0,-1.18296 0.0525,-1.9716 0.63749,-2.99831 0.4125,-0.72168 1.2,-0.86304 1.38,-1.68144 0.24,-1.0788 -0.075,-1.83768 0.4275,-2.84207 0.33,-0.6696 0.9525,-0.79608 1.275,-1.47312 1.0425,-2.15759 2.355,-3.89111 4.7625,-3.89111 2.07,0 3.3975,1.0788 4.45501,2.84207 2.01749,-0.92256 2.57249,-2.41799 3.71249,-4.31519 1.89,-3.13967 2.7525,-5.33446 2.7525,-8.98751 0,-2.55191 -0.2475,-4.04735 -1.0575,-6.47278 -0.585,-1.73352 -0.82499,-2.91647 -2.1225,-4.20359 a 5.1225001,5.0815102 0 0 1 -4.0275,1.57728 c -3.36749,0 -5.94,-2.8644 -5.94,-6.20495 a 5.6325,5.5874293 0 0 1 3.5025,-5.35679 c -1.815,-1.56239 -3.39,-1.68888 -5.40749,-2.95368 -3.06001,-1.91952 -4.1325,-3.94319 -6.15001,-6.9415 -1.3125,-1.95672 -1.65,-3.32568 -2.32499,-5.57255 -0.81751,-2.70816 -1.27501,-4.32263 -1.27501,-7.14238 0,-0.744 0.007,-1.17552 0.105,-1.8972 0.75,-5.70648 1.785,-9.28511 5.40001,-13.77886 2.15249,-2.67095 3.60749,-4.31519 6.78749,-5.6767 2.7,-1.16064 4.32,-2.0088 7.26,-2.0088 0.8925,0 1.41,0 2.28,0.1116 1.35,0.17112 2.22,0.29016 3.3975,0.94488 0.45,0.25296 1.275,1.0044 1.275,0.47616 0,-0.60264 -0.3225,-0.92256 -0.3225,-1.5252 0,-2.41799 1.7475,-4.62768 4.185,-4.62768 1.7625,0 2.475,1.54008 3.345,3.0504 a 4.575,4.5383912 0 0 0 0.8475,-2.62632 c 0,-4.00271 -2.16,-6.04127 -4.665,-9.15118 -5.46,-6.77038 -12.3,-9.93982 -12.3,-18.61484 0,-2.58912 1.26,-4.35239 3.495,-5.68415 0.6525,-0.372 1.52251,0 2.16,-0.40176 0.5475,-0.34224 0.48,-1.0416 0.825,-1.59216 0.5475,-0.84815 1.0275,-1.22015 1.785,-1.87487 1.24501,-1.0788 2.34,-0.75888 3.7125,-1.70376 0.69,-0.46872 0.855,-1.08624 1.3875,-1.71119 1.5375,-1.84512 2.9175,-2.73792 5.34,-2.73792 1.215,0 1.905,0.007 3.03,0.45384 0.38251,0.1488 1.1025,0.72168 1.2,0.61008 a 5.5500001,5.5055894 0 0 1 1.68,-1.35408 c 1.02,-0.4836 1.425,-0.6696 2.5725,-0.6696 1.2975,0 2.145,0.72168 3.45001,0.72168 0.47249,0 0.58499,-0.47616 0.97499,-0.72168 1.1475,-0.77375 1.8075,-1.21271 3.2175,-1.21271 1.35,0 2.1,0.4464 3.2325,1.16063 1.0725,0.6696 1.23001,1.56984 2.325,2.20224 0.615,0.35712 1.125,0.19344 1.8075,0.42408 3.0225,0.99696 5.3025,2.99087 5.3025,6.14542 0,1.7112 -0.4125,2.93136 -1.695,4.05479 -1.02,0.8928 -1.98749,0.73656 -3.2925,1.1532 4.215,3.34055 7.8825,4.16639 13.2675,4.16639 4.92751,0 10.95,-1.99391 10.95,-6.88942 0,-2.2692 -1.26,-3.49679 -2.16,-5.57999 -1.62,-3.71999 -2.4975,-5.91478 -2.4975,-9.96215 0,-3.20663 0.3525,-5.1559 2.235,-7.7599 1.935,-2.67839 4.2975,-3.30335 7.6275,-3.30335 z"
     id="path322"
     style="stroke-width:0.746993" />
  <g
     fill="none"
     stroke="#703d29"
     id="g526"
     transform="matrix(0.75,0,0,0.74399856,0,-10.3995)">
    <path
       stroke-width="1.04"
       stroke-linejoin="round"
       d="m 425.59,223.46 a 5.56,5.56 0 0 0 3.82,3.8 5.9,5.9 0 0 0 5.99,-2.17 c 1.5,-1.95 1.4,-4.37 0.83,-6.3 -0.37,-1.24 -1.37,-2.44 -2.7,-3.47 l -7.94,8.06 z"
       id="path324" />
    <path
       stroke-width="1.04"
       stroke-linecap="round"
       d="m 626.61,343.94 c -1.87,-4.5 -6.69,-2.49 -6.98,0 -0.69,5.73 4.34,7.46 7.91,6.53 a 6.22,6.22 0 0 0 3.9,-3.03 7.54,7.54 0 0 0 0.6,-5.82 7.66,7.66 0 0 0 -1.32,-2.59 7.77,7.77 0 0 0 -2,-1.89 c -1.37,-0.87 -2.87,-0.96 -5.22,-0.96 -8.7,0 -16.33,10.29 -18.89,20.98 -0.84,3.52 -2,11.37 -0.4,18.81 1.72,7.93 5.15,13.42 9.17,17.59 2.18,2.25 5.14,4.26 8.99,6.43 1.18,0.67 4.32,2.06 6.5,2.68 2.23,0.64 4.3,0.55 6.15,0.15 5.16,-1.12 7.56,-5.92 4.96,-10.83 -2.13,-4.02 -8.4,-6.22 -11.35,-1.1 a 5.08,5.08 0 0 0 -0.63,2.42 c 0.02,1.37 0.59,3.02 1.56,3.64 2.25,1.43 5.84,1.02 5.68,-2.94"
       id="path326" />
    <path
       stroke-width="1.28"
       d="m 599.69,403.07 c 1.75,-2.06 5.76,-5.14 10.34,-5.7 4.66,-0.58 8.7,0.78 12.83,3 8.06,4.34 12.55,9 15.55,17.64 0.76,2.2 1.4,5.5 1.3,9.02 -0.14,5.6 -1.56,11.73 -3.09,14.7 -1.33,2.58 -4.82,13.99 -23.94,21.86 -11.16,4.6 -28.3,5.66 -40.12,6.12 -16.26,0.65 -31.26,1.25 -39.96,11.98"
       id="path328" />
    <g
       stroke-width="1.12"
       id="g334">
      <path
         d="m 603.75,421.45 c -0.47,-1.71 -0.03,-3.35 1.32,-5.2 1.82,-2.5 5.68,-3.35 9.18,-1.4 1.17,0.64 2.63,1.5 3.96,3.26 0.5,0.66 1.35,1.74 1.79,2.48 1.06,1.82 1.5,3.3 1.7,3.9 3.85,10.92 -2.26,22.76 -10.25,27.51 -6.2,3.7 -13.61,5.34 -22.47,6.38 -3.98,0.47 -6.26,0.44 -10.26,0.62 -3.23,0.15 -6.01,0.1 -8.63,0.07 -2.16,-0.03 -4.21,-0.02 -6.3,-0.07 a 110.9,110.9 0 0 0 -11.28,0.16 c -4.55,0.33 -7.97,0.44 -11.81,1.09 -2.52,0.41 -5.46,0.82 -8.55,1.51 -0.92,0.2 -1.86,0.38 -2.8,0.66 l -1.89,0.58 c -5.57,1.7 -10.98,3.77 -15.25,6.52 -1.32,0.85 -2.81,1.7 -3.88,2.7 -0.66,0.63 -1.47,1.26 -2.12,1.9 -3,2.95 -6.05,6.13 -6.77,10.44 -0.13,0.8 -0.13,1.63 -0.13,2.5 0,2.8 2.28,6.62 8.42,7.86 m 8.64,-265.81 c 1.29,2.32 2,3.74 1.24,6.14 -0.84,2.73 -2.77,4.36 -5.52,4.36 -6.22,0 -9.87,-7.37 -7.07,-12.06 4.97,-8.31 14.54,-3.64 23.4,0.48 -0.43,-2.13 -1.17,-2.83 -1.1,-5.47 0.2,-6.57 5.07,-9.54 7.01,-15.6 1.16,-3.62 1.62,-6.76 -1.03,-9.32 -2.3,-2.24 -4.98,-2.2 -7.99,-1.03 -6.02,2.36 -13.25,9.14 -25.97,9.33 -12.72,-0.19 -20.01,-6.97 -26.03,-9.33 -3.01,-1.18 -5.69,-1.21 -8,1.03 -2.64,2.56 -2.18,5.7 -1.02,9.31 1.95,6.07 6.81,9.04 7,15.6 0.08,2.65 -0.66,3.34 -1.09,5.48 8.86,-4.12 18.8,-9.21 23.4,-0.48 2.57,4.87 -0.85,12.06 -7.07,12.06 -2.74,0 -4.67,-1.75 -5.52,-4.36 -0.76,-2.32 0,-4.35 1.24,-6.14"
         id="path330" />
      <path
         stroke-linecap="round"
         d="m 491.5,224.79 c 2.4,1.84 4.1,4.1 3.82,7.77 -0.31,4 -1.28,4.95 -4.39,7.07 m 3.75,-5.93 c -0.14,2.4 -1.13,3.96 -3.53,4.95"
         id="path332" />
    </g>
    <path
       fill="#c7b37f"
       d="m 432.4,214.49 1.09,0.78 1.16,1.24 0.78,1.56 0.4,1.32 0.07,1.7 -0.08,1.17 -0.39,1.33 -0.78,0.93 -0.93,1.01 -1.32,0.7 -1.71,0.39 -1.48,0.23 -1.55,-0.7 -1.4,-1 -0.86,-1.25 -0.62,-1.56 v -0.62 z"
       stroke="none"
       id="path336" />
    <path
       stroke-width="1.04"
       stroke-linecap="round"
       d="m 430.01,220.57 c -0.48,-2.58 -3.5,-3.11 -4.66,-1.59 -1.8,2.35 -0.49,6.26 3.17,7.4 a 5.9,5.9 0 0 0 5.99,-2.17 c 1.51,-1.96 1.4,-4.38 0.83,-6.3 -0.37,-1.24 -1.36,-2.33 -2.7,-3.34 -4.25,-3.24 -11.12,-2.49 -13.37,2.95 -2.91,7.02 3.42,12.29 9.25,16.25 7.34,5 15.7,5.9 22,5.83 14.31,-0.15 25.2,-7 32.27,-10.88 1.65,-0.9 3.34,-0.72 4.2,0.3 a 3.11,3.11 0 0 1 -0.4,4.29"
       id="path338" />
    <path
       stroke-width="1.06"
       d="m 387.6,414.35 -3.19,1.17 -3.26,2.48 -1.4,1.95 -1.8,3.1 -0.77,2.34 -0.62,2.88 -0.31,2.17 m 29.7,-15.78 -0.23,2.8 -0.47,1.94 -1.4,3.35 -2.18,2.87 -2.33,1.87 -1.7,0.85 -2.42,0.55"
       id="path340" />
    <path
       stroke-width="1.2"
       d="m 499.6,489.23 c -0.58,2.59 -3,5.55 -8.28,6.62 l -1.02,0.2"
       id="path342" />
    <path
       stroke-width="1.36"
       d="m 631.59,406.57 c 3.34,3.11 5.69,6.9 7.49,12.1 0.76,2.2 1.39,5.51 1.3,9.03 -0.14,5.6 -1.56,11.73 -3.09,14.7 -1.33,2.58 -4.82,13.99 -23.95,21.86 -11.16,4.6 -28.3,5.65 -40.11,6.12 -16.03,0.63 -30.83,1.23 -39.59,11.52"
       id="path344" />
    <path
       stroke-width="0.93"
       d="m 605.45,416.95 c 1.19,-1.62 5.52,-3.67 9.02,-1.73 a 9.67,9.67 0 0 1 3.71,3.24"
       id="path346" />
    <path
       stroke-width="1.36"
       d="m 627.51,402.79 c 0.78,0.3 1.56,0.57 2.24,0.77 2.24,0.64 4.34,0.69 6.16,0.14 4.42,-1.33 7.26,-5.46 4.96,-10.83 a 8.84,8.84 0 0 0 -2.71,-3.33"
       id="path348" />
    <path
       stroke-width="1.04"
       stroke-linecap="round"
       d="m 375.44,287.13 c -2.97,1.84 -5.18,2.27 -7.5,4.95 -2.3,4.55 -3.2,7 -4.1,10.65 m 72.04,-80.77 c 0,2.69 -1.98,4.38 -4.66,4.95"
       id="path350" />
    <path
       d="m 620.49,275.03 c 7.39,-0.15 28.86,5.64 29.01,30.88 0.15,24.92 -15.38,29 -21.6,30.65"
       id="path352" />
    <path
       stroke-width="1.04"
       d="m 622.43,275.03 c 12.74,-0.55 25.9,8.83 26.47,32.24 0.45,18.28 -12.52,26.58 -18.74,28.24"
       id="path354" />
    <g
       stroke-width="0.88"
       id="g358">
      <path
         d="m 615.33,363.16 0.2,-2.5 0.83,-3.98 1.18,-3.09 1.32,-2.55 1.72,-2.06 m 12.16,-5.31 -0.2,2.45 -0.7,1.67 -1.08,1.6 -1.25,0.93 -1.9,0.7 -1.67,0.11 -1.25,-0.2 m -22.36,-82.51 0.54,-2.64 1.17,-2.45 1.52,-2.45 2.6,-3.34 2.06,-2.3 3.34,-3.38 2.88,-2.92 1.83,-2.1 2.4,-2.91 2.15,-3.23 1.28,-2.64 0.7,-3.42 0.21,-4.24 -0.39,-1.23 m -19.18,200.27 2.53,-0.5 1.9,-1.02 1.05,-1.05 0.74,-1.2 0.5,-1.94 0.04,-1.37 m -247.26,-18.98 1.87,0.16 2.4,-0.2 2.42,-0.85 m 7.81,-57.11 -0.31,2.18 -0.5,0.97 -0.75,0.93 -1,0.78 -1.13,0.5 -1.48,0.24 -1.01,0.08 m 15.47,-24.41 -0.54,3.38 -0.66,1.48 -1.37,1.87 -1.82,1.4 -1.87,0.93 -3.61,0.9 m 23.9,-62.13 -0.7,2.02 -0.85,1.48 -1.17,1.63 -1.63,1.48 -1.95,0.93 -1.63,0.39 -1.01,-0.08 m 0.59,-9.68 0.04,1.55"
         id="path356" />
    </g>
    <g
       stroke-width="0.99"
       id="g508">
      <path
         stroke-linecap="round"
         d="m 397.32,325.09 a 10.71,10.71 0 0 1 -3.27,2.03 m 235.19,70.04 c 0.13,0.14 0.58,0.22 0.74,0.31 2.21,1.32 6.58,-0.33 5.3,-3.75"
         id="path360" />
      <path
         d="m 621.54,349.38 c 1.57,2.05 4.54,2.59 6.88,1.98 a 6.22,6.22 0 0 0 3.9,-3.03 7.55,7.55 0 0 0 0.6,-5.83 7.67,7.67 0 0 0 -1.32,-2.58 10.6,10.6 0 0 0 -2.13,-2.23 c -0.17,-0.11 -0.34,-0.26 -0.52,-0.38 m 10.04,53.15 a 6.13,6.13 0 0 0 -1.9,-5.71 c -0.43,-0.38 -0.85,-0.97 -1.37,-1.23 m 0.75,0.73 c -0.07,-2.91 -2.46,-5 -5.41,-5.51 m -6.52,4.43 c -0.68,-0.55 -1.4,-1.02 -2.04,-1.69 -3.83,-4 -6.7,-9.92 -6.74,-16.68 -0.04,-6.47 2.56,-13.06 5.6,-15.62 m -88.29,132.26 2.8,-2.57 1.94,-1.47 3.66,-2.26 3.42,-1.63 2.4,-0.62 4.83,-1.1 5.6,-0.85 m -46.11,30.26 c -2.02,3.11 -6.84,7.77 -11.9,9.64 -5.05,-1.87 -9.87,-6.53 -11.9,-9.64"
         id="path362" />
      <path
         stroke-linecap="round"
         d="m 491.28,494.73 a 15.48,15.48 0 0 1 -3.47,6.45"
         id="path364" />
      <path
         d="m 491.78,491.47 -0.7,3.42 m -3.65,6.53 -1.48,1.48 -2.64,1.47 -3.03,0.94 m -8.82,-277.86 c 0.38,-1.18 0.77,-2.07 0.71,-4.01 -0.2,-6.57 -5.06,-9.55 -7,-15.61 -1.16,-3.61 -1.62,-6.75 1.02,-9.32 2.3,-2.24 4.98,-2.2 8,-1.02 6.01,2.36 13.3,9.14 26.03,9.33 -12.73,-0.2 -20.02,-6.97 -26.04,-9.33 -3,-1.18 -5.93,-1.53 -8.24,0.71 -2.64,2.57 -1.93,6.02 -0.77,9.63 1.94,6.06 6.56,9.04 6.75,15.6 0.06,1.95 -0.45,2.84 -0.83,4.02 m 29.09,-21.08 c 12.52,-0.66 23.25,-9.07 26.7,-9.76 3.1,-0.6 4.81,-0.33 7.08,1.72 -2.27,-2.05 -4.84,-1.99 -7.77,-0.84 -6.02,2.36 -13.25,9.14 -25.97,9.32 M 624.59,383.2 a 24.29,24.29 0 0 1 -9.72,-19.27 c -0.03,-6.48 2.57,-13.07 5.6,-15.63 m -109.3,152.46 c -2.02,3.11 -6.84,7.77 -11.9,9.64 -5.05,-1.87 -9.87,-6.53 -11.89,-9.64"
         id="path366" />
      <path
         stroke-linecap="round"
         d="m 479.17,230.74 3.62,-2.02 c 1.65,-0.9 3.63,-0.71 4.49,0.32 0.96,1.16 1.1,3.18 -0.23,4.41"
         id="path368" />
      <path
         d="m 460.48,239.49 c 8.59,-1.8 15.59,-5.64 20.88,-8.6 m 50.42,256.54 c 0.71,0.48 1.17,1.5 1.17,1.5 0.2,0.46 0.45,0.9 0.52,1.32 0.4,2.38 -1.16,3.86 -3.09,4.08 a 5.26,5.26 0 0 1 -5.48,-3.17 M 460.04,239.05 c 8.59,-1.8 15.59,-5.64 20.88,-8.6 m 152.46,167.04 c -1.63,0.63 -2.53,0.54 -4.56,-0.36 -0.83,-0.37 -1.79,-0.94 -2.9,-1.58 -3.98,-2.26 -8.71,-5.82 -13.14,-14.14 a 29.4,29.4 0 0 1 -3.45,-12.2 c -0.11,-3 0.21,-6.14 0.96,-9.72 1.24,-5.93 2.72,-9.15 6.37,-14.15 1.8,-2.47 3.35,-3.97 6.7,-4.05 M 398.83,279.88 a 11.12,11.12 0 0 1 4.12,8.94 c 0,4.84 -4.05,12.75 -14,15.55 -3.82,1.07 -7.59,0.2 -9.87,-1.18"
         id="path370" />
      <path
         d="m 400.46,296.28 c 1.79,1.24 2.49,2.64 2.49,5.07 0,1.66 -1.08,3.82 -2.9,5.87 -3,3.34 -8.1,6.19 -13.73,6.26 a 16,16 0 0 1 -9.42,-2.74 14.16,14.16 0 0 1 -5.98,-8.4"
         id="path372" />
      <path
         d="m 400.3,306.71 c 2.03,1.86 2.65,4.2 2.65,7.13 0,4.29 -1.74,7.6 -5.75,11.1 -0.9,0.79 -1.9,1.52 -3.03,2.18 M 596.4,292.63 v 5.52 m -0.44,-6.88 v 7.77 m 0.44,-24.6 v 10.19 m -0.44,-12.44 v 13.92 m -2.97,128.06 a 29.23,29.23 0 0 1 -6.53,8.86 c -3.09,3.04 -5.22,4.44 -9.1,6.38 -3.77,1.89 -6.14,2.49 -10.26,3.42 a 52.45,52.45 0 0 1 -10.73,1.32 c -3.86,0.18 -6.05,0.01 -9.9,-0.25 -4.14,-0.29 -6.43,-0.86 -10.55,-1.23 -3.4,-0.3 -5.32,-0.57 -8.74,-0.56 -3.51,0 -5.52,0.03 -8.98,0.64 a 34.42,34.42 0 0 0 -8.09,2.26 c -4.2,1.7 -8.94,4.66 -9.95,5.98 -1.01,-1.32 -5.75,-4.28 -9.95,-5.98 a 34.42,34.42 0 0 0 -8.09,-2.26 44.73,44.73 0 0 0 -8.98,-0.64 c -3.42,-0.01 -5.34,0.26 -8.74,0.56 -4.13,0.37 -6.42,0.94 -10.54,1.23 -3.86,0.26 -6.05,0.43 -9.91,0.25 a 52.26,52.26 0 0 1 -10.73,-1.32 c -4.12,-0.93 -6.49,-1.54 -10.26,-3.42 -3.88,-1.94 -6.02,-3.34 -9.1,-6.38 l -0.95,-0.95 m 65.89,83.39 2.8,-0.35 m 47.3,-3.68 2.83,-0.27 2.69,-1.08 1.88,-1.14 2.56,-3.03 0.53,-1.14 0.4,-2.62 0.14,-1.21 m 73.3,-213.59 c 1.21,-4.13 -0.27,-8.48 -4.27,-8.37 m -206.17,72.76 a 12.78,12.78 0 0 1 -5.62,7.3 m 5.69,-73 c -1,2.89 -2.83,4.95 -5.72,6.26 -2.89,1.3 -6.23,0.09 -8.02,-1.3"
         id="path374" />
      <path
         stroke-linecap="round"
         d="m 380.95,291.2 c 2.4,1.25 4.82,-0.58 4.32,-3.7 a 4.45,4.45 0 0 0 -3.93,-3.43"
         id="path376" />
      <path
         d="m 390.87,422.86 c 0.52,0.49 0.63,1.11 1.32,1.24 1.05,0.2 1.87,0.59 2.92,-0.81 1.3,-1.73 0.6,-4.41 -0.75,-6.1 -1.44,-1.8 -5.61,-3.4 -9.11,-1.46 a 11.6,11.6 0 0 0 -3.97,3.26 c -0.5,0.67 -1.35,1.74 -1.79,2.5 -1.05,1.8 -1.49,3.28 -1.7,3.88 -3.2,9.1 0.6,18.66 6.49,24.5"
         id="path378" />
      <path
         stroke-linecap="round"
         d="m 531.59,487.23 a 9.2,9.2 0 0 1 1.01,1.24 c 0.2,0.47 0.36,0.92 0.43,1.33 0.4,2.38 -1.16,3.86 -3.08,4.09 -2.65,0.3 -4.42,-1.26 -5.27,-3.16"
         id="path380" />
      <path
         d="m 608.5,216.81 c 5.23,0.64 9.78,5.63 9.78,11 0,6.91 -2.33,9.49 -5.97,14.44 -3.9,5.3 -16.64,15 -16.64,26.04 0,6.69 1.87,10.96 6.69,13.14 3.1,1.4 6.74,-0.11 8.4,-1.6 4.04,-3.66 2.42,-10.07 -1.8,-10.84 -5.13,-0.93 -6.09,7.15 -1.08,6.61 m 27.85,107.91 a 5.77,5.77 0 0 0 -5.65,-4.88 5.8,5.8 0 0 0 -5.73,5.87 c 0,1.59 0.62,3.03 1.62,4.09"
         id="path382" />
      <path
         d="m 599.79,279.88 a 11.12,11.12 0 0 0 -4.12,8.94 c 0,4.84 4.05,12.75 14,15.55 3.81,1.07 7.46,0.97 9.74,-0.42 M 375.61,287.8 c -2.38,0.8 -5.35,2.28 -7.55,5.4 -1.86,2.63 -2.94,6.28 -3.6,9.48 -0.3,1.4 -0.65,5.83 0.24,10.41 a 24.61,24.61 0 0 0 3.6,8.8 12.4,12.4 0 0 0 1.63,1.94 c 0.51,0.52 1.25,0.97 1.77,1.37 m 100.02,143.82 c 7.58,3.36 13.13,5.87 17.84,13.31 1.48,2.33 1.87,5.68 1.87,7.62 0,4.2 -1.72,8.94 -5.21,11.9 -3.25,2.74 -6.46,3.57 -10.42,3.18 -3,-0.3 -5.83,-2.49 -6.3,-4.04 M 396.88,325.2 c 4.28,3.34 6.06,6.59 6.06,11.74 0,5.9 -2.87,9.56 -6.22,11.66"
         id="path384" />
      <path
         stroke-linecap="round"
         d="m 392.99,344.41 c 6.38,7.93 9.76,12.64 9.95,22.08 0.18,8.86 -2.64,14.93 -7.93,21.3"
         id="path386" />
      <path
         d="m 515.23,239.57 a 6.43,6.43 0 0 0 2.5,-3.48 c 0.75,-2.33 0.77,-4.31 -0.48,-6.1 1.54,2 1.68,3.7 1.25,6.14 -0.28,1.55 -1.27,2.37 -2.5,3.49 m 80.4,134.62 v 25.24 h 0.07 c 0,0.02 -0.01,2.39 -0.22,3.89 -0.13,0.98 -0.27,1.87 -0.42,2.7"
         id="path388" />
      <path
         d="m 595.96,371.81 v 27.22 h 0.07 c 0,0.02 -0.01,2.4 -0.21,3.9 a 42.94,42.94 0 0 1 -0.73,4.11 m 0.87,-67.1 v 22.7 m 0.44,-20.91 v 18.46 m 0,-41.94 v 13.84 m -0.44,-15.47 v 17.06 m 0.44,-29.58 v 5.37 m -0.44,-6.46 v 7.78 m -2.88,101.86 -0.53,1.08 a 29.22,29.22 0 0 1 -6.53,8.87 c -3.09,3.04 -5.22,4.43 -9.1,6.37 -3.77,1.9 -6.14,2.5 -10.26,3.42 a 52.44,52.44 0 0 1 -10.73,1.33 c -3.86,0.17 -6.05,0 -9.9,-0.26 -4.14,-0.29 -6.43,-0.86 -10.55,-1.22 -3.4,-0.3 -5.32,-0.58 -8.74,-0.57 -3.51,0.01 -5.52,0.03 -8.98,0.65 a 34.41,34.41 0 0 0 -8.09,2.25 c -4.2,1.7 -8.94,4.66 -9.95,5.99 -1.01,-1.33 -5.75,-4.29 -9.95,-5.99 a 34.4,34.4 0 0 0 -8.09,-2.25 44.75,44.75 0 0 0 -8.98,-0.65 c -3.42,0 -5.34,0.27 -8.74,0.57 -4.13,0.36 -6.41,0.93 -10.54,1.22 -3.86,0.27 -6.05,0.43 -9.91,0.25 a 52.24,52.24 0 0 1 -10.73,-1.32 c -4.12,-0.93 -6.49,-1.53 -10.26,-3.42 -3.88,-1.94 -6.01,-3.33 -9.1,-6.37 -1.62,-1.6 -2.8,-2.9 -3.86,-4.36 m -3.14,-4.98 c 0.67,4.94 -1.41,9.8 -3.52,12.03 -1.32,1.4 -4.2,4.08 -7.78,4.12 -5.9,0.08 -7.67,-3.98 -8.03,-4.97"
         id="path390" />
      <path
         d="m 399.4,410.7 c 1.1,1.08 2.07,2.4 2.9,3.96 1.47,2.8 1.02,7.49 -0.15,9.65 -0.13,0.23 -0.3,0.49 -0.48,0.74 m -31.63,28.15 c 3.51,3.69 8.83,7.7 16.99,11.05 11.16,4.6 28.3,5.66 40.12,6.12 15.71,0.62 30.2,1.27 39,11 m 27.14,-6.36 c 2.6,2.56 5.25,5.3 6.37,8.8 m -11.48,17.89 c -0.34,0.36 -0.7,0.7 -1.08,1.03 -3.25,2.74 -6.46,3.58 -10.42,3.19 -3,-0.3 -5.9,-2.55 -6.69,-4.03 m -8.36,-4.54 c 0.14,0.2 0.3,0.4 0.46,0.58 a 11.88,11.88 0 0 0 7.97,3.83 m 41.99,-0.12 c -2.02,3.11 -6.84,7.77 -11.9,9.64 -5.05,-1.87 -9.87,-6.53 -11.9,-9.64 l -0.46,-0.73 m 24.34,0.71 c 0.36,0.4 0.75,0.76 1.16,1.1 3.24,2.75 6.45,3.59 10.41,3.2 3.01,-0.3 5.4,-2.3 6.36,-4.05 0,0 0.54,-0.58 0.7,-1.13"
         id="path392" />
      <path
         d="m 529.75,500.99 -1.16,1.87 -1.77,1.46 -2.67,1.11 -2.42,0.1"
         id="path394" />
      <path
         d="m 536.03,483.22 a 12,12 0 0 1 3.6,4.53 c 0.49,1.15 0.72,2.4 0.79,3.7 a 9.15,9.15 0 0 1 -2.23,6.48 11.74,11.74 0 0 1 -9.16,3.86 m 0.29,-0.44 c -3.17,0.13 -6,-1.23 -8.1,-3.38 m 99.5,-106.04 a 37.1,37.1 0 0 1 -7.5,-10.08 29.38,29.38 0 0 1 -3.46,-12.2 c -0.1,-3 0.22,-6.13 0.97,-9.72 1.23,-5.93 3.44,-10.51 6.37,-14.15 1,-1.24 2.16,-2.8 3.25,-3.49 M 618.2,223.83 c 3.97,0.31 7.64,4.58 7.59,8.76 -0.07,6.08 -2.1,8.6 -6.89,14.55 -4.12,5.13 -16.48,14.15 -16.17,22.78 0.05,1.53 0.88,3.11 1.8,4.39 m -4.94,5.41 c 0.88,0.87 1.94,1.58 3.2,2.16 2.27,1.02 4.8,0.5 6.66,-0.45 M 576.37,213.9 c 1.33,0.9 2.68,2.3 3.42,4.06 2.9,7.02 -3.43,12.29 -9.26,16.25 a 33.33,33.33 0 0 1 -12.97,5.13"
         id="path396" />
      <path
         d="m 569.69,227.43 c -1.41,-0.01 -3.1,-0.42 -4.92,-2.34 a 5.23,5.23 0 0 1 -1.1,-1.55 m -23.22,7.66 a 7.22,7.22 0 0 1 -2.06,-1.5 c -1.39,-1.55 -2.31,-3.65 -1.24,-6.86 0.98,-2.96 5.74,-11.27 5.97,-17.02 0.36,-8.8 -3.02,-13.98 -8.3,-16"
         id="path398" />
      <path
         stroke-linecap="round"
         d="m 542.68,203.85 -0.2,3.3 -0.9,3.38 -1.72,4.61 -1.31,2.96 -1.38,2.96 -0.69,2.07 -0.27,1.51 0.2,1.45 m 59.4,197.31 c 0.27,0.66 0.93,1.3 0.93,1.3 1.01,1.7 4.94,4.66 8.52,4.7 5.9,0.09 7.3,-4.05 7.46,-4.97 0.75,-4.5 -0.8,-5.74 -3.1,-7.01 0,0 -1.37,-0.7 -3,-0.43"
         id="path400" />
      <path
         d="m 370.23,403.67 c -2.09,0.53 -4.05,0.55 -5.76,0.03 -4.42,-1.32 -8,-5.56 -6.18,-10.83 m 20.92,-49.72 c 0.44,0.44 0.59,1.1 0.65,1.67 0.69,5.73 -4.34,7.4 -7.91,6.47 a 8.8,8.8 0 0 1 -4.71,-3.56 7.35,7.35 0 0 1 -0.97,-3.6 m 34.47,-36.98 c 0.9,0.82 1.52,1.74 1.93,2.76 M 400.9,296.6 a 5.98,5.98 0 0 1 1.82,2.04"
         id="path402" />
      <path
         stroke-linecap="round"
         d="m 402.91,303.94 a 13.22,13.22 0 0 1 -2.43,3.72 c -3,3.34 -8.08,6.19 -13.72,6.26 a 16,16 0 0 1 -9.42,-2.74 c -3.41,-2.28 -5.64,-5.53 -6.37,-8.71"
         id="path404" />
      <path
         d="m 399.11,280.13 a 12.11,12.11 0 0 1 3.7,5.3"
         id="path406" />
      <path
         stroke-linecap="round"
         d="m 402.86,292.56 c -1.38,4.57 -5.51,10.23 -13.47,12.25 -3.8,0.96 -8.7,-0.24 -10.38,-1.67"
         id="path408" />
      <path
         d="m 375.06,291.49 c 0.42,4.12 3.17,7.2 8.4,7.3 7.35,0.15 11.82,-10.57 5.29,-18.09"
         id="path410" />
      <path
         stroke-linecap="round"
         d="m 358.52,327.39 a 25.45,25.45 0 0 0 3.63,3.64 26.24,26.24 0 0 0 9.27,5.15 m 8.25,0.77 c 6.57,-0.79 10.27,-5.68 9.54,-11.41 -0.56,-4.36 -4.56,-7.72 -7.29,-7.91"
         id="path412" />
      <path
         d="m 390.39,268.92 c 2.85,-0.1 4.47,2.48 4.44,4.66"
         id="path414" />
      <path
         stroke-linecap="round"
         d="m 389.72,229.81 a 17.95,17.95 0 0 0 7.86,9.1 m 225.28,48.38 c 2.69,3.68 0.93,10.93 -6.38,11.07 a 8.1,8.1 0 0 1 -6.94,-3.92"
         id="path416" />
      <path
         d="m 596.4,239.25 v 24.69"
         id="path418" />
      <path
         stroke-linecap="round"
         d="m 380.87,291.14 c 2.25,1.63 5.15,-1.12 4.03,-4.05 -0.76,-1.97 -3.56,-4.1 -7.45,-1.46 -4.3,2.92 -3.11,12.13 5.13,12.28 7.35,0.14 11.82,-10.57 5.29,-18.1 -6.29,-7.23 -17.73,-5.53 -25.2,0.4 -3.17,2.53 -9.17,9.15 -11.03,18.17 -0.58,2.8 -0.96,5.11 -0.91,7.93 0.02,1.85 0.2,3.93 0.75,6.53 a 32.6,32.6 0 0 0 4.8,11.74 c 0.71,1.03 1.35,1.87 2.04,2.56 1.28,1.28 1.67,1.96 2.96,3.04 4.22,3.51 9.66,6.27 16.32,5.98 7.31,-0.3 11.51,-5.44 10.73,-11.5 -0.75,-5.88 -6.69,-8.8 -10.57,-6.07 -2.64,1.87 -3.58,7.65 1.09,9.02 2.64,0.78 4.97,-2.57 3.1,-4.5 M 584.4,210.68 c 4.22,-2.3 7.47,-1.87 9.87,1.47 2.62,3.63 2.99,8.45 2.41,11.28 -0.85,4.2 -2.06,5.94 -5.4,8.99"
         id="path420" />
      <path
         stroke-linecap="round"
         d="m 594.58,212.55 c 4.82,-3.19 10.04,-1.83 12.9,2.41 2.1,3.11 2.64,5.71 2.5,9.56 -0.26,6.6 -4.39,11.83 -8.95,14.39"
         id="path422" />
      <path
         d="m 617.28,223.67 c 3.96,0.31 7.15,3.9 7.15,8.09 0,5.98 -1.67,8.58 -6.45,14.53 -4.12,5.14 -16.48,14.15 -16.17,22.78 0.12,3.27 2.87,6.34 5.24,6.51"
         id="path424" />
      <path
         stroke-linecap="round"
         d="m 617.75,291.14 c -2.25,1.63 -5.13,-1 -3.89,-3.8 0.86,-1.94 3.42,-4.36 7.31,-1.71 4.3,2.92 3.11,12.13 -5.13,12.28 -7.35,0.14 -12.32,-10.3 -5.29,-18.1 6.42,-7.1 18.32,-5.72 25.78,0.22 3.18,2.53 9.57,9.47 10.94,18.58 1.65,11.02 1.44,24.57 -9.94,32.92 -4.58,3.35 -10.92,4.88 -16.52,4.63 -7.3,-0.32 -11.5,-5.44 -10.72,-11.5 0.75,-5.88 6.41,-8.37 10.57,-6.07 4.32,2.4 3.56,8.47 -1.09,9.02 -2.74,0.33 -4.98,-2.56 -3.1,-4.5"
         id="path426" />
      <path
         d="m 613.86,287.34 c 1.21,-5.45 5.88,-5.96 9.66,-5.9 10.3,0.14 17.41,12.36 17.53,24.17 0.15,14.92 -6.33,23.71 -17.24,24.18 -2.82,0.12 -7.68,-1.22 -7.77,-4.67"
         id="path428" />
      <path
         stroke-linecap="square"
         d="m 620.2,284.9 c 10.86,2.41 14.67,12.2 14.67,21.53 0,7.62 -0.75,18.02 -15.57,21.68"
         id="path430" />
      <path
         d="m 638.11,389.58 a 6.1,6.1 0 1 0 -9.79,3.66"
         id="path432" />
      <path
         stroke-linecap="round"
         d="m 616.33,380.33 c 2.04,3.03 4.52,6.4 9.74,9.24 m -1.96,16.48 c -5.12,-3.36 -14.84,-7.76 -23.62,-3.43 -3.26,1.61 -5.45,3.6 -6.68,6.84 -2.22,5.84 0.26,12.28 2.79,14.95 1.32,1.4 4.2,4.07 7.77,4.12 5.91,0.08 7.32,-4.06 7.47,-4.97 0.7,-4.28 -1.8,-6 -3.11,-6.46 -1.02,-0.35 -4.31,-0.26 -5.01,2.07 -0.24,0.78 -0.28,2.13 0.34,3.14"
         id="path434" />
      <path
         stroke-linecap="round"
         d="m 531.99,488.16 c 1.63,3.34 -0.22,5.02 -2.49,5.29 -3.34,0.39 -5.13,-2.26 -5.36,-4.67 a 6.87,6.87 0 0 1 6.84,-7.38 c 3.53,0.05 6.41,2.33 7.76,5.47 0.5,1.14 0.72,2.4 0.8,3.7 a 9.14,9.14 0 0 1 -2.23,6.47 c -2,2.33 -5.11,3.74 -8.43,3.87 -6.6,0.27 -11.74,-5.9 -11.74,-12.2 0,-12.06 17.87,-18.63 24.96,-20.32 8.7,-2.08 14,-2.86 27.99,-3.63 5.6,-0.31 9.7,-0.16 15.86,-0.8 5.51,-0.57 8.4,-0.83 14.07,-2.16 7.08,-1.65 13.68,-4.58 19.6,-9.95 4.54,-4.13 7.14,-7.07 9.25,-12.75 1.82,-4.9 2.65,-14.6 -1.95,-21.77 -4.07,-6.34 -9.72,-9.63 -16.17,-10.56 -5.83,-0.85 -10.94,1.67 -14,7.45 -1.47,2.8 -1.02,7.48 0.15,9.64 1.01,1.87 3.9,4.62 7.47,4.67 5.91,0.08 7.32,-4.06 7.47,-4.98 0.7,-4.27 -1.8,-5.98 -3.11,-6.45 -1.02,-0.36 -4.32,-0.27 -5.02,2.07 -0.23,0.77 -0.27,2.13 0.35,3.14"
         id="path436" />
      <path
         stroke-linecap="round"
         d="m 526.9,469.02 c -7.58,3.36 -13.13,5.87 -17.84,13.31 -1.48,2.33 -1.87,5.68 -1.87,7.62 0,4.2 1.72,8.94 5.21,11.9 3.25,2.74 6.46,3.57 10.42,3.18 3,-0.3 5.83,-2.49 6.3,-4.04"
         id="path438" />
      <path
         d="m 601.73,325.2 c -3.54,1.18 -6.06,6.59 -6.06,11.74 0,5.9 2.87,9.56 6.22,11.66"
         id="path440" />
      <path
         stroke-linecap="round"
         d="m 605.62,344.41 c -6.38,7.93 -9.76,12.64 -9.95,22.08 -0.18,8.86 2.64,14.93 7.93,21.3"
         id="path442" />
      <path
         d="m 571.64,212.58 0.55,-0.81 c 2.64,-3.89 7.3,-4.91 10.73,-2.33 4.12,3.1 5.16,8.4 4.04,14 -0.7,3.5 -3.07,6.4 -6.33,8.51"
         id="path444" />
      <path
         stroke-linecap="round"
         d="m 414.22,210.68 c -4.04,-1.87 -7.37,-1.5 -9.87,1.47 -2.88,3.42 -3,8.45 -2.41,11.28 0.85,4.2 2.06,5.94 5.4,8.99"
         id="path446" />
      <path
         d="m 404.03,212.55 c -4.82,-3.19 -10.04,-1.83 -12.9,2.41 -2.1,3.11 -2.64,5.71 -2.5,9.56 0.26,6.6 4.39,11.83 8.95,14.39"
         id="path448" />
      <path
         d="m 390.12,216.81 c -5.23,0.64 -9.4,5.07 -9.4,10.43 0,6.92 1.7,9.72 5.59,15 3.9,5.3 16.64,15.01 16.64,26.05 0,6.69 -1.87,10.96 -6.69,13.14 -3.1,1.4 -6.74,-0.11 -8.4,-1.6 -4.04,-3.66 -2.42,-10.07 1.8,-10.84 5.12,-0.93 6.09,7.15 1.08,6.61"
         id="path450" />
      <path
         d="m 381.33,223.67 c -3.97,0.31 -7.87,3.72 -7.87,7.9 0,6 2.39,8.77 7.17,14.72 4.12,5.14 15.76,13.98 15.45,22.6 -0.12,3.27 -2.31,7.26 -4.49,6.8"
         id="path452" />
      <path
         stroke-linecap="round"
         d="m 372,343.94 c 1.87,-4.5 6.69,-2.49 6.98,0 0.69,5.73 -4.34,7.46 -7.91,6.53 a 6.22,6.22 0 0 1 -3.9,-3.03 7.55,7.55 0 0 1 -0.6,-5.82 c 0.27,-0.93 0.65,-1.71 1.32,-2.59 a 7.77,7.77 0 0 1 2,-1.89 c 1.37,-0.87 2.87,-0.96 5.22,-0.96 8.7,0 16.33,10.29 18.89,20.98 0.84,3.52 2,11.37 0.4,18.81 -1.72,7.93 -5.15,13.42 -9.17,17.59 -2.17,2.25 -5.14,4.26 -8.99,6.43 a 38.65,38.65 0 0 1 -6.5,2.68 c -2.23,0.64 -4.33,0.7 -6.15,0.15 -4.42,-1.33 -7.26,-5.46 -4.96,-10.83 1.79,-4.18 8.4,-6.22 11.35,-1.1 0.25,0.44 0.64,1.4 0.63,2.42 -0.02,1.37 -0.59,3.02 -1.56,3.64 -2.25,1.43 -5.84,1.02 -5.68,-2.94"
         id="path454" />
      <path
         d="m 365.24,397.49 c 1.63,0.63 2.53,0.54 4.56,-0.36 0.83,-0.37 1.79,-0.94 2.9,-1.58 3.98,-2.26 8.71,-5.82 13.14,-14.14 a 29.38,29.38 0 0 0 3.45,-12.2 c 0.11,-3 -0.21,-6.14 -0.96,-9.72 -1.24,-5.93 -2.72,-9.15 -6.37,-14.15 -1.8,-2.47 -3.35,-3.97 -6.7,-4.05 m -14.75,48.29 a 6.1,6.1 0 1 1 9.79,3.66"
         id="path456" />
      <path
         d="m 362.88,383.51 a 5.77,5.77 0 0 1 5.65,-4.88 5.8,5.8 0 0 1 5.73,5.87 c 0,1.59 -0.62,3.03 -1.62,4.09"
         id="path458" />
      <path
         d="m 374.02,383.2 a 24.29,24.29 0 0 0 9.72,-19.27 c 0.03,-6.48 -2.57,-13.07 -5.6,-15.63"
         id="path460" />
      <path
         stroke-linecap="round"
         d="m 382.29,380.33 c -2.04,3.03 -4.52,6.4 -9.74,9.24"
         id="path462" />
      <path
         d="m 397.81,402.63 c -1.45,-3.4 -4.33,-4.99 -9.02,-5.49 -4.66,-0.5 -8.7,0.79 -12.83,3 -8.06,4.34 -12.55,9 -15.55,17.65 -0.76,2.2 -1.39,5.5 -1.3,9.02 0.14,5.6 1.56,11.73 3.1,14.7 1.33,2.58 4.81,13.99 23.94,21.86 11.16,4.6 28.3,5.66 40.12,6.12 16.25,0.64 31.25,1.25 39.96,11.97"
         id="path464" />
      <path
         stroke-linecap="round"
         d="m 374.5,406.05 c 5.12,-3.36 14.84,-7.76 23.62,-3.43 3.26,1.61 5.45,3.6 6.68,6.84 2.22,5.84 -0.26,12.28 -2.79,14.95 -1.32,1.4 -4.2,4.07 -7.77,4.12 -5.91,0.08 -7.32,-4.06 -7.47,-4.97 -0.7,-4.28 1.8,-6 3.11,-6.46 1.02,-0.35 4.31,-0.26 5.01,2.07 0.24,0.78 0.28,2.13 -0.34,3.14"
         id="path466" />
      <path
         d="m 394.86,421.45 c 0.47,-1.71 0.23,-3.5 -1.32,-5.2 -1.56,-1.72 -5.68,-3.35 -9.18,-1.4 a 11.6,11.6 0 0 0 -3.96,3.26 c -0.5,0.66 -1.35,1.74 -1.79,2.48 -1.06,1.82 -1.5,3.3 -1.7,3.9 -3.85,10.92 2.41,22.52 10.25,27.51 6.85,4.36 13.84,5.6 22.47,6.38 4,0.36 6.26,0.44 10.27,0.62 3.22,0.15 6,0.1 8.63,0.07 2.15,-0.03 4.2,-0.02 6.3,-0.07 3.4,-0.08 6.94,-0.16 11.27,0.16 4.55,0.33 7.97,0.44 11.81,1.09 2.52,0.41 5.46,0.82 8.55,1.51 0.92,0.2 1.86,0.38 2.8,0.66 l 1.89,0.58 c 5.57,1.7 10.98,3.77 15.25,6.52 1.32,0.85 2.84,1.67 3.88,2.7 0.8,0.8 1.47,1.26 2.12,1.9 3,2.95 6.05,6.13 6.77,10.44 0.13,0.8 0.13,1.63 0.13,2.5 0,2.8 -2.28,6.62 -8.42,7.86"
         id="path468" />
      <path
         d="m 466.62,488.16 c -1.63,3.34 0.22,5.02 2.49,5.29 3.34,0.39 5.13,-2.26 5.36,-4.67 a 6.87,6.87 0 0 0 -6.84,-7.38 c -3.53,0.05 -6.41,2.33 -7.76,5.47 -0.5,1.14 -0.72,2.4 -0.8,3.7 a 9.15,9.15 0 0 0 2.23,6.47 c 2,2.33 5.11,3.74 8.43,3.87 6.6,0.27 11.74,-5.9 11.74,-12.2 0,-12.06 -17.87,-18.63 -24.96,-20.32 -8.7,-2.08 -14,-2.86 -27.99,-3.63 -5.6,-0.31 -9.7,-0.16 -15.86,-0.8 -5.51,-0.57 -8.4,-0.83 -14.07,-2.16 -7.08,-1.65 -13.68,-4.58 -19.6,-9.95 -4.54,-4.13 -7.14,-7.07 -9.25,-12.75 -1.82,-4.9 -2.65,-14.6 1.95,-21.77 4.07,-6.34 9.72,-9.63 16.17,-10.56 5.83,-0.85 10.94,1.67 14,7.45 1.47,2.8 1.02,7.48 -0.15,9.64 -1.01,1.87 -3.9,4.62 -7.47,4.67 -5.91,0.08 -7.32,-4.06 -7.47,-4.98 -0.7,-4.27 1.8,-5.98 3.11,-6.45 1.02,-0.36 4.32,-0.27 5.01,2.07 0.24,0.77 0.28,2.13 -0.34,3.14"
         id="path470" />
      <path
         stroke-linecap="round"
         d="m 426.97,212.58 -0.55,-0.81 c -2.64,-3.89 -7.3,-4.91 -10.73,-2.33 -4.12,3.1 -5.16,8.4 -4.04,14 0.7,3.5 3.07,6.4 6.33,8.51"
         id="path472" />
      <path
         d="m 573.04,224.37 c -6.3,6.84 -12.6,9.03 -22,9.33 -2.94,0.1 -8.56,-0.93 -11.82,-3.26 -2.1,-1.5 -4.43,-4.05 -2.96,-8.48 1,-2.96 5.75,-11.27 5.98,-17.03 0.36,-8.79 -3.02,-13.6 -8.3,-15.47 -9.78,-3.45 -20.27,6.21 -26.6,8.32 a 21.34,21.34 0 0 1 -8,1.24 21.63,21.63 0 0 1 -8.07,-1.24 c -6.33,-2.1 -16.82,-11.77 -26.6,-8.32 -5.28,1.87 -8.66,6.68 -8.3,15.47 0.23,5.76 4.99,14.07 5.97,17.03 1.48,4.43 -0.85,6.99 -2.95,8.48 -3.27,2.33 -8.88,3.35 -11.82,3.26 -9.4,-0.3 -15.7,-2.49 -22,-9.33"
         id="path474" />
      <path
         stroke-linecap="round"
         d="m 464.58,466.27 c 1.25,0.49 0.3,-0.3 8.2,3.2 7.57,3.36 12.95,6.3 17.66,13.74 1.48,2.33 1.86,5.67 1.86,7.62 0,1.25 -0.15,2.55 -0.45,3.84"
         id="path476" />
      <path
         d="m 465.09,500.06 c 1.54,0.77 3.28,1.22 5.08,1.29 6.6,0.26 11.74,-5.91 11.74,-12.2 0,-4.37 -2.38,-8.05 -5.7,-11"
         id="path478" />
      <path
         stroke-linecap="round"
         d="m 466.52,488.15 c -1.6,3.55 0.68,5.47 2.94,5.74 3.34,0.39 5.22,-2.26 5.46,-4.67 a 6.98,6.98 0 0 0 -3.28,-6.48"
         id="path480" />
      <path
         d="m 609.53,216.87 c 5.02,0 9.4,5.59 9.4,11.32 0,6.6 -3.52,10.65 -6.1,13.7 -2.07,2.46 -4.3,4.66 -6.98,7.35"
         id="path482" />
      <path
         stroke-linecap="round"
         d="m 603.58,211.58 c 1.7,0.79 3.2,2.13 4.35,3.82 2.1,3.1 2.63,5.71 2.48,9.56 -0.25,6.6 -5,11.17 -9.24,13.96 m -7.46,-27.34 c 0.35,0.3 0.68,0.63 1,1.01 2.88,3.43 3.1,8.48 2.41,11.29 -1.03,4.2 -2.43,6.02 -5.85,8.54 m -7.91,-22.57 c 4.12,3.11 5.35,8.49 3.98,14.03 -0.97,3.95 -3.46,6.32 -6.56,8.21 m 17.38,64.19 c 0.5,1.45 1.3,1.95 2.33,3.02 a 21.15,21.15 0 0 0 9.62,5.5 c 3.82,1.08 7.25,0.27 9.88,-1.36 m -254.7,84.43 c 1.94,-0.04 3.87,1.27 5.13,3.47 0.25,0.43 0.64,1.38 0.63,2.4 -0.01,1.38 -0.61,2.84 -1.6,3.46 -2.24,1.43 -6.22,0.82 -6.06,-3.15"
         id="path484" />
      <path
         d="m 377.33,336.4 c 7.7,1.44 15.12,10.73 17.55,20.86 0.84,3.53 2,11.38 0.4,18.82 -1.72,7.93 -5.15,13.42 -9.17,17.59 -0.95,0.98 -2.06,1.92 -3.32,2.85 l -1.64,1.11 m -12.39,-18.96 c 3.16,0 5.93,3.03 5.93,6.27 0,1.6 -0.61,3.03 -1.61,4.09"
         id="path486" />
      <path
         d="m 366.62,382.35 c 3.3,0 6.43,3.18 6.43,6.55 a 6.1,6.1 0 0 1 -2.31,4.78"
         id="path488" />
      <path
         stroke-linecap="round"
         d="m 396.84,349.2 c 3.03,4.06 5.03,7.56 5.95,12.07 m -0.1,13.26 a 26.98,26.98 0 0 1 -2.26,6.32 27.85,27.85 0 0 1 -5.56,7.25"
         id="path490" />
      <path
         d="m 397.32,325.52 c 2.92,2.28 4.68,4.64 5.5,7.47"
         id="path492" />
      <path
         stroke-linecap="round"
         d="m 402.9,317.92 c -0.77,2.66 -2.5,4.67 -5.27,7.2 m -14.3,-26.85 3.37,-0.89 2,-1.5 1.28,-1.82 1.1,-2.84 0.45,-2.3"
         id="path494" />
      <path
         d="m 376.51,286.41 c -1.06,0.27 -2.41,0.66 -3.82,1.33 -1.9,0.9 -3.9,2.3 -5.51,4.58 -1.86,2.63 -2.94,6.28 -3.6,9.48 -0.3,1.4 -0.65,5.84 0.24,10.41 a 24.61,24.61 0 0 0 3.6,8.81 c 0.56,0.82 1.06,1.52 1.63,2.09 2.02,2.02 3.88,3.26 7,2.64"
         id="path496" />
      <path
         stroke-linecap="round"
         d="m 395.38,271.58 c -0.55,2 -1.62,4.5 -4.77,4.22"
         id="path498" />
      <path
         d="m 383.87,285.2 c -3.02,-2.96 -9.43,-3.73 -15.8,0.3 -0.82,0.52 -1.64,1.19 -2.45,1.86 -0.87,0.73 -1.57,1.57 -2.25,2.48 -0.73,1 -1.63,2.68 -2.18,3.8 a 19.54,19.54 0 0 0 -1.47,4.14 31.74,31.74 0 0 0 -1.02,9.78 c 0.17,1.51 0.32,2.9 0.56,4.18 a 29.13,29.13 0 0 0 3.48,9.66 c 1.4,2.33 4.9,7.69 12.06,8.4 2.8,0.27 7.61,-1.01 7.77,-4.67"
         id="path500" />
      <path
         stroke-linecap="round"
         d="m 568.38,220.42 c 0.48,-2.58 3.59,-3.08 4.76,-1.55 1.8,2.34 0.6,6.38 -3.05,7.52 a 5.9,5.9 0 0 1 -5.99,-2.18 c -1.51,-1.95 -1.4,-4.37 -0.83,-6.3 0.36,-1.24 1.36,-2.32 2.7,-3.34 4.25,-3.23 11.11,-2.48 13.37,2.96 2.9,7.02 -3.42,12.28 -9.25,16.25 -7.34,4.99 -15.7,5.9 -22,5.83 -14.31,-0.16 -25.2,-7 -32.27,-10.89 -1.65,-0.9 -3.35,-0.72 -4.2,0.31 a 3.11,3.11 0 0 0 0.39,4.28"
         id="path502" />
      <path
         stroke-linecap="round"
         d="m 571.26,218 c 1.52,0.07 1.92,0.66 2.39,1.27 1.8,2.35 0.48,6.38 -3.18,7.52 m 27.87,80.54 c -5.45,5.93 -0.44,16.12 3.64,18.42 1.4,1.1 2,0.51 3.14,1.17"
         id="path504" />
      <path
         d="m 598.63,295.99 c -1.79,1.24 -2.42,2.64 -2.49,5.07 -0.06,2.03 0.3,4.29 2.2,6.27 2.98,3.1 8.8,5.79 14.43,5.86 a 16,16 0 0 0 9.42,-2.74 14.16,14.16 0 0 0 5.98,-8.4 m -32.59,96.55 c 0,0.02 0,2.39 -0.21,3.89 a 29.5,29.5 0 0 1 -3.27,10.8 29.23,29.23 0 0 1 -6.53,8.87 c -3.08,3.04 -5.22,4.43 -9.1,6.37 -3.77,1.9 -6.14,2.5 -10.26,3.42 a 52.45,52.45 0 0 1 -10.73,1.33 c -3.86,0.17 -6.05,0 -9.9,-0.26 -4.13,-0.28 -6.42,-0.86 -10.54,-1.22 -3.4,-0.3 -5.33,-0.58 -8.75,-0.57 -3.5,0.01 -5.52,0.03 -8.98,0.65 a 34.41,34.41 0 0 0 -8.09,2.25 c -4.2,1.7 -8.94,4.67 -9.95,5.99 -1,-1.32 -5.75,-4.29 -9.95,-5.99 a 34.41,34.41 0 0 0 -8.09,-2.25 44.76,44.76 0 0 0 -8.98,-0.65 c -3.42,0 -5.34,0.27 -8.74,0.57 -4.12,0.36 -6.41,0.94 -10.54,1.22 -3.86,0.27 -6.05,0.43 -9.9,0.26 -4.22,-0.2 -6.63,-0.4 -10.74,-1.33 -4.11,-0.93 -6.49,-1.53 -10.26,-3.42 -3.87,-1.94 -6.01,-3.33 -9.1,-6.37 a 29.22,29.22 0 0 1 -6.53,-8.87 29.51,29.51 0 0 1 -3.26,-10.8 c -0.2,-1.5 -0.22,-3.87 -0.22,-3.89 V 239.58 H 595.51 V 398.6 Z"
         id="path506" />
    </g>
    <g
       fill="#c7b37f"
       stroke="#c7b37f"
       id="g514">
      <path
         stroke-width="0.51"
         d="m 387.41,421.32 a 3.905,3.905 0 1 1 7.81,0 3.905,3.905 0 0 1 -7.81,0 z m -23.99,-27.61 c 0,-1.93 1.24,-3.5 2.76,-3.5 1.52,0 2.76,1.57 2.76,3.5 0,1.93 -1.24,3.5 -2.76,3.5 -1.52,0 -2.76,-1.57 -2.76,-3.5 z"
         id="path510" />
      <path
         d="m 377.05,324.36 c 0,-1.59 1.2,-2.87 2.66,-2.87 1.48,0 2.67,1.28 2.67,2.87 0,1.59 -1.2,2.87 -2.67,2.87 -1.47,0 -2.66,-1.28 -2.66,-2.87 z m 47.86,-102.55 c -0.17,-1.6 0.79,-3 2.13,-3.14 1.35,-0.14 2.58,1.04 2.75,2.63 0.17,1.6 -0.79,3 -2.14,3.14 -1.34,0.14 -2.57,-1.04 -2.74,-2.63 z"
         stroke="none"
         id="path512" />
    </g>
    <g
       stroke="#c7b37f"
       stroke-width="0.99"
       stroke-linecap="round"
       id="g522">
      <path
         d="m 373.92,340.54 c -0.57,0.25 -0.9,0.46 -1.32,0.91 -0.41,0.43 -0.5,0.59 -0.82,1.3 -0.23,0.52 -0.3,1.12 -0.38,1.86 m 7.37,41.79 c 0.54,-0.66 0.87,-1.01 1.4,-1.69 0.43,-0.56 0.68,-0.87 1.06,-1.47 0.35,-0.54 0.5,-0.86 0.8,-1.43 0.43,-0.8 0.65,-1.25 1.05,-2.06 m -1.97,21.78 c -0.92,0.42 -1.47,0.61 -2.37,1.09 -0.68,0.36 -1.06,0.6 -1.71,1 -0.78,0.49 -1.2,0.77 -1.95,1.3 -0.76,0.57 -1.16,0.94 -1.9,1.53 m 23.38,-59.2 c -0.5,-0.52 -0.77,-0.82 -1.28,-1.32 -0.54,-0.53 -0.83,-0.84 -1.4,-1.32 -0.56,-0.47 -0.91,-0.69 -1.5,-1.12"
         id="path516" />
      <path
         stroke-linecap="butt"
         d="m 397.17,326.47 c -0.74,0.33 -1.13,0.6 -1.9,0.85 -0.89,0.29 -1.49,0.44 -2.34,0.48"
         id="path518" />
      <path
         d="m 371,300.68 c 0.25,0.9 0.31,1.45 0.65,2.32 0.43,1.1 0.8,1.69 1.45,2.67 0.68,1.03 1.1,1.6 1.99,2.46 0.77,0.76 1.26,1.14 2.17,1.73 0.86,0.57 1.42,0.76 2.32,1.25 m -1.54,-9.16 c 0.76,0.4 1.15,0.71 1.94,1.04 0.72,0.3 1.15,0.43 1.9,0.6 1.04,0.24 1.64,0.3 2.7,0.32 1.13,0.03 1.47,0 2.9,-0.23 m 11.21,-63.53 c -1.25,-0.73 -2,-1.05 -3.2,-1.87 a 19.05,19.05 0 0 1 -2.92,-2.37 14.57,14.57 0 0 1 -1.81,-2.02 c -0.56,-0.76 -0.78,-1.26 -1.28,-2.06 m 11.72,-7.11 c 0.4,1.05 0.5,1.68 1,2.68 0.68,1.36 1.2,2.07 2.23,3.19 1.41,1.55 2.61,2 4.28,3.27 m 2.27,-9.25 c 0.39,0.94 0.5,1.52 1,2.41 0.43,0.79 0.72,1.2 1.3,1.9 0.72,0.9 1.2,1.36 2.1,2.07 1.04,0.82 1.79,1.06 2.93,1.74"
         id="path520" />
    </g>
    <path
       fill="#703d29"
       stroke-width="0.28"
       d="m 520.78,211.91 c -0.08,-2.65 -2.69,-2.92 -3.69,-2.92 -2.88,0 -3.67,1.8 -7.27,3.73 -4.5,2.42 -6.45,2.96 -10.46,3 -4.01,-0.04 -6,-0.58 -10.52,-3 -3.6,-1.93 -4.2,-3.68 -7.09,-3.68 a 3.64,3.64 0 0 0 -3.51,3.84 c 0,0 -0.03,0.8 0.1,1.34 0.04,0.2 0.29,0.14 0.36,0.32 -0.03,-1.2 0.21,-1.82 0.8,-2.63 a 3.42,3.42 0 0 1 2.54,-1.31 c 2.89,0 3.96,1.85 7.56,3.78 4.51,2.42 6.45,2.96 10.46,3 4.01,-0.04 6,-0.58 10.52,-3 3.6,-1.93 4.63,-3.94 7.52,-3.94 1,0 1.7,0.65 2.03,1.67 0.2,0.63 0.1,1.04 0.14,1.3 0.03,0.11 0.18,0.1 0.21,0.23 0.1,-0.46 0.33,-0.63 0.3,-1.73 z"
       id="path524" />
  </g>
  <g
     fill="#703d29"
     id="g534"
     transform="matrix(0.75,0,0,0.74399856,0,-10.3995)">
    <path
       d="m 413.12,434.42 c 0.81,-0.87 1.42,-0.54 1.57,-0.95 0.11,-0.3 -0.13,-0.32 -0.46,-0.45 -0.44,-0.16 -0.9,-0.26 -1.34,-0.42 -0.46,-0.17 -0.87,-0.4 -1.33,-0.58 -0.19,-0.07 -0.63,-0.29 -0.75,0.04 -0.23,0.61 1.6,0.56 0.99,2.2 -0.1,0.28 -0.37,0.88 -1.28,1.88 l -4.14,4.5 c -0.09,0.11 -0.24,0.33 -0.34,0.3 -0.1,-0.04 -0.08,-0.31 -0.08,-0.45 l 0.06,-6.4 c 0,-1.2 0.1,-2.1 0.3,-2.63 0.28,-0.73 1.12,-0.12 1.3,-0.6 0.1,-0.29 0.02,-0.3 -0.48,-0.49 -0.25,-0.1 -0.73,-0.2 -1.74,-0.57 -0.53,-0.2 -1.04,-0.47 -1.56,-0.66 -0.24,-0.1 -0.67,-0.41 -0.83,0 -0.05,0.13 0.12,0.31 0.16,0.35 0.58,0.41 0.73,0.69 0.74,1.47 l 0.11,11.63 c 0.01,0.84 0.1,1.08 0.26,1.13 0.17,0.07 0.3,0 0.64,-0.4 z"
       id="path528" />
    <path
       d="m 417.95,436.22 c 0.53,-1.69 1.53,-0.67 1.72,-1.28 0.07,-0.21 0,-0.27 -0.48,-0.42 -0.91,-0.29 -1.51,-0.4 -2.09,-0.58 -0.56,-0.18 -1.16,-0.45 -1.78,-0.64 -0.15,-0.05 -0.53,-0.23 -0.63,0.07 -0.2,0.63 1.77,0.7 1.26,2.32 l -2.7,8.54 c -0.52,1.69 -1.53,0.86 -1.73,1.49 -0.03,0.08 -0.03,0.22 0.11,0.26 0.42,0.14 1.13,0.28 1.82,0.5 1.25,0.4 1.82,0.65 2.41,0.84 0.37,0.11 0.53,0.09 0.6,-0.1 0.18,-0.58 -1.88,-0.32 -1.19,-2.51 z m 5.78,1.71 c 0.32,-1.07 0.82,-0.93 1.41,-0.75 1.63,0.48 2.14,2.07 1.62,3.83 -0.31,1.05 -0.7,2.03 -3.15,1.3 -0.49,-0.14 -1.08,-0.32 -0.95,-0.77 z m -4.43,7.7 c -0.67,2.25 -1.8,1.27 -1.97,1.85 -0.1,0.35 0.25,0.4 0.42,0.45 0.81,0.24 1.64,0.4 2.5,0.67 0.68,0.2 1.1,0.4 1.37,0.48 0.37,0.1 0.53,0.04 0.58,-0.12 0.19,-0.65 -1.62,-0.39 -1.06,-2.3 l 0.92,-3.1 c 0.19,-0.62 0.13,-0.78 0.98,-0.52 0.8,0.24 1.05,0.48 1.18,1.38 l 0.52,3.23 c 0.2,1.18 0.37,2.46 1.64,2.84 0.65,0.19 1.83,0.11 2,-0.44 0.03,-0.15 -0.03,-0.28 -0.18,-0.33 -0.16,-0.04 -0.35,0.02 -0.51,-0.03 -0.13,-0.04 -0.43,-0.13 -0.5,-0.46 -0.49,-2.6 -1.09,-5.6 -1.05,-5.7 0.05,-0.18 0.56,-0.2 1.15,-0.48 0.6,-0.29 1.26,-0.81 1.6,-1.96 0.24,-0.82 0.67,-3.44 -2.86,-4.48 -1.08,-0.32 -2.2,-0.58 -3.27,-0.9 -1.02,-0.3 -1.12,-0.4 -1.87,-0.62 -0.19,-0.06 -0.38,-0.02 -0.43,0.16 -0.19,0.64 1.76,0.5 1.17,2.5 z m 13.16,3.85 c -0.52,2.16 -2.15,0.85 -2.32,1.55 -0.1,0.4 0.18,0.45 0.48,0.52 0.65,0.16 1.2,0.21 2.3,0.48 1.1,0.26 1.61,0.46 2.27,0.62 0.47,0.11 0.78,0.25 0.89,-0.19 0.12,-0.5 -2.1,-0.48 -1.56,-2.72 l 1.97,-8.2 c 0.2,-0.87 0.4,-0.92 1.06,-0.76 l 1.4,0.34 c 1.89,0.37 0.88,2.26 1.53,2.42 0.43,0.1 0.42,-0.65 0.44,-0.88 l 0.22,-1.7 c 0.03,-0.2 0.09,-0.45 -0.16,-0.5 -1.52,-0.37 -2.63,-0.56 -5.01,-1.13 -2.39,-0.57 -3.46,-0.91 -4.98,-1.27 -0.25,-0.06 -0.3,0.2 -0.37,0.37 l -0.83,2.33 c -0.1,0.23 -0.29,0.6 0.06,0.69 0.73,0.17 0.81,-2.32 2.66,-1.88 l 1.37,0.33 c 0.67,0.16 0.81,0.3 0.6,1.16 z m 19.84,-5.06 c 0.65,-1 1.3,-0.78 1.38,-1.2 0.06,-0.32 -0.18,-0.3 -0.53,-0.37 -0.46,-0.08 -0.93,-0.1 -1.4,-0.18 -0.47,-0.1 -0.92,-0.25 -1.4,-0.34 -0.2,-0.04 -0.67,-0.18 -0.73,0.17 -0.12,0.64 1.67,0.27 1.35,2 -0.05,0.29 -0.2,0.93 -0.93,2.06 l -3.3,5.16 c -0.07,0.12 -0.18,0.36 -0.28,0.35 -0.1,-0.02 -0.13,-0.3 -0.16,-0.43 l -1.05,-6.3 c -0.2,-1.2 -0.26,-2.1 -0.16,-2.65 0.14,-0.78 1.08,-0.32 1.17,-0.81 0.06,-0.31 -0.02,-0.31 -0.55,-0.4 -0.27,-0.06 -0.76,-0.07 -1.81,-0.27 -0.57,-0.1 -1.11,-0.28 -1.66,-0.38 -0.25,-0.05 -0.73,-0.29 -0.81,0.15 -0.03,0.13 0.17,0.28 0.21,0.3 0.65,0.32 0.84,0.56 0.99,1.33 l 2.13,11.44 c 0.15,0.82 0.29,1.04 0.45,1.07 0.18,0.03 0.29,-0.06 0.56,-0.5 z m 0.93,10.51 c 0,0.46 -0.03,0.6 0.36,0.78 0.92,0.4 1.7,0.98 2.7,1.15 2.17,0.36 3.97,-1.02 4.38,-3.43 0.39,-2.34 -0.57,-3.31 -2.2,-4.47 -2.04,-1.46 -2.91,-1.85 -2.7,-3.08 0.2,-1.24 1.06,-1.81 2.16,-1.63 2.85,0.48 2.52,3.94 2.9,4 0.37,0.07 0.45,-0.14 0.49,-0.55 l 0.23,-2.5 c 0.04,-0.43 0.13,-0.7 -0.12,-0.74 -0.21,-0.03 -0.67,0.19 -0.89,0.15 -0.5,-0.08 -1.07,-0.91 -2.43,-1.14 -1.94,-0.32 -3.52,1 -3.88,3.12 -0.32,1.93 0.54,2.8 1.85,3.75 2.44,1.75 3.45,2.16 3.18,3.73 -0.24,1.47 -1.38,2.19 -2.67,1.97 -1.84,-0.3 -2.59,-2.15 -2.82,-4 -0.03,-0.26 -0.04,-0.43 -0.3,-0.48 -0.41,-0.06 -0.34,0.5 -0.33,0.76 z m 24.72,-6.97 c 0.54,-1.06 1.22,-0.91 1.25,-1.34 0.03,-0.32 -0.21,-0.28 -0.56,-0.3 -0.47,-0.05 -0.95,0 -1.42,-0.05 -0.48,-0.03 -0.94,-0.14 -1.43,-0.18 -0.2,-0.02 -0.68,-0.11 -0.71,0.24 -0.05,0.65 1.7,0.1 1.56,1.84 -0.03,0.3 -0.11,0.95 -0.71,2.16 l -2.74,5.47 c -0.06,0.13 -0.15,0.38 -0.25,0.37 -0.1,0 -0.16,-0.27 -0.2,-0.4 l -1.7,-6.16 a 8.49,8.49 0 0 1 -0.44,-2.62 c 0.06,-0.78 1.04,-0.42 1.08,-0.93 0.03,-0.31 -0.06,-0.3 -0.6,-0.34 -0.26,-0.02 -0.75,0.01 -1.82,-0.07 -0.57,-0.05 -1.14,-0.17 -1.69,-0.21 -0.25,-0.02 -0.76,-0.2 -0.8,0.24 0,0.13 0.2,0.26 0.25,0.28 0.68,0.24 0.9,0.46 1.12,1.21 l 3.32,11.15 c 0.24,0.8 0.4,1 0.56,1.02 0.18,0.01 0.27,-0.1 0.5,-0.56 z"
       id="path530" />
    <path
       d="m 480.6,457 c -0.02,1.9 -1.63,1.55 -1.63,2.3 0,0.32 0.33,0.23 0.52,0.23 0.45,0 0.9,-0.07 1.44,-0.06 0.59,0 1.16,0.08 1.98,0.09 0.22,0 0.64,0.02 0.64,-0.24 0,-0.88 -2.15,0.37 -2.12,-3.2 l 0.06,-6.35 c 0,-0.17 0.03,-0.3 0.13,-0.3 0.09,0 0.19,0.1 0.3,0.25 l 8,9.77 c 0.11,0.15 0.2,0.26 0.43,0.26 0.2,0 0.2,-0.14 0.2,-0.55 l 0.1,-10.47 c 0.01,-1.96 1.44,-1.5 1.44,-2.06 0,-0.05 0,-0.24 -0.31,-0.24 -0.16,0 -0.74,0.06 -1.8,0.05 -1.16,0 -1.65,-0.08 -1.92,-0.09 -0.21,0 -0.27,0.19 -0.27,0.32 0,0.61 2.05,0.3 2.03,2 l -0.05,6.2 c 0,0.47 -0.04,0.7 -0.14,0.7 -0.1,0 -0.3,-0.23 -0.52,-0.5 l -6.68,-8.28 c -0.3,-0.36 -0.1,-0.49 -0.63,-0.5 -0.89,0 -1.33,0.07 -1.76,0.07 -0.32,0 -0.62,-0.08 -0.94,-0.08 -0.2,0 -0.29,0.14 -0.3,0.31 0,0.9 1.9,-0.3 1.86,3.28 l -0.06,7.1 z m 16.26,-8.4 c 0.02,-1.77 1.27,-1.09 1.27,-1.72 0,-0.23 -0.08,-0.27 -0.58,-0.27 -0.96,-0.01 -1.56,0.06 -2.17,0.06 -0.59,0 -1.24,-0.1 -1.9,-0.1 -0.15,0 -0.56,-0.06 -0.57,0.26 0,0.65 1.8,0.15 1.8,1.85 v 8.95 c 0,1.77 -1.21,1.28 -1.22,1.93 0,0.1 0.03,0.22 0.18,0.23 0.44,0 1.16,-0.07 1.88,-0.06 1.31,0 1.93,0.09 2.56,0.1 0.38,0 0.53,-0.07 0.54,-0.28 0,-0.6 -1.89,0.24 -1.87,-2.05 z m 7.04,8.67 c 0.02,2.22 -1.89,1.34 -1.88,2.07 0,0.4 0.29,0.39 0.6,0.39 0.66,-0.01 1.22,-0.09 2.34,-0.1 1.13,-0.01 1.68,0.06 2.35,0.05 0.49,0 0.83,0.05 0.82,-0.4 0,-0.52 -2.15,0.04 -2.17,-2.25 l -0.07,-8.43 c 0,-0.9 0.16,-1 0.85,-1 l 1.42,-0.01 c 1.94,-0.1 1.42,1.98 2.09,1.98 0.43,0 0.24,-0.73 0.2,-0.96 l -0.2,-1.71 c -0.01,-0.19 -0.01,-0.45 -0.26,-0.45 -1.57,0.02 -2.7,0.1 -5.14,0.12 -2.45,0.02 -3.58,-0.04 -5.14,-0.03 -0.25,0 -0.25,0.27 -0.27,0.45 l -0.24,2.47 c -0.03,0.24 -0.13,0.65 0.22,0.65 0.76,-0.01 0.23,-2.45 2.13,-2.46 l 1.41,-0.02 c 0.69,0 0.86,0.09 0.86,0.98 z m 9.78,-3.53 c -0.3,0.02 -0.53,0.06 -0.55,-0.13 -0.02,-0.26 0.06,-0.47 0.13,-0.7 l 1.03,-3.4 c 0.07,-0.2 0.13,-0.23 0.17,-0.23 0.08,0 0.03,0 0.14,0.14 l 1.64,3.26 c 0.1,0.21 0.22,0.41 0.24,0.67 0.01,0.19 -0.22,0.19 -0.52,0.21 z m 2.87,0.78 c 0.44,-0.03 0.54,0.15 1.2,1.56 0.23,0.48 0.37,0.81 0.4,1.22 0.1,1.13 -1.11,1.02 -1.07,1.56 0.02,0.26 0.24,0.2 0.54,0.18 0.48,-0.03 1.1,-0.16 1.83,-0.21 1.1,-0.1 1.57,-0.05 2.17,-0.1 0.45,-0.04 0.6,-0.01 0.58,-0.33 -0.05,-0.61 -0.9,0.19 -1.54,-1.1 l -5.41,-11.02 c -0.26,-0.54 -0.3,-0.58 -0.45,-0.56 -0.22,0.01 -0.27,0.37 -0.37,0.68 l -3.65,11.61 c -0.33,1.07 -1.2,1.03 -1.16,1.46 0.02,0.24 0.28,0.18 0.52,0.16 0.48,-0.04 0.96,-0.15 1.46,-0.19 0.54,-0.04 1.05,0 1.58,-0.05 0.35,-0.02 0.88,0.07 0.85,-0.33 -0.04,-0.5 -1.82,-0.06 -1.93,-1.4 -0.03,-0.44 0.15,-1.11 0.24,-1.5 0.29,-1.25 0.63,-1.35 0.92,-1.38 l 3.3,-0.26 z m 12.98,-7.73 c -0.17,-1.28 -0.1,-1.3 1.91,-1.57 3.21,-0.42 2.2,1.91 2.98,1.81 0.39,-0.05 0.22,-0.65 0.17,-0.89 l -0.3,-1.82 c -0.03,-0.17 -0.17,-0.34 -0.38,-0.3 -1.47,0.18 -2.6,0.41 -3.79,0.57 -2.55,0.33 -3.76,0.41 -4.44,0.5 -0.23,0.04 -0.34,0.2 -0.32,0.37 0.1,0.74 1.9,-0.1 2.12,1.56 l 1.14,8.66 c 0.3,2.26 -1.1,1.42 -1,2.27 0.03,0.12 0.14,0.2 0.35,0.17 0.92,-0.12 1.6,-0.29 2.12,-0.36 0.74,-0.1 1.36,-0.1 2,-0.18 0.41,-0.06 0.77,-0.03 0.72,-0.4 -0.06,-0.5 -1.88,0.2 -2.15,-1.84 l -0.37,-2.74 c -0.14,-1.07 -0.23,-1.29 0.53,-1.39 l 1.24,-0.16 c 1.73,-0.23 1.52,1.8 2.05,1.72 0.4,-0.05 0.21,-0.7 0.17,-0.94 l -0.55,-3.28 c -0.09,-0.5 -0.27,-0.43 -0.38,-0.42 -0.34,0.05 -0.16,1.75 -1.6,1.94 l -1.04,0.14 c -0.72,0.1 -0.73,-0.03 -0.84,-0.83 z m 6.14,4.24 c 0.69,3.72 3.38,5.79 6.7,5.17 5.26,-0.97 5.44,-5.65 4.96,-8.22 -0.72,-3.9 -3.62,-5.8 -6.83,-5.17 -3.94,0.77 -5.57,4.2 -4.83,8.22 z m 1.84,-1.42 c -0.5,-2.66 -0.14,-5.35 2.64,-5.92 2.12,-0.43 4.53,1.32 5.28,5.38 0.57,3.04 0.1,5.67 -2.73,6.25 -2.95,0.6 -4.7,-3.03 -5.2,-5.71 z m 13.02,-6.5 c -0.26,-1.09 0.25,-1.21 0.85,-1.36 1.65,-0.4 2.88,0.73 3.31,2.51 0.26,1.07 0.4,2.11 -2.08,2.7 -0.49,0.12 -1.1,0.27 -1.2,-0.19 z m 0,8.88 c 0.56,2.29 -0.9,2 -0.77,2.59 0.09,0.36 0.42,0.22 0.6,0.18 0.81,-0.2 1.61,-0.46 2.5,-0.68 0.68,-0.16 1.14,-0.2 1.42,-0.26 0.37,-0.1 0.48,-0.23 0.44,-0.4 -0.16,-0.65 -1.6,0.48 -2.06,-1.46 l -0.76,-3.14 c -0.15,-0.63 -0.28,-0.73 0.59,-0.94 0.81,-0.2 1.15,-0.1 1.71,0.6 l 2.06,2.54 c 0.76,0.93 1.56,1.95 2.85,1.64 0.65,-0.16 1.63,-0.82 1.5,-1.38 -0.04,-0.14 -0.16,-0.23 -0.3,-0.2 -0.17,0.05 -0.3,0.2 -0.47,0.23 -0.13,0.03 -0.44,0.1 -0.66,-0.15 -1.72,-2 -3.74,-4.3 -3.77,-4.4 -0.04,-0.19 0.4,-0.46 0.77,-1 0.37,-0.54 0.68,-1.33 0.4,-2.49 -0.2,-0.83 -1.14,-3.31 -4.72,-2.46 -1.1,0.27 -2.18,0.6 -3.28,0.87 -1.03,0.25 -1.18,0.2 -1.93,0.38 -0.2,0.05 -0.33,0.18 -0.3,0.36 0.17,0.66 1.78,-0.44 2.27,1.59 l 1.92,7.98 z m 13.48,-3.01 c 0.56,2.15 -1.5,1.76 -1.32,2.46 0.1,0.4 0.37,0.31 0.66,0.23 0.65,-0.16 1.17,-0.37 2.26,-0.66 1.09,-0.28 1.65,-0.34 2.3,-0.51 0.47,-0.12 0.8,-0.15 0.7,-0.59 -0.14,-0.5 -2.08,0.56 -2.66,-1.66 l -2.1,-8.17 c -0.23,-0.87 -0.1,-1 0.57,-1.17 l 1.39,-0.36 c 1.85,-0.55 1.84,1.59 2.5,1.42 0.42,-0.11 0.06,-0.77 -0.03,-0.98 l -0.61,-1.61 c -0.06,-0.18 -0.13,-0.43 -0.37,-0.37 -1.52,0.4 -2.59,0.75 -4.96,1.36 -2.37,0.61 -3.48,0.82 -5,1.21 -0.24,0.07 -0.17,0.32 -0.14,0.5 l 0.36,2.46 c 0.02,0.24 0.03,0.66 0.37,0.57 0.73,-0.19 -0.37,-2.43 1.47,-2.9 l 1.37,-0.35 c 0.66,-0.18 0.85,-0.13 1.07,0.74 z m 8.59,-11.46 c -0.47,-1.7 0.92,-1.4 0.75,-2 -0.06,-0.22 -0.15,-0.24 -0.64,-0.1 -0.92,0.25 -1.48,0.49 -2.06,0.65 -0.57,0.15 -1.22,0.26 -1.85,0.43 -0.15,0.04 -0.57,0.1 -0.48,0.4 0.17,0.64 1.86,-0.37 2.31,1.26 l 2.4,8.63 c 0.47,1.7 -0.82,1.56 -0.65,2.2 0.03,0.08 0.1,0.2 0.24,0.16 0.42,-0.12 1.1,-0.38 1.8,-0.57 1.25,-0.35 1.87,-0.45 2.47,-0.61 0.37,-0.1 0.5,-0.22 0.44,-0.42 -0.16,-0.57 -1.74,0.76 -2.35,-1.45 z m 3.58,4.17 c 1.2,3.6 4.15,5.26 7.35,4.19 5.08,-1.7 4.6,-6.36 3.77,-8.84 -1.25,-3.75 -4.39,-5.24 -7.48,-4.16 -3.8,1.3 -4.94,4.94 -3.64,8.81 z m 1.62,-1.66 c -0.86,-2.57 -0.88,-5.28 1.8,-6.23 2.04,-0.72 4.67,0.68 5.98,4.59 0.98,2.94 0.88,5.6 -1.84,6.57 -2.83,1.01 -5.07,-2.35 -5.94,-4.93 z m 11.92,-8.47 c -0.41,-1.04 0.07,-1.23 0.65,-1.46 1.58,-0.62 2.96,0.32 3.63,2.02 0.4,1.02 0.7,2.03 -1.68,2.97 -0.47,0.18 -1.05,0.41 -1.22,-0.02 z m 1.24,8.8 c 0.87,2.18 -0.63,2.1 -0.4,2.66 0.13,0.35 0.44,0.17 0.61,0.1 0.78,-0.3 1.54,-0.68 2.38,-1.02 0.65,-0.25 1.1,-0.35 1.37,-0.46 0.36,-0.14 0.44,-0.3 0.38,-0.45 -0.24,-0.62 -1.51,0.7 -2.24,-1.16 l -1.19,-3 c -0.24,-0.61 -0.38,-0.7 0.45,-1.02 0.78,-0.3 1.13,-0.26 1.79,0.36 l 2.39,2.23 c 0.88,0.81 1.81,1.7 3.04,1.22 0.63,-0.24 1.51,-1.03 1.3,-1.57 -0.06,-0.14 -0.2,-0.2 -0.33,-0.15 -0.16,0.06 -0.27,0.23 -0.43,0.29 -0.12,0.05 -0.42,0.16 -0.67,-0.06 -1.99,-1.74 -4.3,-3.74 -4.35,-3.84 -0.07,-0.17 0.32,-0.5 0.62,-1.09 0.29,-0.6 0.49,-1.41 0.05,-2.52 -0.31,-0.8 -1.59,-3.13 -5.01,-1.78 -1.05,0.41 -2.08,0.9 -3.13,1.31 -0.98,0.4 -1.14,0.37 -1.86,0.65 -0.18,0.08 -0.3,0.23 -0.24,0.4 0.25,0.63 1.7,-0.69 2.47,1.26 l 3,7.63 z"
       id="path532" />
  </g>
  <g
     fill="#fedf00"
     id="g547"
     transform="matrix(0.75,0,0,0.74399856,0,-10.3995)">
    <path
       fill="#d52b1e"
       d="m 412.66,249.25 h 82.18 v 82.02 h -82.18 z"
       id="path536" />
    <path
       id="a"
       fill="#ffffff"
       d="m 451.2,313.83 c 0,0 -0.05,2.93 -0.86,5.29 -0.93,2.72 -0.94,2.72 -1.8,4.04 a 13.13,13.13 0 0 1 -3.8,3.89 c -1.96,1.26 -3.95,1.88 -5.95,1.7 -5.49,-0.48 -8.04,-6.43 -9.28,-11.27 -1.32,-5.13 -5.07,-7.92 -7.47,-6.06 -1.4,1.09 -1.47,2.91 -0.3,4.67 1.24,1.86 4.1,2.8 4.1,2.8 l -2.94,3.73 c 0,0 -6.3,-0.82 -7.53,-7.4 -0.47,-2.49 0.74,-7.13 4.89,-8.52 5.3,-1.77 8.68,2 10.31,5.2 2.25,4.38 3.21,12.43 9.43,11.18 3.39,-0.67 4.98,-5.6 4.98,-7.85 l 2.47,-2.64 3.65,1.16 z" />
    <use
       xlink:href="#a"
       transform="matrix(-1,0,0,1,907.52,0)"
       id="use539" />
    <path
       d="m 461.12,278.95 10.76,-11.64 c 0,0 1.62,-1.31 1.61,-3.4 l -2.22,0.34 -0.5,-1.14 -0.1,-1.15 2.98,-0.63 c 0.04,-0.48 0,-0.85 0.09,-1.38 0.08,-0.5 0.19,-0.76 0.3,-1.25 l -3.26,0.22 c 0.17,-0.57 0.13,-0.87 0.31,-1.4 0.16,-0.45 0.2,-0.62 0.5,-1.1 0.61,-0.1 1.16,-0.24 1.91,-0.31 0.73,-0.07 1.15,-0.04 1.88,-0.09 1.78,-3.32 9.19,-6.37 14.45,-0.9 3.81,3.96 2.99,11.22 -1.95,13.14 a 6.32,6.32 0 0 1 -6.86,-1.11 l 1.97,-3.87 c 2.72,1.63 4.98,-0.4 4.82,-2.5 -0.2,-2.65 -1.92,-4.29 -4.35,-4.5 -2.26,-0.2 -3.88,1.1 -4.9,3.1 -0.63,1.24 -0.34,2.14 -0.55,3.5 -0.22,1.49 -0.1,2.32 -0.53,3.82 a 8.75,8.75 0 0 1 -2.37,3.59 l -11.03,11.93 -42.94,46.45 -3.23,-2.98 z"
       id="path541" />
    <path
       fill="#ffffff"
       d="m 429.51,283.04 c 0,0 2.7,13.37 11.87,33.43 4.67,-1.7 7.42,-2.8 12.37,-2.8 4.94,0 7.7,0.93 12.36,2.8 9.17,-20.06 11.87,-33.43 11.87,-33.43 l -24.23,-31.18 z"
       id="path543" />
    <path
       d="m 456.12,262.41 16.82,21.64 c 0,0 -2.24,10.52 -9.08,26.35 -2.64,-0.6 -4.91,-1.13 -7.73,-1.32 v -46.67 z m -4.74,0 -16.82,21.64 c 0,0 2.24,10.52 9.08,26.35 2.64,-0.6 4.91,-1.13 7.73,-1.32 v -46.67 z"
       id="path545" />
  </g>
  <g
     fill="#d52b1e"
     id="g553"
     transform="matrix(0.75,0,0,0.74399856,0,-10.3995)">
    <path
       fill="#fedf00"
       d="m 503.6,249.25 h 82.18 v 82.02 H 503.6 Z"
       id="path549" />
    <path
       d="m 515.11,249.25 h 12.25 v 82.02 h -12.25 z m 23.48,0 h 12.25 v 82.02 H 538.6 Z m 23.48,0 h 12.25 v 82.02 h -12.25 z"
       id="path551" />
  </g>
  <g
     fill="#d52b1e"
     stroke="#d52b1e"
     stroke-width="0.51"
     id="g559"
     transform="matrix(0.75,0,0,0.74399856,0,-10.3995)">
    <path
       fill="#fedf00"
       d="m 412.97,402.41 c 0.23,1.48 0.76,4.01 2.16,6.6 1.48,2.34 0.94,2.28 4.28,6.01 1.64,1.84 4.21,3.41 6.23,4.5 2.02,1.08 3.51,1.62 6.84,2.49 6.52,1.71 11.09,1.82 16.57,1.6 4.28,-0.17 7.55,-0.7 10.25,-1.06 3.86,-0.52 6.73,-0.83 11.12,-1.01 2.13,-0.1 4.15,-0.11 6.14,0 2.4,0.13 4.78,0.5 7.3,1 a 79.61,79.61 0 0 1 10.97,3.2 l 0.01,-85.66 -82.19,-0.02 v 58.54 c 0,0 0.17,2.86 0.32,3.8 z"
       stroke="none"
       id="path555" />
    <path
       d="m 422.51,417.43 3.85,2.24 5.28,1.9 v -81.53 h -9.13 z m 45.66,3.71 0.01,-81.1 h -9.14 v 82.4 c 0,0 6.25,-0.8 9.13,-1 z m 18.24,-81.09 h -9.11 v 81.38 c 2.97,0.32 6.02,0.85 9.13,1.68 z m -36.49,0 v 83.33 c -0.09,0.01 -6.1,0.32 -9.17,0 v -83.32 z"
       id="path557" />
  </g>
  <path
     fill="#fedf00"
     d="m 439.11,288.97809 a 15.5625,15.437971 0 0 1 -1.62,4.91039 c -1.11,1.74095 -0.705,1.69631 -3.21,4.46398 -1.23,1.3764 -3.15749,2.54448 -4.6725,3.348 -1.515,0.8184 -2.63249,1.21271 -5.13,1.85999 -4.89,1.27224 -8.3175,1.35408 -12.4275,1.1904 -3.21,-0.12648 -5.6625,-0.5208 -7.6875,-0.78864 -2.895,-0.38688 -5.0475,-0.61752 -8.34,-0.75144 a 47.505,47.124869 0 0 0 -4.605,0 c -1.8,0.0967 -3.585,0.372 -5.475,0.744 -4.0875,0.8184 -8.28,2.3808 -8.28,2.3808 l 0.0375,-63.73091 61.65001,-0.0149 v 43.55367 c 0,0 -0.12751,2.12784 -0.24001,2.8272 z"
     id="path561"
     style="stroke-width:0.746993" />
  <g
     id="b"
     transform="matrix(0.75,0,0,0.74399856,0,-10.3995)">
    <path
       fill="#d52b1e"
       d="m 524.62,346.91 -0.6,0.28 c -0.3,0.33 -0.44,0.52 -0.77,0.81 -0.45,0.4 -0.77,0.5 -1.25,0.85 -0.24,0.16 -0.42,0.21 -0.6,0.44 -0.25,0.32 -0.08,0.62 -0.25,1 -0.19,0.4 -0.37,0.6 -0.65,0.93 -0.37,0.44 -0.65,0.61 -1.07,1 -0.42,0.4 -0.59,0.73 -1.1,1 -0.13,0.07 -0.19,0.14 -0.34,0.19 -0.21,0.07 -0.34,-0.01 -0.56,0.06 -0.39,0.14 -0.5,0.56 -0.78,0.72 0.11,0.22 0.1,0.37 0.22,0.6 0.16,0.32 0.7,1.21 0.81,1.43 0.21,0.3 0.27,0.7 0.53,0.78 0.54,0.17 0.86,0.16 1.32,0.13 0.79,0.18 1.28,0.16 2.03,0.47 0.61,0.25 0.86,0.57 1.47,0.84 0.47,0.21 0.77,0.34 1.28,0.44 0.38,0.07 0.6,0.13 1,0.1 0.25,-0.03 0.37,-0.13 0.62,-0.16 h 0.13 l -0.03,0.37 v 0.09 h 0.06 l 2.06,0.91 c -0.07,0.12 -0.15,0.26 -0.19,0.38 -0.1,0.32 -0.11,0.68 -0.06,0.84 0.63,1.89 1.16,3.07 1.47,3.19 0.62,0.23 0.8,0.86 1.16,1.5 -0.13,0.13 -0.23,0.2 -0.35,0.3 -0.61,0.6 -1.15,1.02 -1.65,1.82 -0.75,1.19 -1.25,1.2 -0.32,2.78 0.55,0.93 0.82,1.1 1.53,2.4 0.37,0.67 0.57,1.18 0.79,1.98 0.2,0.75 0.27,1.19 0.3,1.97 l 0.98,0.37 0.65,-0.65 0.63,-1.2 0.03,-0.9 c -0.24,-0.2 -0.3,-0.47 -0.25,-0.78 0.07,-0.37 0.51,-0.3 0.72,-0.62 0.28,-0.47 -0.33,-0.74 -0.66,-1.1 -0.6,-0.67 -1.43,-0.83 -1.62,-1.84 -0.05,-0.28 0.08,-0.43 0.37,-0.72 0.86,-0.84 1.13,-0.97 1.97,-1.81 0.24,0.14 0.61,0.19 0.97,0.12 0.28,-0.05 0.53,0.13 1.4,0.38 0.62,0.17 0.88,0.08 1.22,0.03 l 0.38,-0.1 c 0.05,0.22 0.11,0.42 0.12,0.7 0.06,1.05 -0.15,2.99 0.16,3.5 0.13,0.2 0.19,0.32 0.28,0.55 0.1,0.24 0.22,0.4 0.22,0.66 0.01,0.7 0.05,1.14 0,1.87 -0.04,0.7 -0.1,1.05 -0.22,1.75 -0.07,0.46 -0.16,0.72 -0.44,1.07 -0.28,0.36 -0.59,0.41 -0.96,0.68 l -0.1,1 1.13,0.47 1.28,0.32 0.69,-0.29 c 0,-0.25 0.04,-0.4 0.15,-0.62 0.13,-0.25 0.23,-0.44 0.47,-0.53 0.36,-0.14 0.76,0.13 0.9,-0.1 0.17,-0.24 0.07,-0.33 0.04,-0.75 -0.05,-0.66 -0.18,-0.98 -0.28,-1.65 a 11.81,11.81 0 0 1 -0.16,-2.75 c 0.03,-0.62 0.04,-0.96 0.16,-1.56 0.17,-0.89 0.48,-1.32 0.68,-2.2 0.23,-0.97 0.27,-1.6 0.38,-2.46 3.17,0.45 5.8,0.4 9.34,-0.38 0.17,-0.03 0.75,-0.25 0.75,-0.25 0.8,0.7 1.71,1.27 2.72,1.63 v 0.97 c 0.04,0.29 -0.04,0.48 0.13,0.72 0.1,0.15 0.2,0.24 0.37,0.28 0.27,0.06 0.46,0.02 0.66,-0.16 0.23,-0.2 0.18,-0.45 0.25,-0.75 0.03,-0.14 0,-0.56 0,-0.69 0.37,0.06 0.49,0.07 0.87,0.07 0.36,0 0.53,0.01 0.88,-0.03 l 0.03,0.46 c 0.03,0.25 -0.08,0.44 0.03,0.66 0.11,0.23 0.25,0.36 0.5,0.4 0.2,0.05 0.35,0.02 0.53,-0.09 0.3,-0.18 0.27,-0.5 0.31,-0.84 0.02,-0.11 0.02,-0.7 0,-0.78 l 1.04,-0.38 c 0,0.25 -0.04,0.52 -0.1,0.82 a 5,5 0 0 1 -0.25,0.93 c -0.2,0.57 -0.44,0.86 -0.75,1.38 -0.37,0.63 -0.57,0.98 -1.03,1.56 -0.21,0.27 -0.36,0.39 -0.56,0.66 -0.26,0.33 -0.34,0.56 -0.6,0.9 -0.32,0.44 -0.5,0.73 -0.93,1.07 -0.7,0.55 -1.15,0.1 -2.1,0.84 l -0.22,1.03 1.44,0.53 1.28,0.25 0.44,-0.25 c -0.01,-0.3 0.03,-0.51 0.22,-0.75 0.21,-0.27 0.44,-0.35 0.78,-0.4 0.36,-0.06 0.75,0.03 1.03,-0.22 0.35,-0.31 0.35,-0.92 0.63,-1.47 a 12.66,12.66 0 0 1 3,-3.9 c 0.61,-0.6 1.13,-0.77 1.65,-1.45 0.25,-0.32 0.52,-0.46 0.53,-0.87 0.01,-0.28 -0.14,-0.42 -0.21,-0.69 -0.1,-0.38 -0.2,-1 -0.2,-1 1.53,0.75 0.98,0.65 1.26,1.4 0.22,0.62 -0.03,1.05 0.06,1.7 0.11,0.75 0.47,1.1 0.53,1.87 0.08,0.9 -0.14,1.42 -0.31,2.31 -0.15,0.79 -0.13,1.28 -0.47,2 a 3.85,3.85 0 0 1 -1.16,1.57 c -0.2,0.17 -0.36,0.25 -0.59,0.4 l -0.12,1.03 1.12,0.38 1.63,0.44 0.37,-0.35 c 0.16,-0.65 -0.05,-1.61 0.4,-1.69 0.41,-0.06 0.7,0 0.79,-0.3 0.04,-0.14 0.06,-0.33 0.1,-0.63 0.21,-1.89 0.41,-3.65 0.62,-4.5 0.23,-0.97 0.21,-1.18 0.4,-1.91 0.18,-0.66 -0.08,-0.28 0.41,-1.69 0.73,-2.1 -0.2,-2.37 -1.06,-3.65 -0.46,-0.7 -0.62,-0.95 -0.69,-1.5 -0.1,-0.82 0.16,-1.5 0.12,-2.75 a 42.32,42.32 0 0 1 0,-2.88 c 0.12,-0.05 0.23,-0.12 0.35,-0.19 1.17,-0.64 1.63,-0.83 2.37,-2.46 0.23,-0.5 0.32,-1 0.32,-1.47 0,-0.34 -0.07,-0.66 -0.1,-1.03 -0.03,-0.4 -0.19,-0.64 -0.31,-0.94 a 3.17,3.17 0 0 0 -0.56,-0.85 c -0.78,-0.92 -1.78,-1.13 -2.72,-1.46 -1.48,-0.54 -2.5,-0.44 -4.13,-0.57 -1.67,-0.13 -2.6,-0.15 -4.28,-0.06 -2,0.12 -3.13,0.52 -5.12,0.75 -1.92,0.22 -2.98,0.37 -4.9,0.4 -2.27,0.05 -4.43,-0.45 -5.79,-0.34 -2.45,0.21 -2.5,0.76 -6.19,1.07 -1.92,0.15 -3.84,0.18 -3.84,0.18 l -2.16,-0.68 c 0.86,-0.31 1.07,-0.5 1.47,-1.04 0.27,-0.36 0.23,-0.67 0.56,-1.06 0.27,-0.31 0.45,-0.62 0.78,-0.97 a 2.2,2.2 0 0 0 -0.93,-0.43 c -0.37,-0.08 -0.58,-0.05 -0.94,0 -0.5,0.05 -0.77,0.12 -1.22,0.34 -0.36,0.18 -0.62,0.36 -0.84,0.6 0,0 -1.29,-0.84 -2.19,-1.23 -1.12,-0.48 -1.6,-0.7 -3,-0.9 z m 1.97,11.9 h 0.06 l -0.03,0.04 -0.03,-0.03 z"
       id="path563" />
    <g
       fill="none"
       stroke="#fedf00"
       stroke-width="0.99"
       stroke-linecap="round"
       id="g577">
      <path
         d="m 568.77,359.52 -0.76,0.24 c -0.87,0.4 -1.58,0.42 -2.6,0.5 -2.65,0.2 -4.27,-1.06 -7,-0.85 -1.4,0.11 -2.03,1.2 -3.46,1.55 -0.65,0.16 -1.03,0.23 -1.7,0.28 l 0.51,-1.03 c 0,0 -1.28,0.26 -2.11,0.26 -0.6,0 -0.94,-0.03 -1.53,-0.13 l 1.02,-0.95 c 0,0 -0.81,-0.13 -1.3,-0.33 a 3.92,3.92 0 0 1 -1.05,-0.63 c 0.66,-0.12 1.03,-0.2 1.69,-0.36 1.55,-0.38 2.04,-1.14 3.89,-1.32 1.15,-0.11 3.03,-0.05 7.64,0.72 3.03,0.5 4.38,0.26 5.53,-0.26 0.77,-0.35 1.02,-1.01 1.1,-1.79 0.1,-0.78 -0.4,-1.4 -0.87,-1.81 -0.12,-0.1 -0.44,-0.33 -1.1,-0.36"
         id="path565" />
      <path
         fill="#fcd900"
         stroke-width="0.51"
         stroke-linecap="butt"
         d="m 524.8,350.61 c -0.53,-0.07 -0.88,0.01 -1.34,0.3 -0.48,0.29 -0.54,0.69 -0.89,1.13 0.45,0.1 0.7,0.36 1.14,0.26 0.35,-0.09 0.53,-0.24 0.77,-0.51 0.31,-0.36 0.43,-0.68 0.42,-1.16 z"
         id="path567" />
      <path
         d="m 536.04,363.79 c 0,0 0.26,0.48 0.4,0.8 0.25,0.55 0.38,0.88 0.53,1.47 0.2,0.8 0.11,1.28 0.24,2.1 0.02,0.14 0.05,0.26 0.08,0.37 l -0.05,1.13 m 6.8,-6.95 -0.35,1.33 c -0.36,1.36 -0.68,2.09 -0.95,3.46 -0.04,0.23 -0.08,0.45 -0.1,0.65 m -10.86,-3.98 c 0.79,0.18 0.54,3.36 1.79,4.09"
         id="path569" />
      <path
         stroke-linecap="butt"
         d="m 560.12,369.78 0.38,-0.25 a 8.15,8.15 0 0 0 2.69,-1.79"
         id="path571" />
      <path
         d="m 552.38,368.02 c 3.54,-0.88 5.9,-2.65 7.59,-2.87 m -4,-1.54 c 0.3,-0.01 0.58,-0.03 0.83,-0.07 1.47,-0.2 1.7,0.69 2.73,1.26 1.85,1.04 2.1,2.3 4.3,3.36 l 0.32,0.15 0.84,0.43"
         id="path573" />
      <path
         fill="#fcd900"
         stroke-width="0.51"
         stroke-linecap="butt"
         d="m 517.7,354.53 c 0.27,0.07 0.43,0.08 0.7,0.05 0.34,-0.03 0.5,-0.23 0.82,-0.24 0.27,-0.01 0.47,-0.04 0.69,0.12 0.14,0.1 0.2,0.19 0.28,0.34 0.08,0.17 0.16,0.28 0.12,0.47 -0.06,0.28 -0.32,0.42 -0.61,0.42 -0.24,0 -0.44,-0.06 -0.55,-0.27 a 0.47,0.47 0 0 1 -0.03,-0.4 c -0.29,0.11 -0.5,0.12 -0.78,0.02 -0.3,-0.1 -0.48,-0.24 -0.64,-0.51 z"
         id="path575" />
    </g>
    <g
       fill="#0065bd"
       id="g581">
      <path
         d="m 525.13,364.17 c -0.8,-0.24 -1.97,-0.83 -1.97,-0.83 0.33,-0.25 0.6,-0.26 0.87,-0.55 0.39,-0.4 0.37,-0.79 0.59,-1.32 0.22,-0.52 0.18,-0.95 0.67,-1.34 0.3,-0.23 0.76,-0.27 1.12,-0.17 0.35,0.11 0.76,0.4 0.85,0.77 0.13,0.56 -0.16,0.88 -0.25,1.45 -0.08,0.57 -0.3,0.9 -0.2,1.46 0.07,0.38 0.23,0.52 0.36,0.9 0,0 -1.26,-0.14 -2.04,-0.37 z m -0.99,0.95 a 0.63007936,0.63007936 0 1 1 1.26,-0.02 0.63007936,0.63007936 0 0 1 -1.26,0.02 z m -1.76,-16.51 -0.14,-0.1 c -0.39,-0.31 -0.42,-0.66 -0.6,-1.11 -0.18,-0.44 -0.26,-0.7 -0.32,-1.16 -0.05,-0.4 0,-0.64 0,-1.05 0,-0.36 0.04,-0.57 0,-0.94 -0.04,-0.38 -0.03,-0.61 -0.21,-0.94 -0.1,-0.18 -0.4,-0.34 -0.31,-0.42 0.09,-0.1 0.25,-0.02 0.42,0 0.4,0.04 0.63,0.16 0.94,0.42 0.38,0.3 0.53,0.57 0.67,1.04 0.17,0.55 0.25,0.9 0.4,1.47 0.1,0.3 0.14,0.47 0.3,0.74 0.15,0.27 0.31,0.38 0.52,0.63 l -0.02,0.02 c -0.3,0.33 -0.44,0.54 -0.77,0.83 -0.3,0.27 -0.56,0.4 -0.85,0.58 z m 3.6,10.64 2.23,1.03 a 9.24,9.24 0 0 0 3.5,-3.92 c 0.88,-1.72 1.02,-2.65 1.36,-4.31 l -1.79,-0.58 -0.35,0.07 c -0.56,1.72 -0.7,2.7 -1.62,4.2 -0.8,1.28 -1.72,2.3 -2.65,3.03 z m 4.94,18.12 c 0.36,-0.5 0.51,-0.81 0.92,-1.26 0.46,-0.5 0.8,-0.7 1.31,-1.15 0.16,0.01 0.34,-0.02 0.48,0.07 a 9,9 0 0 1 -0.52,2.75 c -0.14,0.39 -0.16,0.64 -0.4,0.98 -0.15,0.22 -0.28,0.31 -0.47,0.51 -0.5,-0.74 -1.33,-1.3 -1.32,-1.9 z m 33.01,1.85 c 0.57,0.21 0.92,0.27 1.47,0.54 0.61,0.3 0.9,0.57 1.47,0.94 0.02,0.16 0.1,0.32 0.06,0.48 a 8.97,8.97 0 0 1 -2.79,0.26 c -0.41,-0.03 -0.66,0.02 -1.05,-0.1 -0.26,-0.1 -0.38,-0.2 -0.63,-0.32 0.58,-0.7 0.88,-1.64 1.47,-1.8 z m -9.76,-2.04 c 0.57,0.21 0.92,0.27 1.47,0.54 0.6,0.3 0.9,0.57 1.47,0.94 0.02,0.16 0.1,0.32 0.06,0.48 a 8.98,8.98 0 0 1 -2.79,0.26 c -0.41,-0.03 -0.66,0.02 -1.05,-0.1 -0.26,-0.1 -0.38,-0.2 -0.63,-0.32 0.58,-0.7 0.88,-1.64 1.47,-1.8 z m -17.34,2.13 c 0.57,0.21 0.92,0.27 1.47,0.54 0.61,0.3 0.9,0.57 1.47,0.94 0.02,0.16 0.1,0.32 0.06,0.48 a 9,9 0 0 1 -2.79,0.26 c -0.41,-0.03 -0.66,0.02 -1.05,-0.1 -0.26,-0.1 -0.38,-0.2 -0.63,-0.32 0.58,-0.7 0.88,-1.64 1.47,-1.8 z m -8.98,-29.8 c -0.61,-0.28 -1.05,-1.04 -0.66,-1.6 0.15,-0.21 0.41,-0.17 0.57,-0.39 0.18,-0.27 0.14,-0.5 0.13,-0.84 0,-0.37 -0.14,-0.57 -0.2,-0.94 -0.08,-0.4 -0.15,-0.64 -0.14,-1.05 0,-0.63 -0.04,-1.08 0.34,-1.57 0.25,-0.32 0.66,-0.6 0.83,-0.62 0.14,0.14 -0.06,0.5 -0.04,0.83 0.04,0.46 0.13,0.71 0.3,1.15 0.2,0.56 0.47,0.8 0.7,1.36 0.2,0.52 0.4,0.81 0.41,1.37 0.02,0.45 -0.02,0.73 -0.2,1.15 a 2,2 0 0 1 -0.62,0.84 c -0.27,0.22 -0.45,0.32 -0.8,0.42 -0.24,0.02 -0.4,-0.01 -0.62,-0.11 z"
         id="path579" />
    </g>
  </g>
  <use
     xlink:href="#b"
     y="36.59"
     id="use584"
     transform="translate(0,-9.4520591)" />
  <g
     fill="none"
     stroke="#703d29"
     stroke-width="0.8"
     id="g588"
     transform="matrix(0.75,0,0,0.74399856,0,-10.3995)">
    <path
       d="m 412.66,249.25 h 82.18 v 82.02 h -82.18 z m 90.94,0 h 82.18 v 82.02 H 503.6 Z m -90.63,153.16 c 0.23,1.48 0.76,4.01 2.16,6.6 1.48,2.34 0.94,2.28 4.28,6.01 1.64,1.84 4.21,3.41 6.23,4.5 2.02,1.08 3.51,1.62 6.84,2.49 6.52,1.71 11.09,1.82 16.57,1.6 4.28,-0.17 7.55,-0.7 10.25,-1.06 3.86,-0.52 6.73,-0.83 11.12,-1.01 2.13,-0.1 4.15,-0.11 6.14,0 2.4,0.13 4.78,0.5 7.3,1 a 79.61,79.61 0 0 1 10.97,3.2 l 0.01,-85.66 -82.19,-0.02 v 58.54 c 0,0 0.17,2.86 0.32,3.8 z m 172.51,-0.02 a 20.75,20.75 0 0 1 -2.16,6.6 c -1.48,2.34 -0.94,2.28 -4.28,6 -1.64,1.85 -4.21,3.42 -6.23,4.5 -2.02,1.1 -3.51,1.63 -6.84,2.5 -6.52,1.71 -11.09,1.82 -16.57,1.6 -4.28,-0.17 -7.55,-0.7 -10.25,-1.06 -3.86,-0.52 -6.73,-0.83 -11.12,-1.01 a 63.34,63.34 0 0 0 -6.14,0 c -2.4,0.13 -4.78,0.5 -7.3,1 -5.45,1.1 -11.04,3.2 -11.04,3.2 l 0.05,-85.66 82.2,-0.02 v 58.54 c 0,0 -0.17,2.86 -0.32,3.8 z"
       id="path586" />
  </g>
</svg>
