<?xml version="1.0" encoding="UTF-8" standalone="no"?>
<svg
   viewBox="0 0 750 500"
   version="1.1"
   id="svg9"
   sodipodi:docname="CYP_landscape.svg"
   inkscape:version="1.2.2 (b0a8486541, 2022-12-01)"
   width="750"
   height="500"
   xmlns:inkscape="http://www.inkscape.org/namespaces/inkscape"
   xmlns:sodipodi="http://sodipodi.sourceforge.net/DTD/sodipodi-0.dtd"
   xmlns:xlink="http://www.w3.org/1999/xlink"
   xmlns="http://www.w3.org/2000/svg"
   xmlns:svg="http://www.w3.org/2000/svg">
  <defs
     id="defs13" />
  <sodipodi:namedview
     id="namedview11"
     pagecolor="#ffffff"
     bordercolor="#000000"
     borderopacity="0.25"
     inkscape:showpageshadow="2"
     inkscape:pageopacity="0.0"
     inkscape:pagecheckerboard="0"
     inkscape:deskcolor="#d1d1d1"
     showgrid="false"
     inkscape:zoom="0.39333333"
     inkscape:cx="451.27119"
     inkscape:cy="300"
     inkscape:window-width="1340"
     inkscape:window-height="1041"
     inkscape:window-x="576"
     inkscape:window-y="0"
     inkscape:window-maximized="1"
     inkscape:current-layer="svg9" />
  <path
     fill="#ffffff"
     d="M 0,0 H 750 V 500 H 0 Z"
     id="path2"
     style="stroke-width:0.833333" />
  <path
     id="a"
     d="M 385.91667,422.28417 A 0.84166667,0.84166667 0 0 1 385.6275,422.08 l -0.10417,-0.0975 a 17.935833,17.935833 0 0 1 -1.31833,-1.36917 c -1.11,-1.26083 -2.59917,-3.10666 -3.90833,-4.7375 -2.59584,-3.23583 -4.74084,-6.02333 -5.145,-6.54833 l -0.66084,-0.86 -6.4725,-1.99583 -4.72583,-2.20334 2.525,-2.83833 8.67333,3.71333 6.4725,1.32834 11.96917,8.80333 -0.009,0.008 c -0.0242,0.02 -1.74083,1.44833 -3.44666,3 -0.76084,0.69167 -1.72,1.58333 -2.3975,2.31917 -0.27917,0.29916 -0.53834,0.61666 -0.775,0.95 a 7.5033333,7.5033333 0 0 0 -0.3875,0.73333 m -44.45,-13.35 a 33.025,33.025 0 0 1 -16.57917,-4.63917 h -0.006 v -0.007 a 8.5333333,8.5333333 0 0 1 2.39833,-2.58334 c 1.6175,-1.1875 4.535,-2.60666 9.25,-2.625 h 0.0975 c 5.58333,0 12.41667,1.89834 20.31083,5.6425 a 30.018333,30.018333 0 0 1 -15.47166,4.21167 l 0.008,0.008 z m -24.475,-5.425 A 3.5341667,3.5341667 0 0 1 314.35,402.39917 5.3658333,5.3658333 0 0 1 313.16667,400 a 12.213333,12.213333 0 0 1 -0.2925,-3.51417 3.6133333,3.6133333 0 0 1 1.30166,-0.295 h 0.0933 c 2.0925,0 3.74166,1.815 4.44833,3.61417 a 3.625,3.625 0 0 1 0.22833,2.55583 2.0141667,2.0141667 0 0 1 -1.95,1.14167 z m 43.06666,-4.99167 C 345.59267,396.453 339.461,391.223 336.86434,387.19967 a 13.0875,13.0875 0 0 1 -2.195,-8.3 v -0.0117 h 0.0108 c 0.72667,-0.16667 1.47,-0.24917 2.215,-0.24417 3.84833,0 13.69167,1.93584 23.16667,19.86834 l 0.006,0.0117 -0.0167,-0.008 z m -29.65,-2.86666 c -6.18,0 -10.885,-1.06667 -13.985,-3.16667 a 8.5866667,8.5866667 0 0 1 -3.07166,-3.4375 5.625,5.625 0 0 1 -0.495,-1.68583 18.92,18.92 0 0 1 6.47083,-1.375 c 0.31917,-0.015 0.64083,-0.0242 0.97833,-0.025 4.77667,0 12.04,1.55833 19.705,8.98333 l 0.007,0.007 h -0.009 a 75.028333,75.028333 0 0 1 -9.60834,0.7 z m -29.925,-1.15 c -6.51666,0 -15.46916,-1.99 -21.0525,-7.5725 l -0.006,-0.007 h 0.0167 a 65.405833,65.405833 0 0 1 12.93583,-1.71833 c 0.40667,-0.01 0.81667,-0.015 1.22917,-0.0158 6.11,0 10.78666,1.185 13.90166,3.52084 a 4.1183333,4.1183333 0 0 1 1.815,2.31916 1.9,1.9 0 0 1 -0.88,1.79167 c -1.4025,1.05917 -3.91,1.62417 -7.45416,1.68083 l -0.5,0.0167 z m -21.11666,-10.83334 a 2.6716667,2.6716667 0 0 1 -2.06584,-0.9725 4.8916667,4.8916667 0 0 1 -0.92333,-2.10166 11.915,11.915 0 0 1 -0.2425,-3.06167 v -0.015 c 0.31833,-0.14667 0.66417,-0.225 1.01417,-0.22917 a 3.1533333,3.1533333 0 0 1 2.1575,0.965 5.7966667,5.7966667 0 0 1 1.40666,2.20417 3.3583333,3.3583333 0 0 1 0.15,2.19583 1.5958333,1.5958333 0 0 1 -1.5,1.00834 z m 48.775,-1.1 A 3.5341667,3.5341667 0 0 1 325.5,381.4575 a 5.375,5.375 0 0 1 -1.185,-2.39833 12.213333,12.213333 0 0 1 -0.2925,-3.51417 3.6133333,3.6133333 0 0 1 1.30167,-0.295 h 0.0933 c 2.0925,0 3.74167,1.815 4.44833,3.61417 a 3.625,3.625 0 0 1 0.22834,2.55583 2.0108333,2.0108333 0 0 1 -1.95,1.14167 z M 304.38333,381.585 c -13.11416,-0.46167 -19.91666,-4.18917 -23.32,-7.23583 A 15.25,15.25 0 0 1 277.53,369.81 a 9.7075,9.7075 0 0 1 -0.75667,-2.03167 l 0.0175,-0.007 a 11.2175,11.2175 0 0 1 3.2375,-0.4825 h 0.30667 c 4.4225,0 13.42583,1.8575 24.04333,14.29417 v 0.008 z M 318.625,380.26 c -10.55083,-1.60667 -16.52833,-6.13583 -19.685,-9.65417 a 20.1475,20.1475 0 0 1 -4.34417,-7.28166 15.518333,15.518333 0 0 1 3.25,-0.39084 c 0.14084,0 0.2875,-0.006 0.43667,-0.006 0.14917,0 0.30417,0 0.46083,0.006 5.30667,0.11584 14.945,2.51917 19.87917,17.32084 h 0.008 z m -54.16667,-5.06667 A 41.113333,41.113333 0 0 1 254.49167,374 c -5.52417,-1.38167 -7.89417,-3.49083 -8.90917,-5.0175 a 5.265,5.265 0 0 1 -0.85917,-2.11167 3.5683333,3.5683333 0 0 1 -0.0258,-0.89416 l 0.0258,-0.009 a 37.698333,37.698333 0 0 1 8.72,-1.10667 c 0.19917,0 0.4,-0.005 0.60417,-0.005 a 36.505,36.505 0 0 1 7.13667,0.69167 22.621667,22.621667 0 0 1 13.3775,8.45 v 0.007 h -0.0108 a 41.3625,41.3625 0 0 1 -10.1,1.18333 z m 24.49167,-8.9 a 3.5366667,3.5366667 0 0 1 -2.64333,-1.08333 5.4083333,5.4083333 0 0 1 -1.18334,-2.42333 12,12 0 0 1 -0.2925,-3.4875 3.6133333,3.6133333 0 0 1 1.30167,-0.295 h 0.0933 c 2.08834,0 3.74,1.81583 4.44917,3.615 a 3.5416667,3.5416667 0 0 1 0.2025,2.52833 1.9633333,1.9633333 0 0 1 -1.925,1.15 z m -18.41667,-2.525 a 40.1875,40.1875 0 0 1 -9.9725,-4.35416 c -4.62,-2.84417 -10.27166,-7.875 -10.96083,-15.69167 h 0.0117 a 5.95,5.95 0 0 1 1.065,-0.12833 c 0.0833,0 0.18083,-0.005 0.27833,-0.005 1.38,0 4.205,0.38833 7.6225,2.98666 4.35,3.31667 8.36667,9.1 11.95833,17.20834 z m 12.025,-0.44166 a 32.5225,32.5225 0 0 1 -7.89083,-5.07 50.6325,50.6325 0 0 1 -13.93,-19.44167 6.415,6.415 0 0 1 3.04583,-0.59833 c 2.00917,0.0567 5.06917,0.89166 8.46167,4.5525 3.89667,4.20583 7.375,11.11666 10.33333,20.5425 l 0.008,0.0267 -0.025,-0.008 z M 251.4,362.41833 c -4.0175,0 -5.3925,-2.17916 -5.7975,-3.11666 a 6.4858333,6.4858333 0 0 1 -0.46167,-3.08917 v -0.0167 a 8.8458333,8.8458333 0 0 1 2,-0.26166 h 0.1375 a 8.265,8.265 0 0 1 6.73667,3.20083 c 0.2125,0.31583 0.86417,1.41167 0.325,2.2675 -0.43333,0.675 -1.41667,1.01667 -2.94167,1.01667 z m -8.9,-11.22583 a 53.261667,53.261667 0 0 1 -9.28417,-0.79333 c -3.57833,-0.65084 -5.60666,-3.69334 -6.6775,-6.13 a 21.291667,21.291667 0 0 1 -1.5,-5.21167 h 0.01 c 11.06834,0.325 16.29584,3.55917 18.73167,6.21417 a 9.7608333,9.7608333 0 0 1 2.67167,5.76833 h -0.007 c -0.0167,0 -1.575,0.15 -3.95,0.15 z m 11.525,-11.51667 a 44.889167,44.889167 0 0 1 -2.5275,-3.52333 c -1.31083,-2.0375 -2.52333,-4.16667 -2.52333,-5.90333 0,-1.68 -0.395,-5.22167 -0.63084,-7.1825 -0.29833,-2.4875 -0.6,-4.61667 -0.625,-4.7975 h 0.0108 c 0.28083,0.1025 6.92333,2.595 6.92333,8.82583 0,6.23083 -0.615,12.51167 -0.62083,12.57417 v 0.009 h -0.008 z m -8.60833,-0.59166 c -0.07,0 -0.13917,-0.007 -0.20834,-0.0175 -1.96333,-0.3275 -5.41666,-1.82834 -9.2275,-4.015 -4.235,-2.42834 -7.67416,-5.03 -9.68333,-7.32584 -1.83333,-2.09333 -2.91667,-5.38083 -3.23333,-9.77166 a 36.329167,36.329167 0 0 1 0.0725,-5.96917 3.4458333,3.4458333 0 0 1 1.09583,-0.16667 c 1.47,0.0242 3.03917,0.68584 5.1575,2.145 a 41.469167,41.469167 0 0 1 5.40833,4.595 82.82,82.82 0 0 1 6,6.6425 l 0.0267,0.0333 c 0.22083,0.39583 2.11417,3.80916 3.58917,7.13166 a 22.961667,22.961667 0 0 1 1.68666,4.78834 c 0.145,0.48416 0.145,1 0,1.48416 a 0.75166667,0.75166667 0 0 1 -0.32083,0.37334 c -0.11583,0.05 -0.24083,0.0758 -0.36667,0.075 z"
     fill="#4e5b31"
     style="stroke-width:0.833333" />
  <use
     xlink:href="#a"
     transform="matrix(-1,0,0,1,750,0)"
     id="use5" />
  <path
     d="m 605.94333,86.639167 -1.9625,0.781666 -0.76916,0.306667 -2.37834,-0.130833 -2.2275,1.069166 -3.95,2.699167 -0.17416,0.125 -1.4725,0.384167 -1.3675,-0.59 -0.77667,0.353333 -0.2675,1.6 -0.73917,1.149167 -0.91,0.639166 -3.1525,0.3225 -2.65833,1.370834 -3.45833,-0.925834 -1.60667,0.629167 -3.41667,3.076667 -1.74583,0.826663 -0.61,-0.035 -2.315,-0.11916 -0.9775,0.32 -1.46,1.41083 -2.7625,0.215 -0.86083,0.59583 -1.34834,2.71667 -1.46083,1.50667 -0.83333,0.17666 -0.90584,-0.33333 -0.68083,0.12 -0.30833,1.73833 -0.66084,0.72834 -1.84916,0.63666 -1.4775,1.23084 -1.29667,0.66666 -1.73667,-0.0433 h -0.39916 l -1.73,0.955 -3.25,0.285 -1.35334,1.29083 -0.29833,0.27584 -0.63167,0.38166 -1.03333,0.61667 -0.25,0.15333 -1.25,-0.2225 -1.45833,0.5775 -0.59,-0.9075 -1.00917,0.60584 -1.33333,0.0575 -1.66667,-0.74084 -1.26833,-0.565 -0.9275,0.13417 -0.3225,1.61667 -0.0325,0.17166 -0.975,1.2975 -1.82,1.1025 -0.25,0.3225 -2.07084,2.67334 -3.935,4.13833 -3.3275,1.69 -3.44916,1.04917 -2.41667,1.98333 -6.33333,3.13917 -9.99584,4.9775 -2.04416,0.655 -2.93334,0.46833 -5.23166,1.92667 -4.61584,1.3925 -0.25666,0.0783 -0.91667,0.27667 -6.50833,1.96916 -3.02917,-0.32 -1.79417,0.65167 -4.67083,-0.51833 -3.25,0.0642 -2.05583,0.4275 -3.86417,1.85334 -6.5225,3.135 -2.155,1.97166 -3.35583,1.75 -3.92917,1.24417 0.009,-1.65083 -0.0233,-0.07 -1.36333,0.43083 -0.98417,0.31083 -3.1875,0.49167 h -1.77333 l -1.10083,-0.32 -0.16667,0.0575 -6.515,2.14083 -7.26583,0.70167 -3.63584,1.16667 -2.71666,-0.0433 -1.69834,0.505 -3.33333,0.4075 -1.19,-0.3175 -0.26833,-0.0733 -9.79167,0.425 -4.47667,-0.50583 -2.13666,0.48583 -3.58334,-1.205 -5.22416,-0.60583 -1.22084,-0.36584 -2.75,-0.815 -1.2425,0.71584 -0.93,0.0992 -2.2225,-0.80583 -0.8,-0.02 -1.83333,0.66667 -1.05583,-0.27084 -0.98084,-0.78166 -2.30083,-0.3425 -1.40167,-1.17834 -7.83333,1.03834 -2.12583,-0.625 -7.12834,-2.07667 -1.13416,0.0575 -1.41667,1.05917 -2.12333,0.77416 -1.84334,0.47917 -2.51,0.0833 -2.91666,-0.765 -3.005,-1.45666 -1.11084,-0.26417 -2.47833,0.25 -0.75833,0.0683 -4.555,-2.44333 -5.86834,-3.66667 -3.98166,-1.91666 -1.495,-0.2425 -0.20084,0.71083 0.74167,2.33333 0.25,2.31167 -0.0758,2.13583 -0.0408,1.3225 0.37167,1.1875 1.4375,1.59334 0.59917,1.6 0.43833,4.40333 -0.005,4.46833 -0.69917,7.12584 -0.23583,1.08333 -0.83333,3.69167 -0.76167,3.39083 -2.955,9.0275 -0.81167,1.11917 -1.9925,1.35916 -4.51583,3.07334 -3.325,1.91666 -1.0525,0.43584 -2.69917,0.20416 -1.68166,-0.0833 -2.09417,-1.13417 -2.05583,-0.52916 -2.69334,-1.93667 -3,-0.62 -3.28416,-1.89833 -0.855,-1.0275 -1.78834,-0.16667 -2.48,-0.74417 v -0.004 l -0.91083,-0.2725 -0.62917,-0.18334 -3.16666,-0.0833 -2.95,-1.36167 -1.55334,-0.375 -2.1225,-0.1075 -2.22166,1.0325 -1.12584,0.52417 -1.4225,-0.565 -1.02916,0.0642 -1.16667,1.7625 -0.14333,0.26916 -0.80334,0.425 -1,-0.0142 -0.7825,-0.0208 -0.84666,0.37 -1.14,0.49417 -1.00667,0.43917 -0.49167,0.2125 -0.008,-0.008 -0.3025,0.0608 -0.5375,0.0933 -0.66667,0.1275 -1.175,-0.68667 -0.625,-0.36833 -1.0475,-0.21333 -0.56416,0.4075 -0.11084,1.91666 -0.515,1.14834 -1.63416,1.445 -1.66084,1.4625 -1.1575,1.70583 -3.06333,6.99167 -1.91667,2.82083 -0.59583,0.6575 -2.015,2.21667 -1.78,1.38083 -4.10167,3.17917 -3.8825,1.45083 -3.34416,0.68333 -1.62584,0.007 -3.08333,-0.41 -2.76917,-0.85 -3.04166,-1.90167 -3.33334,-2.68083 -4.82833,-4.77 -0.68333,-0.41083 -0.1425,-0.095 -1.52084,-0.9725 -1.12833,0.0292 -0.44167,0.72834 -0.24166,1.0525 -0.20417,0.93333 -0.55333,5.30583 0.0408,0.3075 0.29083,2.185 3.66667,5.125 1.13167,2.7225 0.18583,0.31084 0.75667,1.27083 0.57583,0.96917 0.0575,0.0983 1.25,3.74 -0.88083,2.11167 0.445,1.41666 -1.11334,0.86417 -0.20416,1.22083 3.2925,4.1275 0.71833,1.82084 -0.8025,2.52416 -1.28,1.3925 -0.3575,0.38084 0.18,1.06666 1.515,1.3625 2.57417,2.29167 1.3725,3.405 1.04416,0.91667 1.21334,-0.25834 0.675,0.515 1.02333,-0.0175 1.00667,1.00667 0.65166,0.31583 1.03,0.51334 0.81417,1.06 0.18,3.25916 1.51833,4.05 0.0233,2.19584 0.008,0.31166 0.945,1.62334 0.29667,1.28166 -0.5,3.39084 1.20416,1.08833 1.30584,-0.26667 0.84333,0.13334 1.355,1.12833 1.64083,2.5 1.605,-0.235 1.01834,0.49083 4.91666,4.445 1.11584,0.56334 0.0617,0.035 0.8025,0.4025 1,1.00666 1.54667,-1.02666 0.17167,-0.0175 1.68166,-0.14834 0.73834,0.5 1.41666,0.9575 1.86167,-0.0242 4.03667,1.2375 1.76583,0.4525 3.55083,2.20666 1.50917,0.93334 0.89333,0.72583 1.18667,0.9675 2.37083,1.02 2.03334,0.48667 1.10166,0.26166 0.83334,0.32 0.0208,-0.0517 h 0.0117 l -0.02,0.0525 4.40333,1.68583 2.385,0.55667 2.20667,0.8125 1.60583,0.58333 1.17833,0.0192 1.66667,-1.40167 1.61417,-0.0933 1.34083,0.33333 1.30833,-0.21917 2.07084,-1.27583 0.40416,-0.59917 1.46834,-0.69916 4.95333,-0.615 1.4475,0.47 3.71667,-1.61667 2.49,0.6925 2.20416,-0.78167 4.81584,1.07 1.28,0.90084 1.43083,1.6375 0.175,0.007 1.59333,0.0308 -0.66666,1.10917 2.1025,2.20583 1.89916,2.87083 0.12834,0.37917 1.38083,4.05333 1.02667,1.43584 0.71833,2.00416 0.035,1.30667 -1.11667,0.85167 -0.18333,0.48583 -0.0633,0.18 0.22666,0.54583 0.42167,-0.23 0.8025,-0.44416 0.97667,-0.15167 1.72166,0.18333 1.13667,0.11917 1.795,-0.89083 1.18917,-0.59167 1.91083,0.8225 2.1,-0.0233 0.88167,0.3925 2.5,1.13166 1.27416,0.12 0.47084,-0.30916 0.3,-0.71334 -0.15417,-0.83333 -0.95917,-1.09917 -2.10916,-2.44833 -0.86334,-1.25833 L 327.20333,308.83 327,306.5 l -0.145,-1.57083 0.26167,-2.06417 0.56666,-0.73667 0.41667,-1.64 h 0.007 l 0.1075,-0.42916 1.17167,-1.555 3.10333,-1.99417 3.33333,-2.985 2.635,-1.7375 2.71667,-1.17667 0.0725,-0.33333 0.3025,0.12167 6.91,-2.34917 0.11417,-0.0133 3.07666,-0.53584 20.76667,1.4625 0.77,-0.2325 v -0.005 l 0.69167,-1.94166 0.3725,-0.36 0.25,-0.235 2.28333,-1.005 1.0675,-0.1525 2.96333,0.73166 1.21334,0.29917 1.94333,-1.08917 1.37833,0.0233 2.8475,-1.555 1.75917,0.0442 0.66667,-0.2675 3.42666,-2.4625 3.30084,-0.94583 0.85833,-0.45667 0.3025,-0.16666 3.38333,-1.78667 2.14917,-1.65083 1.855,-0.98584 2.03167,-0.52416 5.31666,-0.37417 1.06917,-1.78167 2.28667,-0.305 1.38083,-1.55833 1.58333,-0.6425 1.1325,-1.63167 0.94917,-1.3675 1.32583,-0.7675 4.25,-0.26666 5.0375,0.62416 0.66667,-0.40416 1.13833,-4.0625 1.19167,-0.7625 3.20917,-4.67667 0.0108,-1.70417 V 253.135 l 0.5275,-2.02667 -0.35833,-3.65916 0.425,-3.705 1.995,-4.70834 1.7575,-1.89916 2.83333,-1.91667 1.44083,-0.6275 2.04084,-0.34333 v 8.3e-4 l 0.3,-0.0508 0.52,-0.0892 7.0275,-0.0967 c 0.0975,-0.0725 2.55583,-0.035 2.55583,-0.035 l 2.34333,-0.0317 5.93,1.05333 0.42167,0.0733 2,0.64917 2.31167,1.7975 2.44833,2.39083 0.45917,0.44584 1.58333,0.66666 0.47917,0.20917 1.30916,-0.20917 1.86417,-0.97083 1.40667,-1.18917 1.91666,-1.0475 0.0467,-0.0667 1.07917,-1.62334 0.0325,-0.0333 0.0233,0.006 v -0.009 h -0.0183 l 0.42583,-0.64584 3.70583,-1.44416 4.35834,-0.25 0.49,-0.265 0.2725,-0.14584 1.15166,-1.3525 1.07917,-0.008 2.6125,0.945 1.83333,-0.365 1.45834,0.58333 1.13333,-0.13416 2.1375,-0.25 2.295,1.61416 1.3375,0.16667 4.715,2.75833 0.245,0.04 0.12667,0.0233 0.27,0.045 0.55916,-0.16667 0.83334,-0.24083 0.11,-0.0325 0.105,0.14583 0.53583,0.75583 0.735,0.105 0.87,-1.16083 -0.34583,-0.52667 -0.13084,-0.19166 -1.68416,-0.3425 -1.5125,-2.58334 1.44,-1.55083 -2.25917,-2.77167 -0.375,-0.45916 -0.1275,-0.195 -0.78083,-1.18584 -3.955,-6.02916 -5.15167,-4.1125 -1.80417,-1.44334 -0.0117,-0.008 -0.63167,-0.5 -2.75,-2.79833 -1.965,-2.60834 -0.2575,-0.56166 -0.40583,-0.885 -1.1775,-2.565 -2.05167,-1.58334 -1.67167,-1.82583 -0.0833,-0.1075 -3.45,-4.68833 -0.56667,-0.78584 -0.815,-0.47083 -1.72166,-0.0117 -0.16667,-0.16666 -0.0967,-0.10084 0.0583,-0.0617 0.82583,-0.82084 0.92083,-0.23166 0.39667,-0.9075 -1.75667,-5.08334 -0.0117,-0.1775 -0.13084,-1.625 1.43167,-7.37916 0.18333,-0.89917 2.44,-4.965 1.51167,-1.23833 1.65,-3.24334 1.41667,-2.07333 1.35416,-1.31833 0.23667,-0.14 2.445,-1.48 2.05417,-0.28917 1.95666,-0.27583 3.41667,1.05333 3.25,-0.0633 0.63417,-0.0675 1.475,-0.16667 2.42583,-0.76417 1.145,-0.70666 0.59417,-0.91084 1.23916,-4.15583 0.39834,-1.3225 0.76416,-1.43667 4.42167,-5.09 3.3425,-3.09166 7.51583,-5.51084 3.67917,-2.19916 1.87833,-1.1225 16.77167,-7.455 4.35833,-4.41667 2.27084,-2.29833 4.0175,-2.69584 4.70083,-1.92583 4.045,-3.20167 0.88333,-1.11166 1.11334,-3.58334 0.9275,-0.22416 0.83333,-1.81167 0.23833,-0.515 3.30084,-2.32667 0.37333,-0.18583 12.82333,-6.425 1.86334,0.25583 1,-1.494163 3.73083,-0.625834 0.68667,-0.116666 0.91666,-0.459167 0.7825,-1.333333 v -0.263334 l 0.1075,-3.560833 0.79667,-0.9625 0.43417,-2.346667 0.40916,-0.541666 0.4275,-0.563334 1.05667,-0.7425 -0.18333,-0.4425 z"
     fill="#d57800"
     id="path7"
     style="stroke-width:0.833333" />
</svg>
