<?xml version="1.0" encoding="UTF-8" standalone="no"?>
<svg
   viewBox="0 0 750 500"
   version="1.1"
   id="svg23"
   sodipodi:docname="GEO_landscape.svg"
   inkscape:version="1.2.2 (b0a8486541, 2022-12-01)"
   width="750"
   height="500"
   xmlns:inkscape="http://www.inkscape.org/namespaces/inkscape"
   xmlns:sodipodi="http://sodipodi.sourceforge.net/DTD/sodipodi-0.dtd"
   xmlns:xlink="http://www.w3.org/1999/xlink"
   xmlns="http://www.w3.org/2000/svg"
   xmlns:svg="http://www.w3.org/2000/svg">
  <sodipodi:namedview
     id="namedview25"
     pagecolor="#ffffff"
     bordercolor="#000000"
     borderopacity="0.25"
     inkscape:showpageshadow="2"
     inkscape:pageopacity="0.0"
     inkscape:pagecheckerboard="0"
     inkscape:deskcolor="#d1d1d1"
     showgrid="false"
     inkscape:zoom="0.59"
     inkscape:cx="-214.40678"
     inkscape:cy="232.20339"
     inkscape:window-width="1340"
     inkscape:window-height="1041"
     inkscape:window-x="576"
     inkscape:window-y="0"
     inkscape:window-maximized="1"
     inkscape:current-layer="svg23" />
  <defs
     id="defs9">
    <g
       id="c">
      <clipPath
         id="a">
        <path
           d="m -109,104 a 104,104 0 0 0 0,-208 h 218 a 104,104 0 0 0 0,208 z"
           id="path2" />
      </clipPath>
      <path
         id="b"
         d="M -55,74 A 55,55 0 0 1 55,74 V -74 a 55,55 0 0 1 -110,0 z"
         clip-path="url(#a)" />
      <use
         xlink:href="#b"
         transform="rotate(90)"
         id="use6" />
    </g>
  </defs>
  <path
     fill="#ffffff"
     d="M -0.57200603,-0.44874947 H 750.76593 V 500.46945 H -0.57200603 Z"
     id="path11"
     style="stroke-width:2.50452" />
  <path
     d="M 325.00777,-0.44874947 V 199.91854 H -0.57200603 V 300.10218 H 325.00777 V 500.46945 H 425.18616 V 300.10218 H 750.76593 V 199.91854 H 425.18616 V -0.44874947 Z"
     fill="#ff0000"
     id="path13"
     style="stroke-width:2.50452" />
  <use
     xlink:href="#c"
     transform="matrix(2.5044598,0,0,2.5045911,160.84042,98.357363)"
     fill="#ff0000"
     id="use15" />
  <use
     xlink:href="#c"
     transform="matrix(2.5044598,0,0,2.5045911,589.35351,401.66336)"
     fill="#ff0000"
     id="use17" />
  <use
     xlink:href="#c"
     transform="matrix(2.5044598,0,0,2.5045911,589.35351,98.357363)"
     fill="#ff0000"
     id="use19" />
  <use
     xlink:href="#c"
     transform="matrix(2.5044598,0,0,2.5045911,160.84042,401.66336)"
     fill="#ff0000"
     id="use21" />
</svg>
