<?xml version="1.0" encoding="UTF-8" standalone="no"?>
<svg
   viewBox="0 0 750 500"
   version="1.1"
   id="svg26"
   sodipodi:docname="SLO_landscape.svg"
   width="750"
   height="500"
   inkscape:version="1.2.2 (b0a8486541, 2022-12-01)"
   xmlns:inkscape="http://www.inkscape.org/namespaces/inkscape"
   xmlns:sodipodi="http://sodipodi.sourceforge.net/DTD/sodipodi-0.dtd"
   xmlns:xlink="http://www.w3.org/1999/xlink"
   xmlns="http://www.w3.org/2000/svg"
   xmlns:svg="http://www.w3.org/2000/svg">
  <defs
     id="defs30" />
  <sodipodi:namedview
     id="namedview28"
     pagecolor="#ffffff"
     bordercolor="#000000"
     borderopacity="0.25"
     inkscape:showpageshadow="2"
     inkscape:pageopacity="0.0"
     inkscape:pagecheckerboard="0"
     inkscape:deskcolor="#d1d1d1"
     showgrid="false"
     inkscape:zoom="0.61458334"
     inkscape:cx="65.898305"
     inkscape:cy="328.67797"
     inkscape:window-width="1340"
     inkscape:window-height="1041"
     inkscape:window-x="576"
     inkscape:window-y="0"
     inkscape:window-maximized="1"
     inkscape:current-layer="svg26" />
  <path
     d="M 0,0 H 1000 V 500 H 0 Z"
     fill="#ff0000"
     id="path2"
     style="stroke-width:83.3333" />
  <path
     d="M 0,0 H 1000 V 333.33333 H 0 Z"
     fill="#005ce5"
     id="path4"
     style="stroke-width:83.3333" />
  <path
     d="M 0,0 H 1000 V 166.66667 H 0 Z"
     fill="#ffffff"
     id="path6"
     style="stroke-width:83.3333" />
  <g
     transform="matrix(1.75,0,0,1.75,-67.445555,289.83333)"
     id="g22">
    <path
       d="m 147.913,-115.518 c -0.64,0 -1.277,0.014 -1.913,0.032 -12.37,0.32 -23.983,3.515 -32.252,7.41 l 10e-4,0.012 c -0.904,0.378 -1.79,0.757 -2.632,1.136 l 2.842,44.519 c 1.97,23.264 17.131,36.81 33.976,42.128 16.846,-5.319 32.006,-18.864 33.975,-42.128 l 2.827,-44.378 a 64.852,64.852 0 0 0 -2.632,-1.277 v -0.011 c -8.69,-4.095 -21.074,-7.42 -34.15,-7.442 l -0.028,-0.001 z"
       fill="#005ce5"
       fill-rule="evenodd"
       id="path8" />
    <path
       d="m 147.934,-84.712 -8.314,16.237 -5.375,-6.983 -14.046,18.561 c 0.254,1.153 0.552,2.265 0.878,3.35 1.568,2.648 4.583,5.67 8.449,5.67 3.068,0 6.136,-2.454 9.204,-2.454 3.068,0 6.136,2.455 9.204,2.455 3.068,0 6.136,-2.455 9.205,-2.455 3.068,0 6.136,2.455 9.204,2.455 3.831,0 6.825,-2.967 8.406,-5.597 0.338,-1.115 0.64,-2.263 0.902,-3.448 l -14.027,-18.537 -5.375,6.983 z m -9.204,36.836 c -3.068,0 -6.136,2.454 -9.204,2.454 -2.428,0 -4.514,-0.86 -6.13,-2.08 a 41.98,41.98 0 0 0 1.835,3.504 c 1.265,0.787 2.704,1.319 4.295,1.319 3.068,0 6.136,-2.455 9.204,-2.455 3.068,0 6.136,2.455 9.204,2.455 3.068,0 6.136,-2.455 9.205,-2.455 3.068,0 6.136,2.455 9.204,2.455 1.568,0 2.987,-0.52 4.24,-1.289 a 42.193,42.193 0 0 0 1.835,-3.491 c -1.609,1.197 -3.675,2.037 -6.075,2.037 -3.068,0 -6.136,-2.454 -9.204,-2.454 -3.069,0 -6.137,2.454 -9.205,2.454 -3.068,0 -6.136,-2.454 -9.204,-2.454 z m 0,5.197 c -3.068,0 -6.136,2.454 -9.204,2.454 -0.667,0 -1.3,-0.078 -1.914,-0.196 5.307,7.091 12.549,11.838 20.316,14.567 7.751,-2.725 14.982,-7.475 20.286,-14.555 -0.6,0.113 -1.22,0.184 -1.871,0.184 -3.068,0 -6.136,-2.454 -9.204,-2.454 -3.069,0 -6.137,2.454 -9.205,2.454 -3.068,0 -6.136,-2.454 -9.204,-2.454 z"
       fill="#ffffff"
       fill-rule="evenodd"
       id="path10" />
    <g
       id="b"
       fill="#ffe500">
      <path
         id="a"
         d="m 134.094,-109.56 h 6.96 l -3.48,6.027"
         fill="#ffe500"
         fill-rule="evenodd" />
      <use
         height="300"
         transform="matrix(1,0,0,-1,0,-215.104)"
         width="600"
         xlink:href="#a"
         id="use13" />
    </g>
    <g
       fill="#ffe500"
       id="g20">
      <use
         height="300"
         transform="translate(20.72)"
         width="600"
         xlink:href="#b"
         id="use16" />
      <use
         height="300"
         transform="translate(10.36,13.875)"
         width="600"
         xlink:href="#b"
         id="use18" />
    </g>
  </g>
  <path
     d="M 191.38778,87.666667 Z M 131.55445,100.75 a 188.33333,188.33333 0 0 0 -4.58334,1.91667 l 5,77.91666 c 3.41667,40.75 30,64.41667 59.41667,73.75 29.5,-9.33333 56,-33 59.5,-73.75 l 4.91667,-77.66666 A 113.5,113.5 0 0 0 251.22111,100.75 L 246.55445,178 A 78.916667,78.916667 0 0 1 191.38778,249.66667 78.916667,78.916667 0 0 1 136.22111,178 Z"
     fill="#ff0000"
     fill-rule="evenodd"
     id="path24"
     style="stroke-width:83.3333" />
</svg>
