<?xml version="1.0" encoding="UTF-8" standalone="no"?>
<svg
   viewBox="0 0 750 500"
   version="1.1"
   id="svg16"
   sodipodi:docname="SVK_landscape.svg"
   width="750"
   height="500"
   inkscape:version="1.2.2 (b0a8486541, 2022-12-01)"
   xmlns:inkscape="http://www.inkscape.org/namespaces/inkscape"
   xmlns:sodipodi="http://sodipodi.sourceforge.net/DTD/sodipodi-0.dtd"
   xmlns="http://www.w3.org/2000/svg"
   xmlns:svg="http://www.w3.org/2000/svg">
  <defs
     id="defs20" />
  <sodipodi:namedview
     id="namedview18"
     pagecolor="#ffffff"
     bordercolor="#000000"
     borderopacity="0.25"
     inkscape:showpageshadow="2"
     inkscape:pageopacity="0.0"
     inkscape:pagecheckerboard="0"
     inkscape:deskcolor="#d1d1d1"
     showgrid="false"
     inkscape:zoom="0.39333333"
     inkscape:cx="451.27119"
     inkscape:cy="300"
     inkscape:window-width="1340"
     inkscape:window-height="1041"
     inkscape:window-x="576"
     inkscape:window-y="0"
     inkscape:window-maximized="1"
     inkscape:current-layer="svg16" />
  <path
     fill="#ee1c25"
     d="M 0,0 H 750 V 500 H 0 Z"
     id="path2"
     style="stroke-width:0.833333" />
  <path
     fill="#0b4ea2"
     d="M 0,0 H 750 V 333.33333 H 0 Z"
     id="path4"
     style="stroke-width:0.833333" />
  <path
     fill="#ffffff"
     d="M 0,0 H 750 V 166.66667 H 0 Z"
     id="path6"
     style="stroke-width:0.833333" />
  <path
     d="M 327.89917,117.5 H 121.965 l -0.70583,6.71583 c -0.15334,1.46 -3.75917,36.6425 -3.75917,113.90834 0,36.3025 12.27167,68.33333 36.475,95.19166 16.9575,18.82084 39.1025,34.66667 67.70167,48.44084 l 3.25,1.5675 3.255,-1.5675 c 28.6,-13.775 50.75,-29.62 67.705,-48.44084 24.20333,-26.86166 36.47583,-58.88916 36.47583,-95.19166 0,-77.265 -3.60667,-112.44834 -3.76,-113.90834 z"
     fill="#ffffff"
     id="path8"
     style="stroke-width:0.833333" />
  <path
     d="M 224.93083,375 C 183.81417,355.195 125,315.885 125,238.12417 125,160.36333 128.7175,125 128.7175,125 h 192.42917 c 0,0 3.71916,35.36417 3.71916,113.12417 0,77.76 -58.815,117.07083 -99.935,136.87583 z"
     fill="#ee1c25"
     id="path10"
     style="stroke-width:0.833333" />
  <path
     d="m 233.73667,217.73667 c 11.13333,0.18 32.85416,0.61583 52.19583,-5.85584 0,0 -0.51083,6.92167 -0.51083,14.98334 0,8.06166 0.51083,14.985 0.51083,14.985 -17.74083,-5.9375 -39.65,-6.06084 -52.19583,-5.90167 v 42.94917 H 216.15333 V 235.9475 c -12.54583,-0.15917 -34.45416,-0.0358 -52.19583,5.90167 0,0 0.51083,-6.92084 0.51083,-14.985 0,-8.06417 -0.51083,-14.98334 -0.51083,-14.98334 19.34167,6.47167 41.0625,6.03584 52.19583,5.85584 v -26.97334 c -10.1475,-0.09 -24.76916,0.39417 -41.3025,5.9275 0,0 0.51084,-6.92083 0.51084,-14.985 0,-8.06416 -0.51084,-14.98416 -0.51084,-14.98416 16.50834,5.52333 31.11334,6.01583 41.2575,5.92833 -0.52166,-17.08333 -5.5,-38.61 -5.5,-38.61 0,0 10.24084,0.79917 14.33334,0.79917 4.0925,0 14.33333,-0.79917 14.33333,-0.79917 0,0 -4.97417,21.52917 -5.5,38.60833 10.145,0.0883 24.75,-0.40416 41.2575,-5.92833 0,0 -0.51083,6.92083 -0.51083,14.98417 0,8.06333 0.51083,14.985 0.51083,14.985 -16.5325,-5.5325 -31.155,-6.0175 -41.3025,-5.9275 v 26.975 z"
     fill="#ffffff"
     id="path12"
     style="stroke-width:0.833333" />
  <path
     d="m 224.91667,274.245 c -20.71,0 -31.8025,28.72417 -31.8025,28.72417 a 25.388333,25.388333 0 0 0 -23.05084,-13.62 c -11.4325,0 -19.8575,10.16666 -25.21333,19.58333 20.79917,33.08333 53.98333,53.50583 80.06583,66.0675 26.0875,-12.5625 59.29334,-32.97583 80.09334,-66.0675 -5.35584,-9.41667 -13.78084,-19.58333 -25.21334,-19.58333 a 25.449167,25.449167 0 0 0 -23.0775,13.62 c 0,0 -11.09,-28.72417 -31.80166,-28.72417 z"
     fill="#0b4ea2"
     id="path14"
     style="stroke-width:0.833333" />
</svg>
