<?xml version="1.0" encoding="UTF-8" standalone="no"?>
<svg
   viewBox="0 0 750 500"
   version="1.1"
   id="svg8"
   sodipodi:docname="KOS_landscape.svg"
   inkscape:version="1.2.2 (b0a8486541, 2022-12-01)"
   width="750"
   height="500"
   xmlns:inkscape="http://www.inkscape.org/namespaces/inkscape"
   xmlns:sodipodi="http://sodipodi.sourceforge.net/DTD/sodipodi-0.dtd"
   xmlns="http://www.w3.org/2000/svg"
   xmlns:svg="http://www.w3.org/2000/svg">
  <defs
     id="defs12" />
  <sodipodi:namedview
     id="namedview10"
     pagecolor="#ffffff"
     bordercolor="#000000"
     borderopacity="0.25"
     inkscape:showpageshadow="2"
     inkscape:pageopacity="0.0"
     inkscape:pagecheckerboard="0"
     inkscape:deskcolor="#d1d1d1"
     showgrid="false"
     inkscape:zoom="0.39333333"
     inkscape:cx="420.76271"
     inkscape:cy="300"
     inkscape:window-width="1340"
     inkscape:window-height="1041"
     inkscape:window-x="576"
     inkscape:window-y="0"
     inkscape:window-maximized="1"
     inkscape:current-layer="svg8" />
  <path
     fill="#244aa5"
     d="M 0,0 H 750 V 500 H 0 Z"
     id="path2"
     style="stroke-width:0.862581" />
  <path
     d="m 378.784,158.44583 c 2.92916,3.4175 4.89,6.83334 4.89,10.9875 -2.45917,1.21584 -5.85667,1.71167 -7.8175,3.90834 12.20916,-1.7125 14.64166,12.445 28.315,7.0725 0.49666,1.96083 2.45833,3.6725 4.88916,2.9325 l 1.46417,-3.9 c 5.36,-1.46334 3.89583,7.32083 9.77583,5.60833 2.93084,2.445 0.97,6.58917 2.93084,9.53083 0,3.41167 1.465,6.34 2.9275,9.26834 1.46583,-1.7 2.43333,-4.145 5.85666,-3.4125 2.4325,2.68083 4.39334,5.125 4.8875,8.05333 -0.99166,5.62083 -2.45583,10.49667 3.4,13.425 v 1.71167 c 3.9225,1.7125 12.7075,-1.71167 12.7075,5.125 -0.49833,2.445 2.43084,0.24833 3.42417,1.7125 2.4325,-0.98084 5.85667,-0.48334 8.78417,-0.48334 2.4325,5.125 -2.9275,8.78417 -4.39167,13.425 2.43083,2.4325 1.46417,6.83667 0.9675,9.75167 l -1.465,0.7325 c 3.89583,0.73167 8.78333,-0.47083 12.21,1.725 l 6.35333,2.43167 c 2.9275,-1.69834 6.3275,-1.96 10.24834,-1.69834 2.92833,2.19667 -0.9925,5.85584 1.465,7.55584 3.425,0 6.35333,0.4975 6.82416,3.42583 l 0.49584,0.96667 c 2.4325,-4.3925 9.28166,-1.465 12.21083,-4.62667 4.88833,0 5.855,5.36 8.28667,8.28833 0.99416,7.58084 -8.28667,11.0075 -5.35917,18.5625 -1.96083,3.65917 -5.85667,6.58917 -8.78417,10.01334 0.96667,0.49666 0.47,1.7 0.47,2.43166 -2.92833,1.72584 -0.47,6.85 -4.3925,7.3225 -0.47083,3.18834 -6.3275,1.96 -4.39166,5.38334 3.92,5.125 -1.93584,8.28916 -1.93584,12.9425 -2.45833,2.6925 -7.34666,-2.45834 -7.34666,2.6925 -2.92834,0.73166 -5.85584,-2.69167 -7.79167,0.23666 -0.99167,3.425 1.93583,4.6275 1.465,8.0525 4.86333,-0.4975 6.3275,4.39167 8.28833,7.32084 l 4.88917,4.88833 c -4.88917,3.89583 -11.2425,-0.4975 -17.1,1.69917 -1.46417,-0.73167 0,-2.66667 -1.46417,-3.39834 -1.465,-1.72666 -4.39166,-1.72666 -6.82416,-2.19833 0.47083,2.19833 -3.92084,2.92917 -1.96,5.59583 0,0.73167 0.96666,2.92834 -0.96834,2.92834 -3.92166,1.22916 -3.425,-3.39834 -6.85,-1.7 -4.39166,1.7 -0.96666,8.28916 -7.32,7.55666 0.96667,5.88334 -9.7525,9.77917 -2.4325,14.90334 0.96667,0.96833 0.47084,2.92833 0.47084,4.39166 -4.39334,3.9225 -12.18584,2.45834 -17.07334,0.99334 -3.92166,-0.9925 -1.46416,-5.88167 -2.9275,-8.54834 -1.465,-2.45833 -5.85666,-4.1575 -5.85666,-7.5825 -2.93084,-1.20416 -5.38584,-1.95833 -7.34667,-4.3925 C 409.059,368.64667 400.7465,375 390.9915,375.235 c -4.39167,2.19667 -6.84917,11.00833 -13.67334,7.34583 -2.68,4.39417 -10.74583,0 -11.23,6.32917 -3.17666,1.22833 -1.7125,5.385 -3.66,7.32 -0.7325,4.88833 0,9.045 4.14417,11.975 1.71167,3.65917 -3.66083,3.65917 -1.465,7.08583 0.4975,1.20334 0,2.9275 -0.73167,3.42417 -1.46416,0.73167 -1.9475,1.465 -1.46416,2.92833 -1.21584,0 -1.71084,0.73167 -2.68,1.69917 -1.22917,2.43167 -5.125,3.66 -7.81667,5.36 -2.68083,0.73167 -4.64167,-1.20333 -6.34167,-2.92833 -0.49666,2.6925 -2.69166,4.1575 -5.37166,4.1575 -3.90917,0 -3.17667,-3.425 -6.10584,-4.88917 1.21667,-4.3925 -2.69166,-6.3275 -1.46416,-10.25 3.17583,-2.43083 8.53666,-4.15583 7.0725,-9.28 -3.41167,-4.13167 -2.19584,-10.25 -5.60834,-15.13833 -2.19583,-1.935 -5.85583,-4.8625 -4.64083,-9.51667 3.17667,-3.66 0,-8.0525 -1.71167,-11.94833 -0.73166,-3.18917 -2.68,-6.11667 -2.68,-9.77834 -5.3725,-3.16333 -5.62166,-11.4775 -13.19,-12.20916 -5.3725,0 -6.34,-6.825 -11.71333,-6.35417 -0.49583,-0.96667 -1.71167,-1.69833 -2.69167,-2.66667 -3.89583,2.66667 -8.785,-0.73166 -13.66166,0.47084 -3.17667,-5.36 2.68,-12.68084 -5.86917,-15.87084 v -3.39833 c 0.98083,0.47 1.46417,-0.49833 1.7125,-0.99417 0.48333,-3.66 -6.10583,-4.13083 -3.41167,-8.28833 -1.465,-1.22833 -3.17666,-1.725 -2.19666,-4.15667 -3.6725,-7.55666 -14.65417,-6.82416 -17.09834,-14.40583 1.96,-1.69833 1.96,-3.425 2.69334,-4.88833 -1.71334,-2.92917 -2.19667,-6.0925 -1.71334,-9.25584 1.71334,-0.4975 2.68,-2.6925 3.66084,-4.41916 -2.19667,-1.46334 -4.8775,-3.65917 -7.32167,-2.9275 -4.39167,-0.73167 -7.56917,-4.13084 -11.4775,-6.09167 -0.98,-0.96833 -0.48333,-2.6925 -0.48333,-3.89583 5.3725,-1.72667 -0.73167,-9.295 5.85666,-8.31417 1.71334,-2.19583 5.3725,-2.92833 8.05417,-4.64083 2.69167,-0.48334 4.88833,0.49666 7.56833,1.22916 2.19584,2.91584 6.105,1.7 8.3,4.14334 2.19667,-0.49584 4.89,-1.7125 7.57,-0.49584 0,-4.145 1.94834,-6.58916 4.88834,-9.51833 0.48333,-1.7 3.16416,-2.9275 5.36,-3.89583 4.15833,0.96833 9.03333,0.96833 11.975,-1.96084 1.94833,1.22834 3.66083,-1.215 5.85666,-1.215 2.67917,-0.49666 4.87584,0.235 6.83667,1.46417 0.23583,-4.89 8.78417,-0.73333 10.4975,-6.58917 1.94833,-3.90916 -5.3725,-5.3725 -4.88917,-8.7975 -1.21666,-3.90916 1.7125,-5.85666 3.17584,-8.53666 1.7125,-0.73334 3.66083,-1.7125 5.85666,-1.22917 5.62167,-1.94833 1.22834,-13.425 10.2625,-9.26833 0,1.21666 -0.49666,2.68 0.235,2.92833 3.17667,0 3.66417,-3.66333 5.87,-4.88833 0.96667,-3.41167 -1.22833,-7.56834 1.7,-10.25 1.46417,-0.2475 2.69167,-0.73084 3.66,-1.96 0,-2.68 -1.46416,-4.14334 -3.66083,-5.85667 -0.73167,1.22 -2.68,0.24833 -3.905,0.73333 0,-2.92916 -1.70333,-4.87666 -2.2,-7.57 -1.46417,-0.73166 -2.19583,-1.9475 -1.7,-3.66083 2.19667,-2.19583 0,-7.56833 5.125,-6.35 1.94833,-1.7025 5.3725,-0.48667 7.32083,-3.41583 5.125,-2.9275 11.96084,-2.9275 15.87,-8.3 1.7125,0.2475 3.66084,-1.46417 5.3725,0 0.485,3.175 5.12584,1.94666 5.12584,4.88166"
     fill="#d0a650"
     id="path4"
     style="stroke-width:0.833333" />
  <path
     d="m 416.58316,92.25 -6.75,-20.75 -6.66666,20.75 h -21.83334 l 17.66667,12.83333 -6.75,20.75 L 409.83316,113 l 17.66667,12.83333 -6.75,-20.75 L 438.4165,92.25 Z m 68.66667,12.08333 -6.75,-20.666663 -6.66667,20.666663 h -21.83333 l 17.66667,12.83334 -6.75,20.75 17.58333,-12.83334 17.66667,12.83334 -6.75,-20.75 17.66666,-12.83334 z m 65.5,23.83334 -6.66667,-20.66667 -6.75,20.66667 H 515.49983 L 533.1665,141 l -6.75,20.75 17.66666,-12.83333 17.58334,12.83333 -6.75,-20.75 17.66666,-12.83333 z M 346.83316,92.25 340.1665,71.5 l -6.75,20.75 h -21.83334 l 17.66667,12.83333 -6.75,20.75 L 340.1665,113 l 17.58333,12.83333 -6.75,-20.75 L 368.6665,92.25 Z m -68.66666,12.08333 -6.66667,-20.666663 -6.75,20.666663 H 242.9165 l 17.66666,12.83334 -6.75,20.75 17.66667,-12.83334 17.58333,12.83334 -6.75,-20.75 17.66667,-12.83334 z m -65.5,23.83334 -6.75,-20.66667 -6.66667,20.66667 H 177.4165 L 195.08316,141 l -6.75,20.75 17.58334,-12.83333 17.66666,12.83333 -6.75,-20.75 17.66667,-12.83333 z"
     fill="#ffffff"
     id="path6"
     style="stroke-width:0.833333" />
</svg>
