<?xml version="1.0" encoding="UTF-8" standalone="no"?>
<svg
   viewBox="0 0 750 500"
   version="1.1"
   id="svg59"
   sodipodi:docname="MLT_landscape.svg"
   inkscape:version="1.2.2 (b0a8486541, 2022-12-01)"
   width="750"
   height="500"
   xmlns:inkscape="http://www.inkscape.org/namespaces/inkscape"
   xmlns:sodipodi="http://sodipodi.sourceforge.net/DTD/sodipodi-0.dtd"
   xmlns:xlink="http://www.w3.org/1999/xlink"
   xmlns="http://www.w3.org/2000/svg"
   xmlns:svg="http://www.w3.org/2000/svg">
  <defs
     id="defs63" />
  <sodipodi:namedview
     id="namedview61"
     pagecolor="#ffffff"
     bordercolor="#000000"
     borderopacity="0.25"
     inkscape:showpageshadow="2"
     inkscape:pageopacity="0.0"
     inkscape:pagecheckerboard="0"
     inkscape:deskcolor="#d1d1d1"
     showgrid="false"
     inkscape:zoom="0.39333333"
     inkscape:cx="451.27119"
     inkscape:cy="294.91525"
     inkscape:window-width="1340"
     inkscape:window-height="1041"
     inkscape:window-x="576"
     inkscape:window-y="0"
     inkscape:window-maximized="1"
     inkscape:current-layer="svg59" />
  <path
     fill="#c8102e"
     d="M 0,0 H 750 V 500 H 0 Z"
     id="path2"
     style="stroke-width:0.833333" />
  <path
     fill="#ffffff"
     d="M 0,0 H 375 V 500 H 0 Z"
     id="path4"
     style="stroke-width:0.833333" />
  <path
     fill="#c8102e"
     d="M 18.518333,69.023333 V 106.90417 H 56.3975 c 0,6.31166 6.313333,12.62583 12.626667,12.62583 v 37.87833 H 106.90083 V 119.53 c 6.31334,0 12.62667,-6.31417 12.62667,-12.62583 h 37.87917 V 69.023333 H 119.5275 c 0,-6.311666 -6.31333,-12.625833 -12.62667,-12.625833 V 18.519167 H 69.024167 V 56.3975 c -6.313334,0 -12.626667,6.314167 -12.626667,12.625833 z"
     id="path6"
     style="stroke-width:0.833333" />
  <path
     fill="#96877d"
     d="m 21.045,71.5475 v 32.83083 h 37.876667 c 0,6.31167 6.313333,12.625 12.626666,12.625 v 37.87834 H 104.375 v -37.87834 c 6.31333,0 12.62667,-6.31416 12.62667,-12.625 h 37.87666 V 71.5475 h -37.87666 c 0,-6.311667 -6.31334,-12.625833 -12.62667,-12.625833 V 21.043333 H 71.548333 v 37.878334 c -6.313333,0 -12.626666,6.314166 -12.626666,12.625833 z"
     id="path8"
     style="stroke-width:0.833333" />
  <path
     fill="#cccccc"
     d="M 22.308333,72.810833 V 103.11417 H 60.185 c 0,6.31166 6.313333,12.6275 12.626667,12.6275 V 153.62 h 30.301663 v -37.87833 c 6.31334,0 12.62667,-6.31667 12.62667,-12.6275 h 37.87667 V 72.810833 H 115.74 c 0,-6.311666 -6.31333,-12.625 -12.62667,-12.625 V 22.3075 H 72.811667 V 60.185833 C 66.498333,60.185833 60.185,66.5 60.185,72.810833 Z"
     id="path10"
     style="stroke-width:0.833333" />
  <g
     id="a"
     fill="#d0d0d0"
     transform="scale(0.83333333)">
    <path
       fill="#96877d"
       d="m 84.536,71.681 c 2.663,2.663 1.943,7.7 -1.607,11.25 -3.55,3.55 -8.587,4.27 -11.25,1.607 -2.662,-2.662 -1.942,-7.7 1.608,-11.25 3.55,-3.55 8.587,-4.27 11.249,-1.607 z"
       id="path12" />
    <path
       d="m 71.143,79.715 1.071,-1.072 4.286,2.142 -2.143,-4.285 1.071,-1.072 4.286,8.57 -8.571,-4.285 z m 6.429,-6.428 1.071,-1.071 6.429,6.428 L 84,79.715 Z"
       id="path14" />
  </g>
  <use
     xlink:href="#a"
     transform="rotate(90,87.9625,87.964167)"
     id="use17" />
  <use
     xlink:href="#a"
     transform="rotate(180,87.9625,87.964167)"
     id="use19" />
  <use
     xlink:href="#a"
     transform="rotate(-90,87.9625,87.964167)"
     id="use21" />
  <g
     fill="none"
     stroke="#96877d"
     stroke-width="0.514"
     id="g27"
     transform="scale(0.83333333)">
    <circle
       cx="105.555"
       cy="105.557"
       r="31.822001"
       id="circle23" />
    <circle
       cx="105.555"
       cy="105.557"
       r="24.245001"
       id="circle25" />
  </g>
  <circle
     cx="77.861664"
     cy="109.425"
     r="1.2625"
     id="circle29"
     style="stroke-width:0.833333" />
  <circle
     cx="98.0625"
     cy="109.425"
     r="1.2625"
     id="circle31"
     style="stroke-width:0.833333" />
  <path
     d="m 87.125,109.425 v 1.31667 h -1.683333 c -1.683334,0 -1.683334,1.31666 0,1.31666 H 87.125 v 1.31667 c 0.0058,1.36333 1.469167,1.52917 1.576667,0.11417 l 0.106666,-1.42334 h 1.683334 c 1.683333,0 1.683333,-1.31666 0,-1.31666 h -1.683334 v -1.31667 c 0,-1.31667 -1.683333,-1.31667 -1.683333,0 z M 63.295,94.5 65.031667,94.085833 64.84,93.281667 c -0.04417,-0.185 -0.116667,-0.31 -0.219167,-0.376667 -0.101666,-0.06667 -0.276666,-0.085 -0.525,-0.05583 l -0.02833,-0.120834 1.495,-0.355833 0.02917,0.12 C 65.42,92.535833 65.3,92.588333 65.229167,92.65 a 0.43416667,0.43416667 0 0 0 -0.138334,0.218333 c -0.0225,0.085 -0.01667,0.200834 0.01917,0.348334 l 0.191667,0.805 1.3875,-0.330834 c 0.224163,-0.05333 0.36833,-0.1025 0.43333,-0.148333 a 0.3,0.3 0 0 0 0.1075,-0.17 0.635,0.635 0 0 0 0.0067,-0.318333 L 67.19837,92.895 l 0.120834,-0.02917 0.451666,1.895834 -0.12,0.02917 -0.0375,-0.156666 C 67.57,94.451667 67.485,94.331667 67.359167,94.275 c -0.0825,-0.03583 -0.255834,-0.02167 -0.520834,0.04167 l -2.853333,0.68 c -0.224167,0.05333 -0.368333,0.1025 -0.433333,0.1475 a 0.30166667,0.30166667 0 0 0 -0.108334,0.166666 0.6225,0.6225 0 0 0 -0.0067,0.319167 l 0.0375,0.155833 -0.1208,0.02916 -0.783333,-3.286667 0.960833,-0.274166 0.02667,0.114166 c -0.1925,0.105834 -0.328333,0.2075 -0.4075,0.305 a 0.66583333,0.66583333 0 0 0 -0.144167,0.3275 c -0.01667,0.12 0.0017,0.295 0.05667,0.525 l 0.2325,0.975 z m -1.118333,-7.835 c 0.03333,-0.588333 0.285,-1.085833 0.756666,-1.491667 0.470834,-0.406666 1.041667,-0.590833 1.71,-0.553333 0.688334,0.03917 1.248334,0.288333 1.678334,0.749167 0.43,0.46 0.628333,0.999166 0.593333,1.616666 -0.035,0.624167 -0.286667,1.135834 -0.754167,1.535834 -0.4675,0.4 -1.053333,0.579166 -1.758333,0.539166 -0.719167,-0.04 -1.293333,-0.318333 -1.72,-0.834166 A 2.1733333,2.1733333 0 0 1 62.176667,86.665 Z m 0.24,0.0775 c -0.0225,0.405833 0.11,0.739167 0.396666,1.001667 0.3575,0.326666 0.8975,0.51 1.619167,0.55 0.74,0.04167 1.318333,-0.08333 1.735833,-0.378334 a 1.175,1.175 0 0 0 0.508334,-0.936666 1.3183333,1.3183333 0 0 0 -0.438334,-1.083334 C 65.921667,85.6 65.405,85.431667 64.69,85.390833 63.915,85.3475 63.3275,85.4675 62.929167,85.751667 62.6125,85.979167 62.441667,86.31 62.416667,86.7425 Z M 68.995,78.45 68.564167,79.583333 66.0325,80.264167 a 7.3375,7.3375 0 0 1 -0.1275,0.349166 3.5425,3.5425 0 0 1 -0.04167,0.095 l 1.233334,0.469167 c 0.266666,0.101667 0.444166,0.135833 0.530833,0.101667 C 67.75,81.235 67.840833,81.133333 67.901667,80.975 l 0.0625,-0.165833 0.116666,0.04417 -0.6925,1.818334 -0.116666,-0.04417 0.06083,-0.159167 c 0.06833,-0.18 0.05917,-0.33 -0.02833,-0.451666 -0.04833,-0.06833 -0.193334,-0.149167 -0.435,-0.241667 L 64.1275,80.731667 C 63.860833,80.63 63.683333,80.595833 63.596667,80.63 c -0.123334,0.04667 -0.215,0.15 -0.275834,0.310833 L 63.26,81.1 63.143333,81.055833 63.7325,79.51 c 0.171667,-0.45 0.330833,-0.770833 0.478333,-0.959167 0.146667,-0.189166 0.336667,-0.325 0.57,-0.406666 0.233334,-0.08167 0.471667,-0.07667 0.716667,0.01667 0.26,0.09917 0.454167,0.27 0.581667,0.513334 0.126666,0.243333 0.1625,0.558333 0.105833,0.945 l 1.550833,-0.4125 c 0.355834,-0.09417 0.6075,-0.195834 0.754167,-0.304167 0.146667,-0.109167 0.276667,-0.275 0.389167,-0.496667 L 68.995833,78.45 Z m -3.328333,2.183333 a 3.15,3.15 0 0 1 0.07,-0.174166 c 0.153333,-0.405 0.1825,-0.743334 0.085,-1.015834 A 0.9,0.9 0 0 0 65.269167,78.88 c -0.265,-0.1 -0.511667,-0.1 -0.740834,0.0033 -0.229166,0.1025 -0.395833,0.290834 -0.5,0.564167 -0.04583,0.120833 -0.08833,0.291667 -0.1275,0.513333 z M 75.33,65.589167 l 0.8775,1.139166 -0.09833,0.06417 c -0.293337,-0.235836 -0.568337,-0.378336 -0.82417,-0.428336 -0.368333,-0.0725 -0.730833,0.0067 -1.086667,0.2375 -0.485833,0.314166 -0.730833,0.745 -0.735,1.293333 -0.0017,0.461667 0.1425,0.915833 0.433334,1.364167 0.235,0.363333 0.52,0.65 0.855,0.858333 0.334166,0.208333 0.660833,0.308333 0.979166,0.300833 a 1.5775,1.5775 0 0 0 0.836667,-0.244166 1.8458333,1.8458333 0 0 0 0.65,-0.720834 L 76.504167,68.351667 C 76.380833,68.16 76.285,68.044167 76.2175,68.004167 a 0.35,0.35 0 0 0 -0.221667,-0.0475 c -0.08083,0.0083 -0.198333,0.0625 -0.3525,0.1625 l -0.06917,-0.1075 1.475833,-0.955834 0.06917,0.1075 -0.07,0.045 c -0.145834,0.095 -0.215,0.208334 -0.205834,0.341667 0.0075,0.09333 0.07667,0.241667 0.209167,0.446667 l 0.755833,1.166666 a 3.4025,3.4025 0 0 1 -0.4725,0.668334 c -0.175,0.190833 -0.390833,0.369166 -0.6475,0.535 C 75.9525,70.843333 75.24,70.97 74.551667,70.745 A 2.2541667,2.2541667 0 0 1 73.3275,69.798333 2.4416667,2.4416667 0 0 1 72.945,68.6775 2.4583333,2.4583333 0 0 1 73.186667,67.324167 c 0.173333,-0.343334 0.45,-0.638334 0.830833,-0.885 0.138333,-0.09 0.271667,-0.16 0.4,-0.210834 0.1275,-0.05167 0.32,-0.105833 0.578333,-0.163333 A 0.93333333,0.93333333 0 0 0 75.245,65.9875 0.13333333,0.13333333 0 0 0 75.30417,65.879167 c 0.0042,-0.05 -0.0225,-0.123334 -0.07833,-0.2225 z m 7.394167,0.511666 -1.699167,0.4525 -0.113333,0.771667 c -0.02833,0.19 -0.03083,0.326667 -0.0083,0.410833 0.0175,0.06667 0.065,0.116667 0.141667,0.150834 0.07667,0.03417 0.224167,0.03 0.439167,-0.01083 l 0.03167,0.12 -1.381666,0.366667 -0.03167,-0.119167 c 0.175,-0.08083 0.2825,-0.155 0.3225,-0.220833 0.0825,-0.133333 0.148333,-0.375 0.1975,-0.728333 l 0.583333,-4.0225 0.113334,-0.03 2.498333,3.244166 c 0.201667,0.260834 0.363333,0.421667 0.4875,0.4825 0.123333,0.06083 0.275833,0.0725 0.458333,0.03583 l 0.03167,0.12 -1.731667,0.46 -0.03167,-0.12 c 0.1725,-0.055 0.283333,-0.115 0.330833,-0.181667 a 0.23333333,0.23333333 0 0 0 0.04417,-0.205833 c -0.025,-0.09417 -0.108334,-0.233334 -0.249167,-0.415 z M 82.57,65.885833 81.353333,64.31 81.061667,66.286667 Z m 8.0175,-0.02333 0.109167,0.0275 -0.435834,1.216667 -3.513333,-0.1375 0.005,-0.123334 0.17,0.0067 c 0.191667,0.0075 0.331667,-0.05 0.419167,-0.171667 0.05,-0.06917 0.07917,-0.233333 0.09,-0.491666 L 87.545,63.26 c 0.01083,-0.283333 -0.01333,-0.461667 -0.0725,-0.535 -0.08333,-0.101667 -0.210833,-0.155833 -0.383333,-0.1625 l -0.17,-0.0067 0.005,-0.124166 2.055,0.08 -0.005,0.124166 c -0.241667,-0.01167 -0.410834,0.0042 -0.51,0.04667 a 0.40916667,0.40916667 0 0 0 -0.205834,0.17 c -0.03833,0.07 -0.06333,0.24 -0.07333,0.51 l -0.110833,2.850833 c -0.0083,0.185 0.0058,0.313334 0.03833,0.383334 0.025,0.04833 0.065,0.08417 0.12,0.108333 0.055,0.025 0.228333,0.04333 0.520833,0.05417 l 0.330834,0.01333 C 89.4325,66.785833 89.6775,66.77 89.82,66.724167 a 0.95833333,0.95833333 0 0 0 0.395833,-0.258334 c 0.120834,-0.125833 0.245,-0.3275 0.371667,-0.603333 z m 6.0475,1.618333 0.0975,0.05667 -0.755833,1.048333 -3.338334,-1.104166 0.03917,-0.1175 0.161667,0.05333 c 0.183333,0.06 0.3325,0.04417 0.45,-0.04833 0.06667,-0.05333 0.141666,-0.203334 0.2225,-0.449167 l 0.92,-2.781667 c 0.08917,-0.269166 0.115,-0.4475 0.07833,-0.535 C 94.458333,63.4825 94.350833,63.395 94.1875,63.341667 l -0.1625,-0.05417 0.03917,-0.1175 1.9525,0.645833 -0.03917,0.116667 c -0.228333,-0.07667 -0.395833,-0.108333 -0.5025,-0.095 A 0.41,0.41 0 0 0 95.23,63.94333 C 95.17333,64 95.103333,64.156664 95.018333,64.41333 L 94.1225,67.121667 c -0.05833,0.176666 -0.08167,0.303333 -0.06917,0.38 a 0.23916667,0.23916667 0 0 0 0.085,0.1375 c 0.04583,0.03833 0.208334,0.104166 0.485834,0.195833 l 0.314166,0.104167 c 0.330834,0.108333 0.570834,0.161666 0.720834,0.156666 0.15,-0.0042 0.3,-0.05 0.451666,-0.138333 0.150834,-0.0875 0.325834,-0.246667 0.525,-0.476667 z m 4.87417,2.580834 -1.435,-1.015834 -0.665837,0.406667 c -0.163333,0.1 -0.270833,0.185833 -0.320833,0.256667 -0.04,0.05667 -0.04833,0.125 -0.025,0.206666 0.02333,0.08083 0.12,0.190834 0.289167,0.33 L 99.28,70.346667 98.113333,69.520833 98.185,69.419167 c 0.174167,0.08333 0.3,0.118333 0.375833,0.106666 0.155,-0.02167 0.383334,-0.126666 0.685834,-0.314166 l 3.463333,-2.128334 0.0958,0.06833 -0.89166,3.996666 c -0.0717,0.320834 -0.0917,0.548334 -0.0592,0.6825 0.0325,0.133334 0.12083,0.258334 0.26667,0.375 l -0.0725,0.100834 -1.4625,-1.035 0.0717,-0.100834 c 0.15334,0.09667 0.27,0.1425 0.35167,0.1375 a 0.23333333,0.23333333 0 0 0 0.18667,-0.0975 c 0.0567,-0.08 0.11,-0.233333 0.15916,-0.4575 z m 0.0667,-0.256667 0.43167,-1.9425 -1.70583,1.041667 z m 5.38584,0.9925 0.73333,0.99 -1.08333,4.258333 2.10416,-1.558333 c 0.225,-0.166667 0.34584,-0.295833 0.36417,-0.3875 0.0258,-0.121667 -0.0142,-0.255 -0.12,-0.398333 l -0.0942,-0.126667 0.1,-0.07333 0.94167,1.27 -0.1,0.07333 -0.0958,-0.129167 c -0.11417,-0.154166 -0.24167,-0.229166 -0.38334,-0.225 -0.0867,0.0042 -0.2325,0.08083 -0.43666,0.233334 l -3.075,2.279166 -0.0725,-0.0975 1.15583,-4.583333 -2.24667,1.665833 c -0.225,0.166667 -0.34666,0.294167 -0.36666,0.383334 -0.025,0.125 0.0158,0.2575 0.12083,0.399166 l 0.0958,0.129167 -0.1,0.07333 -0.94083,-1.27 0.1,-0.07333 0.0933,0.125833 c 0.11584,0.156667 0.24417,0.2325 0.385,0.2275 0.0867,-0.0033 0.2325,-0.08 0.43667,-0.231666 l 2.5375,-1.880834 a 2.1833333,2.1833333 0 0 0 0.0667,-0.4225 c -0.002,-0.08333 -0.025,-0.191666 -0.0683,-0.3225 a 1.0666667,1.0666667 0 0 0 -0.15166,-0.254166 z m 5.725,10.551667 -0.98667,0.4025 -0.0417,-0.12 c 0.1675,-0.08583 0.28334,-0.161667 0.345,-0.228334 a 0.6725,0.6725 0 0 0 0.1775,-0.355833 0.96,0.96 0 0 0 -0.0642,-0.458333 l -0.21417,-0.603334 -3.27083,1.156667 c -0.2625,0.09333 -0.41667,0.18 -0.46167,0.26 -0.0608,0.110833 -0.0608,0.25 -0.002,0.416667 l 0.0517,0.1475 -0.11667,0.04167 -0.64166,-1.815 0.11666,-0.04167 0.0533,0.151666 c 0.0642,0.180834 0.16416,0.29 0.3,0.326667 0.0842,0.0225 0.24583,-0.0083 0.48583,-0.09333 l 3.27083,-1.1575 -0.18166,-0.514167 c -0.0708,-0.2 -0.13584,-0.3375 -0.195,-0.410833 a 0.62083333,0.62083333 0 0 0 -0.33,-0.2 c -0.14167,-0.0375 -0.31084,-0.02917 -0.51,0.025 l -0.0417,-0.12 1.02083,-0.305 1.23667,3.495 z m -3.59417,8.055 -0.0625,-1.210834 2.04,-1.645 A 7.395,7.395 0 0 1 111.045,86.1775 v -0.104167 l -1.31667,0.06833 c -0.28583,0.015 -0.46166,0.055 -0.5275,0.121666 -0.0942,0.08917 -0.13666,0.219167 -0.1275,0.388334 l 0.009,0.1775 -0.12333,0.0067 -0.10167,-1.943333 0.12417,-0.0067 0.008,0.170834 c 0.0108,0.191666 0.08,0.325 0.20833,0.401666 0.0725,0.04333 0.2375,0.05833 0.49584,0.045 l 2.93,-0.1525 c 0.285,-0.015 0.46083,-0.05583 0.52666,-0.121666 0.0942,-0.09167 0.13584,-0.223334 0.1275,-0.395834 l -0.009,-0.17 0.12416,-0.0067 0.0858,1.651666 c 0.025,0.481667 0.008,0.839167 -0.05,1.070834 -0.0583,0.2325 -0.17834,0.433333 -0.35834,0.6025 -0.18,0.169166 -0.4,0.26 -0.66083,0.274166 a 1.06,1.06 0 0 1 -0.74,-0.235 c -0.215,-0.170833 -0.375,-0.445 -0.47917,-0.821666 l -1.2525,1.004166 c -0.2875,0.229167 -0.47583,0.423334 -0.56666,0.5825 -0.0908,0.159167 -0.14167,0.3625 -0.15584,0.611667 z m 2.16333,-3.341667 c 0.002,0.04167 0.003,0.07917 0.004,0.11 l 0.002,0.0775 c 0.0225,0.4325 0.13333,0.753333 0.3325,0.963333 0.19833,0.21 0.4425,0.3075 0.7325,0.291667 0.28333,-0.01417 0.50833,-0.115 0.67667,-0.300833 0.16833,-0.186667 0.24416,-0.425834 0.22916,-0.718334 a 2.9491667,2.9491667 0 0 0 -0.0908,-0.521666 l -1.88583,0.09833 z m 1.24584,9.341667 -0.4025,1.531666 -0.12,-0.03083 0.0225,-0.08417 c 0.015,-0.05667 0.0117,-0.145 -0.01,-0.266666 -0.0217,-0.121667 -0.0667,-0.2375 -0.13667,-0.35 A 3.0141667,3.0141667 0 0 0 111.4875,95.7575 l -1.39,-1.496667 -1.10167,-0.289166 c -0.27,-0.07083 -0.44666,-0.085 -0.52916,-0.04167 -0.1125,0.05833 -0.19167,0.175 -0.23834,0.3525 l -0.0375,0.1425 -0.11916,-0.03083 0.48916,-1.866667 0.12,0.03167 -0.0417,0.155833 c -0.0483,0.185833 -0.0267,0.3325 0.0658,0.439167 0.0567,0.06667 0.20833,0.130833 0.45417,0.195833 l 1.03916,0.2725 L 112.355,92.9 c 0.25333,-0.08583 0.41333,-0.146667 0.48083,-0.183333 0.0667,-0.03667 0.16,-0.125 0.2775,-0.265 A 0.44583333,0.44583333 0 0 0 113.195,92.2725 l 0.11917,0.03167 -0.4925,1.878333 -0.12,-0.03083 0.025,-0.0975 A 0.58916667,0.58916667 0 0 0 112.73,93.755 0.23833333,0.23833333 0 0 0 112.54917,93.571667 c -0.0775,-0.02083 -0.235,0.0083 -0.4725,0.08667 l -1.65667,0.545 1.12833,1.216667 c 0.16917,0.183333 0.30334,0.2875 0.4025,0.314167 a 0.3,0.3 0 0 0 0.32167,-0.11 0.67416667,0.67416667 0 0 0 0.10833,-0.251667 z"
     id="path33"
     style="stroke-width:0.833333" />
  <g
     fill="#96877d"
     stroke="#000000"
     stroke-width="0.203"
     id="g57"
     transform="scale(0.83333333)">
    <path
       d="m 122.85,110.19 c 0.532,-0.135 1.41,-0.026 1.41,-0.026 0,0 0.076,0.365 -0.155,0.487 0.257,0.148 1.18,0.103 1.18,0.103 0,0 -0.36,0.275 -0.539,0.384 0.333,0.032 0.743,0.461 0.743,0.461 0,0 -0.769,0.128 -1.102,-0.051 0.205,0.41 0.18,0.769 0.18,0.769 0,0 -1.243,-0.308 -1.691,-1.128 m -2.106,-1.699 c -0.301,0.743 -2.51,-0.64 -2.51,-0.64 0,0 0.973,1.543 2.433,1.716 M 93.181,123.66 h 25.877 l 1.998,-1.589 -3.33,-1.793 -5.125,-1.742 -2.05,-1.127 -3.791,0.204 -3.177,1.691 -4.356,0.513 -1.025,1.178 -3.228,0.257 -5.073,-0.103 8.455,1.333 -6.969,-0.36 z"
       id="path35" />
    <path
       d="m 107.12,116.23 c -3.241,-1.742 -4.189,2.55 -5.585,3.587 1.883,0.32 3.305,-1.448 4.919,-2.306 1.224,3.333 3.151,1.127 3.151,1.127 0,0 2.011,3.19 4.689,1.743 0.73,0.55 1.537,0.05 1.537,0.05 0,0 0.974,0.18 1.179,-0.256 0.512,0.18 1.076,-0.46 1.076,-0.46 0,0 1.114,0.012 1.332,-0.564 1.653,0.294 3.843,-3.382 3.843,-3.382 l 0.666,-1.281 0.974,-0.205 c 0,0 0.064,-0.64 -0.461,-0.615 -0.013,-0.385 -0.346,-0.59 -0.82,-0.513 0.09,-0.23 -0.256,-0.41 -0.256,-0.41 -0.923,0.231 -0.974,2.563 -0.974,2.563 0,0 -1.614,1.23 -2.203,1.537 -0.026,-1.333 -2.255,-3.139 -1.794,-3.997 0.461,-0.858 1.909,1.32 3.177,0.922 1.268,-0.397 1.891,-2.047 1.947,-3.33 -0.358,-0.872 -1.23,-2.306 -1.23,-2.306 l -0.82,-0.052 -0.717,-1.742 c 0,0 -1.511,0.987 -1.486,1.845 0.026,0.858 1.589,1.588 1.589,1.588 0,0 -0.901,0.564 -1.742,0.308 -0.077,0.87 1.024,0.704 1.434,0.717 0.205,0.628 0.82,0.974 0.82,0.974 0,0 0.385,0.96 -0.615,0.87 -0.999,-0.089 -2.178,-2.391 -3.587,-1.331 -1.498,1.127 0.667,3.177 0.667,3.177 0,0 -1.32,0.691 -2.101,2.46 -3.19,-2.691 -5.06,-1.436 -8.609,-0.718 z"
       id="path37" />
    <path
       d="m 102.46,111.67 c 1.332,1.255 0.403,3.342 0.922,3.74 0.551,0.423 1.333,-0.204 1.333,-0.204 1.396,0.371 3.894,-0.41 3.894,-0.41 1.1,0.615 0.665,-0.293 1.332,-0.256 0.59,1.511 2.562,1.23 2.562,1.23 0,0 -1.806,-1.845 -2.92,-2.358 -0.859,0.513 -3.357,0.59 -3.792,0.513 -0.486,-0.086 -0.18,-0.68 -0.41,-1.025 0.918,-0.894 0.192,-3.113 -0.308,-3.946 -2.036,-1.356 -4.468,0.968 -2.613,2.716 z m -8.861,-3.75 c -1.676,0.453 -4.583,-2.165 -5.942,-1.16 -1.359,1.005 -0.725,3.479 0.18,4.71 0.886,1.205 -1.294,1.64 -1.883,2.356 -0.554,0.673 0.18,1.45 0.18,1.45 l 0.617,0.398 -0.109,0.906 0.326,1.087 c 0,0 0.3,0.262 0.399,-0.073 0.28,0.281 0.03,1.093 0.725,1.196 -0.25,-0.52 0.18,-1.957 0.18,-1.957 0,0 1.215,0.091 1.523,-0.434 0.307,-0.526 -0.29,-1.667 -0.29,-1.667 h 0.362 c -0.408,-0.28 -0.544,-1.123 -0.544,-1.123 0,0 1.685,-0.535 1.667,-1.812 -0.018,-1.277 -2.735,-2.636 -1.739,-3.297 1.105,-0.734 3.025,1.902 4.674,0.688 1.632,-1.201 0.58,-0.036 0.58,-0.036 0,0 0.746,-1.678 -0.906,-1.232 z m 8.651,-17.949 c -2.242,-0.935 -6.822,-0.993 -9.377,-2.255 -1.121,0.07 -1.62,0.955 -1.666,1.307 -1.172,-0.058 -1.966,1.787 -1.793,2.152 -2.133,-0.864 -3.126,2.511 -2.434,3.203 -1.82,0.077 -1.595,2.402 -1.768,3.049 -0.583,1.415 0.13,1.892 1.281,1.383 0.173,0.615 -0.07,0.96 -0.59,1.076 3.158,3.614 4.943,-2.223 7.713,-2.203 3.458,-1.012 4.816,-2.716 4.816,-2.716 l 1.358,0.18 z"
       id="path39" />
    <circle
       cx="105.145"
       cy="87.384003"
       r="3.3050001"
       id="circle41" />
    <path
       d="m 99.33,113.41 c -2.05,-0.372 -5.444,-2.498 -5.79,-5.278 1.908,-7.494 11.755,-3.58 12.604,-9.217 -0.217,-3.719 0.45,-7.4 2.512,-10.511 0.96,-1.217 2.203,-1.537 2.203,-1.537 0,0 0.223,0.793 -0.102,1.332 1.626,-0.18 3.856,0.73 5.38,0.82 0.448,0.91 0.41,1.242 0.307,1.793 -0.102,0.551 -0.717,0.41 -0.717,0.41 -0.398,0.377 -0.876,0.761 -1.947,0.564 -0.807,0.615 -2.511,0.768 -2.511,0.768 0,0 3.561,3.754 2.972,4.92 0.743,0.345 1.845,1.998 1.845,1.998 0,0 2.434,-1.281 3.228,-2.46 1.41,0 3.715,1.474 4.868,1.64 1.41,1.14 2.818,2.306 2.818,2.306 0,0 -1.678,1.102 -2.408,-0.359 -0.884,0.077 -2.793,-2.037 -5.432,-1.383 -0.077,2.344 -2.664,3.997 -2.664,3.997 0,0 2.415,-0.338 3.74,0.46 a 139.033,139.033 0 0 0 3.382,2.717 l 1.794,3.074 c 0,0 -1.64,0.282 -2.255,-1.845 -0.615,1.717 -0.64,-1.063 -3.074,-2.357 -0.743,0.09 -1.115,0.141 -1.743,-0.358 -1.755,0.474 -3.83,1.498 -6.302,1.23 -1.755,0.55 -3.037,2.01 -4.817,2.818 -1.78,0.807 -2.306,0.41 -2.306,0.41 l -1.435,0.05 c -0.207,0.865 -0.09,2.179 -0.87,2.41 0.499,0.537 -0.36,2.83 -1.23,3.227 0.41,1.474 1.61,1.925 2.869,2.665 0,0 1.114,-0.512 1.844,0.154 0.73,0.666 1.486,2.562 1.486,2.562 0,0 -1.52,0.103 -1.998,-0.103 -0.479,-0.205 -0.525,-0.704 -1.076,-0.563 -3.472,-3.088 -5.302,-1.86 -5.637,-2.562 -0.342,-0.72 0.82,-2.6 0.462,-3.792 z"
       id="path43" />
    <path
       d="m 90.99,99.655 c 0.181,-0.226 1.45,0.254 1.45,0.254 l 2.318,1.449 4.71,3.044 1.667,2.427 -3.007,-0.978 -4.167,-3.587 -2.246,-1.45 c 0,0 -0.906,-0.933 -0.725,-1.16 z m 27.86,7.715 c -1.627,-0.41 -5.637,4.458 -5.637,4.458 l 3.024,3.28 c 0,0 0.09,-5.586 2.613,-7.738 z"
       id="path45" />
    <path
       d="m 99.023,93.789 c -0.887,1.137 -0.967,3.429 0.188,4.353 0.108,1.391 1.291,4.197 2.22,4.46 1.016,0.288 5.073,1.23 6.662,0.974 -0.304,2.575 1.716,4.641 3.587,5.995 -0.014,0.232 -0.017,0.514 0.199,0.8 0.21,0.276 1.192,0.326 1.235,0.174 0.436,0.613 2.548,0.882 2.7,0.609 0.15,-0.266 -3.105,-2.53 -3.827,-3.222 -0.613,-1.144 -1.775,-3.694 -2.05,-5.74 -1.597,-1.9 -4.34,-1.862 -4.34,-1.862 l 0.087,-3.723 0.154,-4.202 -1.486,-0.768 c 0,0 0.3,-0.137 0.461,-0.308 0.361,0.156 1.04,-0.57 1.128,-0.774 0.341,0.12 0.65,0.12 0.71,-0.064 0.054,-0.16 0.115,-0.879 0.24,-1.25 1.12,-0.987 -0.164,-3.08 -1.878,-3.114 -1.697,-0.035 -2.077,2.023 -2.044,2.18 0.159,0.645 0.125,0.97 0,1.126 -0.128,0.16 -0.718,0.513 -0.718,0.513 0,0 -0.948,-0.449 -2.1,0 -1.152,0.449 -2.448,1.05 -2.512,1.793 -0.525,0.077 -1.383,0.756 -1.537,1.333 -0.461,-0.09 -1.063,0.294 -2.05,1.896 -1.767,0.781 -1.87,4.56 -1.87,4.56 0,0 -0.477,0.695 -0.5,1.063 -0.022,0.369 0.167,0.705 0.398,0.64 0.025,0.244 0.346,0.462 0.486,0.385 0.052,0.244 0.403,0.38 0.615,0.346 0.02,0.167 0.702,0.125 0.756,-0.026 0.06,-0.166 -0.067,-0.996 0.013,-1.063 0.074,-0.06 0.64,0.372 0.794,0.256 0.154,-0.115 -0.03,-0.484 -0.115,-0.627 -0.077,-0.128 -0.564,-0.27 -0.679,-0.871 -0.115,-0.601 0.307,-1.435 0.307,-1.435 0,0 1.922,-1.512 2.14,-2.806 1.447,0.141 2.213,-1.124 2.626,-1.601 z"
       id="path47" />
    <path
       d="m 95.679,88.37 c 0.439,-1.073 2.024,-0.974 2.024,-0.974 0,0 0.567,-1.492 2.703,-0.602 0.804,-0.621 2.92,0.27 2.92,0.27 0,0 0.794,-1.057 1.833,-0.936 1.925,0.224 2.245,1.989 2.126,2.293 -1.053,0.266 -2.879,-0.856 -4.266,-0.538 -0.81,0.458 -2.123,0.942 -2.613,1.602 -1.284,0.134 -2.655,-1.182 -4.727,-1.115 z m 4.01,1.781 c 0.48,-0.295 1.659,-0.813 2.46,-0.18 0.839,0.904 2.126,1.743 2.126,1.743 l 1.46,0.615 0.667,0.41 -0.436,6.687 c -1.352,-1.383 -2.619,-1.626 -3.587,-3.254 -0.519,-0.698 -0.122,-2.376 -1.025,-3.485 -0.903,-1.108 -1.864,-1.857 -1.665,-2.536 z"
       id="path49" />
    <path
       d="m 103.2,92.082 c 0,0 0.765,-0.145 0.978,0.036 0.268,0.09 0.526,0.168 0.598,0.399 0.29,0.086 0.49,0.235 0.49,0.453 0.271,0.072 0.38,0.561 0.38,0.561 l -0.254,0.38 c 0,0 -0.29,-0.271 -0.326,-0.56 -0.183,-0.091 -0.589,-0.187 -0.688,-0.454 -0.317,-0.031 -0.521,-0.195 -0.58,-0.47 -0.295,0.067 -0.598,-0.345 -0.598,-0.345 z"
       id="path51" />
    <path
       d="m 109.68,87.717 c -0.436,-0.487 -1.204,-0.128 -1.204,-0.128 l -2.05,3.536 -0.897,0.743 -0.077,2.767 0.743,2.587 -0.256,1.999 c 0,0 1.032,-0.969 1.153,-1.512 0.116,-0.519 -0.384,-2.203 -0.384,-2.203 0,0 -0.615,-1.05 0.128,-2.998 0.743,-1.947 2.434,-3.561 2.844,-4.79 z"
       id="path53" />
    <path
       d="m 114.74,90.868 c 0,0 -3.2,4.573 -8.44,6.2 -1.447,0.346 -0.922,-3.382 -0.922,-3.382 l -0.359,0.103 c 0,0 -0.807,3.65 1.127,3.69 5.266,-1.038 9.216,-6.581 9.216,-6.581 l -0.63,-0.028 z m 2.17,26.292 c 0,0 -0.487,0.359 -1.127,0 -0.333,-0.769 -1.23,-0.82 -1.23,-0.82 0,0 -0.578,-1.66 -1.486,-1.178 -0.141,-0.859 -1.127,-0.41 -1.127,-0.41 0,0 -0.026,-1.243 -1.179,-1.076 0.384,-1.423 -1.589,-1.333 -1.589,-1.333 0,0 -0.064,-1.601 -2.972,-1.28 6.265,-2.806 11.222,4.406 11.222,4.406 m 2.458,2.301 c 0,0 1.448,1.627 2.203,1.64 0.756,0.013 0.82,-1.589 0.82,-1.589 0,0 0.244,0.692 0.615,0.513 -0.038,0.486 0.461,0.615 0.461,0.615 0,0 -1.306,3.036 -5.021,0.153 m -10.408,-0.712 -0.512,2.1 c 0,0 -0.654,0.59 -0.462,0.718 0.193,0.128 1.23,-0.205 1.23,-0.205 0,0 1.614,-0.192 2.101,-0.666 0.333,0.756 1.076,0.82 1.076,0.82 0,0 0.051,-0.32 -0.051,-0.512 0.359,0.064 0.666,-0.052 0.666,-0.052 0,0 0.205,-0.589 -0.256,-0.82 0.051,-0.435 0.269,-0.82 -0.512,-0.768 -0.577,0.615 -1.999,1.32 -2.358,1.076 -0.358,-0.243 1.41,-1.025 0.923,-2.05"
       id="path55" />
  </g>
</svg>
